Titillium Math Sans Pro Zanichelli-Regular.ufo
<glyph name="quotedbl" format="2">
  <advance width="357"/>
  <unicode hex="0022"/>
  <note>
quotedbl
</note>
  <outline>
    <contour>
      <point x="140" y="730" type="line"/>
      <point x="63" y="730" type="line"/>
      <point x="68" y="508" type="line"/>
      <point x="135" y="508" type="line"/>
    </contour>
    <contour>
      <point x="294" y="730" type="line"/>
      <point x="217" y="730" type="line"/>
      <point x="222" y="508" type="line"/>
      <point x="289" y="508" type="line"/>
    </contour>
  </outline>
</glyph>
<glyph name="percent" format="2">
  <advance width="655"/>
  <unicode hex="0025"/>
  <note>
percent
</note>
  <outline>
    <contour>
      <point x="159" y="711" type="curve" smooth="yes"/>
      <point x="85" y="711"/>
      <point x="41" y="670"/>
      <point x="41" y="542" type="curve" smooth="yes"/>
      <point x="41" y="414"/>
      <point x="86" y="374"/>
      <point x="160" y="374" type="curve" smooth="yes"/>
      <point x="234" y="374"/>
      <point x="278" y="414"/>
      <point x="278" y="542" type="curve" smooth="yes"/>
      <point x="278" y="670"/>
      <point x="235" y="711"/>
    </contour>
    <contour>
      <point x="523" y="710" type="line"/>
      <point x="92" y="16" type="line"/>
      <point x="130" y="-10" type="line"/>
      <point x="563" y="683" type="line"/>
    </contour>
    <contour>
      <point x="106" y="542" type="curve" smooth="yes"/>
      <point x="106" y="626"/>
      <point x="124" y="653"/>
      <point x="159" y="653" type="curve" smooth="yes"/>
      <point x="197" y="653"/>
      <point x="213" y="625"/>
      <point x="213" y="542" type="curve" smooth="yes"/>
      <point x="213" y="454"/>
      <point x="194" y="432"/>
      <point x="160" y="432" type="curve" smooth="yes"/>
      <point x="126" y="432"/>
      <point x="106" y="454"/>
    </contour>
    <contour>
      <point x="377" y="156" type="curve" smooth="yes"/>
      <point x="377" y="28"/>
      <point x="422" y="-12"/>
      <point x="496" y="-12" type="curve" smooth="yes"/>
      <point x="570" y="-12"/>
      <point x="614" y="28"/>
      <point x="614" y="156" type="curve" smooth="yes"/>
      <point x="614" y="284"/>
      <point x="571" y="325"/>
      <point x="495" y="325" type="curve" smooth="yes"/>
      <point x="421" y="325"/>
      <point x="377" y="284"/>
    </contour>
    <contour>
      <point x="442" y="156" type="curve" smooth="yes"/>
      <point x="442" y="240"/>
      <point x="460" y="267"/>
      <point x="495" y="267" type="curve" smooth="yes"/>
      <point x="533" y="267"/>
      <point x="549" y="239"/>
      <point x="549" y="156" type="curve" smooth="yes"/>
      <point x="549" y="68"/>
      <point x="530" y="46"/>
      <point x="496" y="46" type="curve" smooth="yes"/>
      <point x="462" y="46"/>
      <point x="442" y="68"/>
    </contour>
  </outline>
</glyph>
<glyph name="parenright" format="2">
  <advance width="265"/>
  <unicode hex="0029"/>
  <note>
parenright
</note>
  <outline>
    <contour>
      <point x="110" y="750" type="curve"/>
      <point x="38" y="750" type="line"/>
      <point x="38" y="750"/>
      <point x="133" y="494"/>
      <point x="133" y="301" type="curve" smooth="yes"/>
      <point x="133" y="110"/>
      <point x="38" y="-125"/>
      <point x="38" y="-125" type="curve"/>
      <point x="110" y="-125" type="line"/>
      <point x="110" y="-125"/>
      <point x="214" y="85"/>
      <point x="214" y="301" type="curve" smooth="yes"/>
      <point x="214" y="517"/>
      <point x="110" y="750"/>
    </contour>
  </outline>
</glyph>
<glyph name="colon" format="2">
  <advance width="216"/>
  <unicode hex="003A"/>
  <note>
colon
</note>
  <outline>
    <contour>
      <point x="149" y="114" type="line"/>
      <point x="67" y="114" type="line"/>
      <point x="67" y="0" type="line"/>
      <point x="149" y="0" type="line"/>
    </contour>
    <contour>
      <point x="67" y="438" type="line"/>
      <point x="67" y="324" type="line"/>
      <point x="149" y="324" type="line"/>
      <point x="149" y="438" type="line"/>
    </contour>
  </outline>
</glyph>
<glyph name="semicolon" format="2">
  <advance width="246"/>
  <unicode hex="003B"/>
  <note>
semicolon
</note>
  <outline>
    <contour>
      <point x="174" y="114" type="line"/>
      <point x="91" y="114" type="line"/>
      <point x="45" y="-123" type="line"/>
      <point x="107" y="-123" type="line"/>
    </contour>
    <contour>
      <point x="91" y="438" type="line"/>
      <point x="91" y="324" type="line"/>
      <point x="173" y="324" type="line"/>
      <point x="173" y="438" type="line"/>
    </contour>
  </outline>
</glyph>
<glyph name="less" format="2">
  <advance width="560"/>
  <unicode hex="003C"/>
  <note>
less
</note>
  <outline>
    <contour>
      <point x="490" y="116" type="line"/>
      <point x="142" y="285" type="line"/>
      <point x="490" y="454" type="line"/>
      <point x="490" y="530" type="line"/>
      <point x="64" y="316" type="line"/>
      <point x="64" y="254" type="line"/>
      <point x="490" y="40" type="line"/>
    </contour>
  </outline>
</glyph>
<glyph name="H" format="2">
  <advance width="675"/>
  <unicode hex="0048"/>
  <note>
H
</note>
  <anchor x="338" y="0" name="bottom"/>
  <anchor x="338" y="547" name="center"/>
  <anchor x="338" y="700" name="top"/>
  <outline>
    <contour>
      <point x="163" y="321" type="line"/>
      <point x="512" y="321" type="line"/>
      <point x="512" y="0" type="line"/>
      <point x="590" y="0" type="line"/>
      <point x="590" y="700" type="line"/>
      <point x="512" y="700" type="line"/>
      <point x="512" y="391" type="line"/>
      <point x="163" y="391" type="line"/>
      <point x="163" y="700" type="line"/>
      <point x="85" y="700" type="line"/>
      <point x="85" y="0" type="line"/>
      <point x="163" y="0" type="line"/>
    </contour>
  </outline>
</glyph>
<glyph name="I" format="2">
  <advance width="248"/>
  <unicode hex="0049"/>
  <note>
I
</note>
  <anchor x="124" y="0" name="bottom"/>
  <anchor x="124" y="353" name="center"/>
  <anchor x="163" y="0" name="ogonek"/>
  <anchor x="124" y="700" name="top"/>
  <outline>
    <contour>
      <point x="163" y="700" type="line"/>
      <point x="85" y="700" type="line"/>
      <point x="85" y="0" type="line"/>
      <point x="163" y="0" type="line"/>
    </contour>
  </outline>
</glyph>
<glyph name="T" format="2">
  <advance width="526"/>
  <unicode hex="0054"/>
  <note>
T
</note>
  <anchor x="263" y="0" name="bottom"/>
  <anchor x="263" y="340" name="center"/>
  <anchor x="263" y="700" name="top"/>
  <outline>
    <contour>
      <point x="512" y="700" type="line"/>
      <point x="14" y="700" type="line"/>
      <point x="14" y="630" type="line"/>
      <point x="224" y="630" type="line"/>
      <point x="224" y="0" type="line"/>
      <point x="302" y="0" type="line"/>
      <point x="302" y="630" type="line"/>
      <point x="512" y="630" type="line"/>
    </contour>
  </outline>
</glyph>
<glyph name="Y" format="2">
  <advance width="552"/>
  <unicode hex="0059"/>
  <note>
Y
</note>
  <anchor x="277" y="0" name="bottom"/>
  <anchor x="277" y="700" name="top"/>
  <outline>
    <contour>
      <point x="237" y="294" type="line"/>
      <point x="237" y="0" type="line"/>
      <point x="315" y="0" type="line"/>
      <point x="315" y="294" type="line"/>
      <point x="535" y="700" type="line"/>
      <point x="451" y="700" type="line"/>
      <point x="277" y="367" type="line"/>
      <point x="101" y="700" type="line"/>
      <point x="17" y="700" type="line"/>
    </contour>
  </outline>
</glyph>
<glyph name="backslash" format="2">
  <advance width="383"/>
  <unicode hex="005C"/>
  <note>
backslash
</note>
  <outline>
    <contour>
      <point x="366" y="14" type="line"/>
      <point x="84" y="710" type="line"/>
      <point x="17" y="685" type="line"/>
      <point x="299" y="-10" type="line"/>
    </contour>
  </outline>
</glyph>
<glyph name="bracketright" format="2">
  <advance width="327"/>
  <unicode hex="005D"/>
  <note>
bracketright
</note>
  <outline>
    <contour>
      <point x="33" y="748" type="line"/>
      <point x="33" y="681" type="line"/>
      <point x="167" y="681" type="line"/>
      <point x="167" y="-56" type="line"/>
      <point x="33" y="-56" type="line"/>
      <point x="33" y="-123" type="line"/>
      <point x="243" y="-123" type="line"/>
      <point x="243" y="748" type="line"/>
    </contour>
  </outline>
</glyph>
<glyph name="i" format="2">
  <advance width="222"/>
  <unicode hex="0069"/>
  <note>
i
</note>
  <anchor x="111" y="0" name="bottom"/>
  <anchor x="149" y="0" name="ogonek"/>
  <anchor x="111" y="700" name="top"/>
  <outline>
    <contour>
      <point x="149" y="500" type="line"/>
      <point x="73" y="500" type="line"/>
      <point x="73" y="0" type="line"/>
      <point x="149" y="0" type="line"/>
    </contour>
    <contour>
      <point x="73" y="700" type="line"/>
      <point x="73" y="603" type="line"/>
      <point x="148" y="603" type="line"/>
      <point x="148" y="700" type="line"/>
    </contour>
  </outline>
</glyph>
<glyph name="j" format="2">
  <advance width="222"/>
  <unicode hex="006A"/>
  <note>
j
</note>
  <anchor x="105" y="-230" name="bottom"/>
  <anchor x="110" y="700" name="top"/>
  <outline>
    <contour>
      <point x="149" y="500" type="line"/>
      <point x="73" y="500" type="line"/>
      <point x="73" y="-6" type="line" smooth="yes"/>
      <point x="73" y="-102"/>
      <point x="52" y="-125"/>
      <point x="-49" y="-184" type="curve"/>
      <point x="-19" y="-242" type="line"/>
      <point x="114" y="-174"/>
      <point x="149" y="-130"/>
      <point x="149" y="-7" type="curve" smooth="yes"/>
    </contour>
    <contour>
      <point x="72" y="700" type="line"/>
      <point x="72" y="603" type="line"/>
      <point x="147" y="603" type="line"/>
      <point x="147" y="700" type="line"/>
    </contour>
  </outline>
</glyph>
<glyph name="braceright" format="2">
  <advance width="355"/>
  <unicode hex="007D"/>
  <note>
braceright
</note>
  <outline>
    <contour>
      <point x="139" y="171" type="curve" smooth="yes"/>
      <point x="140" y="132"/>
      <point x="146" y="89"/>
      <point x="146" y="53" type="curve" smooth="yes"/>
      <point x="146" y="-16"/>
      <point x="125" y="-59"/>
      <point x="32" y="-64" type="curve"/>
      <point x="34" y="-129" type="line"/>
      <point x="168" y="-124"/>
      <point x="219" y="-73"/>
      <point x="219" y="46" type="curve" smooth="yes"/>
      <point x="219" y="85"/>
      <point x="212" y="141"/>
      <point x="212" y="170" type="curve" smooth="yes"/>
      <point x="212" y="227"/>
      <point x="243" y="261"/>
      <point x="319" y="282" type="curve"/>
      <point x="319" y="343" type="line"/>
      <point x="242" y="361"/>
      <point x="212" y="395"/>
      <point x="212" y="452" type="curve" smooth="yes"/>
      <point x="212" y="484"/>
      <point x="219" y="541"/>
      <point x="219" y="578" type="curve" smooth="yes"/>
      <point x="219" y="701"/>
      <point x="168" y="749"/>
      <point x="34" y="754" type="curve"/>
      <point x="32" y="689" type="line"/>
      <point x="124" y="684"/>
      <point x="146" y="644"/>
      <point x="146" y="574" type="curve" smooth="yes"/>
      <point x="146" y="541"/>
      <point x="139" y="486"/>
      <point x="139" y="453" type="curve" smooth="yes"/>
      <point x="139" y="368"/>
      <point x="161" y="337"/>
      <point x="244" y="313" type="curve"/>
      <point x="161" y="289"/>
      <point x="137" y="254"/>
    </contour>
  </outline>
</glyph>
<glyph name="exclamdown" format="2">
  <advance width="219"/>
  <unicode hex="00A1"/>
  <note>
exclamdown
</note>
  <outline>
    <contour>
      <point x="68" y="500" type="line"/>
      <point x="68" y="391" type="line"/>
      <point x="150" y="391" type="line"/>
      <point x="150" y="500" type="line"/>
    </contour>
    <contour>
      <point x="75" y="272" type="line"/>
      <point x="70" y="-200" type="line"/>
      <point x="149" y="-200" type="line"/>
      <point x="144" y="272" type="line"/>
    </contour>
  </outline>
</glyph>
<glyph name="yen" format="2">
  <advance width="576"/>
  <unicode hex="00A5"/>
  <note>
yen
</note>
  <outline>
    <contour>
      <point x="249" y="0" type="line"/>
      <point x="327" y="0" type="line"/>
      <point x="327" y="123" type="line"/>
      <point x="487" y="123" type="line"/>
      <point x="487" y="187" type="line"/>
      <point x="327" y="187" type="line"/>
      <point x="327" y="262" type="line"/>
      <point x="487" y="262" type="line"/>
      <point x="487" y="326" type="line"/>
      <point x="359" y="326" type="line"/>
      <point x="547" y="660" type="line"/>
      <point x="463" y="660" type="line"/>
      <point x="289" y="342" type="line"/>
      <point x="113" y="660" type="line"/>
      <point x="29" y="660" type="line"/>
      <point x="217" y="326" type="line"/>
      <point x="89" y="326" type="line"/>
      <point x="89" y="262" type="line"/>
      <point x="249" y="262" type="line"/>
      <point x="249" y="187" type="line"/>
      <point x="89" y="187" type="line"/>
      <point x="89" y="123" type="line"/>
      <point x="249" y="123" type="line"/>
    </contour>
  </outline>
</glyph>
<glyph name="dieresis" format="2">
  <advance width="373"/>
  <unicode hex="00A8"/>
  <note>
dieresis
</note>
  <outline>
    <contour>
      <point x="122" y="711" type="line"/>
      <point x="50" y="711" type="line"/>
      <point x="50" y="624" type="line"/>
      <point x="122" y="624" type="line"/>
    </contour>
    <contour>
      <point x="250" y="711" type="line"/>
      <point x="250" y="624" type="line"/>
      <point x="323" y="624" type="line"/>
      <point x="323" y="711" type="line"/>
    </contour>
  </outline>
</glyph>
<glyph name="guillemotleft" format="2">
  <advance width="520"/>
  <unicode hex="00AB"/>
  <note>
guillemotleft
</note>
  <outline>
    <contour>
      <point x="295" y="124" type="line"/>
      <point x="112" y="285" type="line"/>
      <point x="295" y="446" type="line"/>
      <point x="258" y="498" type="line"/>
      <point x="49" y="317" type="line"/>
      <point x="49" y="253" type="line"/>
      <point x="258" y="72" type="line"/>
    </contour>
    <contour>
      <point x="229" y="317" type="line"/>
      <point x="229" y="254" type="line"/>
      <point x="434" y="77" type="line"/>
      <point x="470" y="128" type="line"/>
      <point x="291" y="285" type="line"/>
      <point x="470" y="443" type="line"/>
      <point x="434" y="494" type="line"/>
    </contour>
  </outline>
</glyph>
<glyph name="uni00AD" format="2">
  <advance width="0"/>
  <unicode hex="00AD"/>
  <note>
uni00AD
</note>
  <outline>
    <contour>
      <point x="155" y="320" type="line"/>
      <point x="-155" y="320" type="line"/>
      <point x="-155" y="250" type="line"/>
      <point x="155" y="250" type="line"/>
    </contour>
  </outline>
</glyph>
<glyph name="macron" format="2">
  <advance width="375"/>
  <unicode hex="00AF"/>
  <note>
macron
</note>
  <outline>
    <contour>
      <point x="325" y="683" type="line"/>
      <point x="50" y="683" type="line"/>
      <point x="50" y="624" type="line"/>
      <point x="325" y="624" type="line"/>
    </contour>
  </outline>
</glyph>
<glyph name="uni00B2" format="2">
  <advance width="265"/>
  <unicode hex="00B2"/>
  <note>
uni00B2
</note>
  <outline>
    <contour>
      <point x="27" y="471" type="line"/>
      <point x="27" y="416" type="line"/>
      <point x="236" y="416" type="line"/>
      <point x="236" y="474" type="line"/>
      <point x="108" y="474" type="line"/>
      <point x="172" y="537" type="line" smooth="yes"/>
      <point x="212" y="577"/>
      <point x="232" y="604"/>
      <point x="232" y="650" type="curve" smooth="yes"/>
      <point x="232" y="712"/>
      <point x="202" y="741"/>
      <point x="133" y="741" type="curve" smooth="yes"/>
      <point x="89" y="741"/>
      <point x="30" y="729"/>
      <point x="30" y="729" type="curve"/>
      <point x="32" y="672" type="line"/>
      <point x="32" y="672"/>
      <point x="88" y="681"/>
      <point x="117" y="681" type="curve" smooth="yes"/>
      <point x="146" y="681"/>
      <point x="166" y="670"/>
      <point x="166" y="644" type="curve" smooth="yes"/>
      <point x="166" y="614"/>
      <point x="146" y="592"/>
      <point x="115" y="561" type="curve" smooth="yes"/>
    </contour>
  </outline>
</glyph>
<glyph name="uni00B3" format="2">
  <advance width="274"/>
  <unicode hex="00B3"/>
  <note>
uni00B3
</note>
  <outline>
    <contour>
      <point x="29" y="731" type="curve"/>
      <point x="33" y="676" type="line"/>
      <point x="33" y="676"/>
      <point x="82" y="683"/>
      <point x="125" y="683" type="curve" smooth="yes"/>
      <point x="157" y="683"/>
      <point x="170" y="672"/>
      <point x="170" y="649" type="curve" smooth="yes"/>
      <point x="170" y="624"/>
      <point x="150" y="605"/>
      <point x="132" y="605" type="curve" smooth="yes"/>
      <point x="67" y="605" type="line"/>
      <point x="67" y="552" type="line"/>
      <point x="132" y="552" type="line" smooth="yes"/>
      <point x="160" y="552"/>
      <point x="179" y="541"/>
      <point x="179" y="506" type="curve" smooth="yes"/>
      <point x="179" y="481"/>
      <point x="164" y="462"/>
      <point x="129" y="462" type="curve" smooth="yes"/>
      <point x="86" y="462"/>
      <point x="29" y="472"/>
      <point x="29" y="472" type="curve"/>
      <point x="25" y="416" type="line"/>
      <point x="25" y="416"/>
      <point x="89" y="404"/>
      <point x="138" y="404" type="curve" smooth="yes"/>
      <point x="205" y="404"/>
      <point x="244" y="437"/>
      <point x="244" y="503" type="curve" smooth="yes"/>
      <point x="244" y="558"/>
      <point x="227" y="574"/>
      <point x="197" y="584" type="curve"/>
      <point x="204" y="588"/>
      <point x="236" y="608"/>
      <point x="236" y="657" type="curve" smooth="yes"/>
      <point x="236" y="715"/>
      <point x="202" y="741"/>
      <point x="131" y="741" type="curve" smooth="yes"/>
      <point x="88" y="741"/>
      <point x="29" y="731"/>
    </contour>
  </outline>
</glyph>
<glyph name="acute" format="2">
  <advance width="342"/>
  <unicode hex="00B4"/>
  <note>
acute
</note>
  <outline>
    <contour>
      <point x="266" y="740" type="line"/>
      <point x="50" y="642" type="line"/>
      <point x="71" y="591" type="line"/>
      <point x="292" y="676" type="line"/>
    </contour>
  </outline>
</glyph>
<glyph name="cedilla" format="2">
  <advance width="283"/>
  <unicode hex="00B8"/>
  <note>
cedilla
</note>
  <outline>
    <contour>
      <point x="237" y="-127" type="curve" smooth="yes"/>
      <point x="237" y="-63"/>
      <point x="200" y="-49"/>
      <point x="137" y="-49" type="curve"/>
      <point x="148" y="1" type="line"/>
      <point x="103" y="1" type="line"/>
      <point x="83" y="-93" type="line"/>
      <point x="127" y="-93" type="line" smooth="yes"/>
      <point x="155" y="-93"/>
      <point x="171" y="-102"/>
      <point x="171" y="-127" type="curve" smooth="yes"/>
      <point x="171" y="-155"/>
      <point x="155" y="-165"/>
      <point x="127" y="-165" type="curve" smooth="yes"/>
      <point x="100" y="-165"/>
      <point x="57" y="-162"/>
      <point x="57" y="-162" type="curve"/>
      <point x="54" y="-210" type="line"/>
      <point x="54" y="-210"/>
      <point x="100" y="-217"/>
      <point x="144" y="-217" type="curve" smooth="yes"/>
      <point x="200" y="-217"/>
      <point x="237" y="-190"/>
    </contour>
  </outline>
</glyph>
<glyph name="uni00B9" format="2">
  <advance width="212"/>
  <unicode hex="00B9"/>
  <note>
uni00B9
</note>
  <outline>
    <contour>
      <point x="169" y="732" type="line"/>
      <point x="109" y="732" type="line"/>
      <point x="8" y="662" type="line"/>
      <point x="37" y="615" type="line"/>
      <point x="105" y="662" type="line"/>
      <point x="105" y="416" type="line"/>
      <point x="169" y="416" type="line"/>
    </contour>
  </outline>
</glyph>
<glyph name="guillemotright" format="2">
  <advance width="520"/>
  <unicode hex="00BB"/>
  <note>
guillemotright
</note>
  <outline>
    <contour>
      <point x="225" y="446" type="line"/>
      <point x="408" y="285" type="line"/>
      <point x="225" y="124" type="line"/>
      <point x="262" y="72" type="line"/>
      <point x="471" y="253" type="line"/>
      <point x="471" y="317" type="line"/>
      <point x="262" y="498" type="line"/>
    </contour>
    <contour>
      <point x="229" y="285" type="line"/>
      <point x="50" y="128" type="line"/>
      <point x="86" y="77" type="line"/>
      <point x="291" y="254" type="line"/>
      <point x="291" y="317" type="line"/>
      <point x="86" y="494" type="line"/>
      <point x="50" y="443" type="line"/>
    </contour>
  </outline>
</glyph>
<glyph name="onequarter" format="2">
  <advance width="590"/>
  <unicode hex="00BC"/>
  <note>
onequarter
</note>
  <outline>
    <contour>
      <point x="193" y="702" type="line"/>
      <point x="133" y="702" type="line"/>
      <point x="32" y="632" type="line"/>
      <point x="61" y="585" type="line"/>
      <point x="129" y="632" type="line"/>
      <point x="129" y="386" type="line"/>
      <point x="193" y="386" type="line"/>
    </contour>
    <contour>
      <point x="473" y="710" type="line"/>
      <point x="42" y="16" type="line"/>
      <point x="80" y="-10" type="line"/>
      <point x="513" y="683" type="line"/>
    </contour>
    <contour>
      <point x="326" y="104" type="line"/>
      <point x="326" y="50" type="line"/>
      <point x="467" y="50" type="line"/>
      <point x="467" y="0" type="line"/>
      <point x="530" y="0" type="line"/>
      <point x="530" y="50" type="line"/>
      <point x="557" y="50" type="line"/>
      <point x="557" y="108" type="line"/>
      <point x="530" y="108" type="line"/>
      <point x="530" y="199" type="line"/>
      <point x="472" y="199" type="line"/>
      <point x="467" y="108" type="line"/>
      <point x="392" y="108" type="line"/>
      <point x="465" y="316" type="line"/>
      <point x="395" y="316" type="line"/>
    </contour>
  </outline>
</glyph>
<glyph name="onehalf" format="2">
  <advance width="587"/>
  <unicode hex="00BD"/>
  <note>
onehalf
</note>
  <outline>
    <contour>
      <point x="193" y="702" type="line"/>
      <point x="133" y="702" type="line"/>
      <point x="32" y="632" type="line"/>
      <point x="61" y="585" type="line"/>
      <point x="129" y="632" type="line"/>
      <point x="129" y="386" type="line"/>
      <point x="193" y="386" type="line"/>
    </contour>
    <contour>
      <point x="473" y="710" type="line"/>
      <point x="42" y="16" type="line"/>
      <point x="80" y="-10" type="line"/>
      <point x="513" y="683" type="line"/>
    </contour>
    <contour>
      <point x="331" y="55" type="line"/>
      <point x="331" y="0" type="line"/>
      <point x="540" y="0" type="line"/>
      <point x="540" y="58" type="line"/>
      <point x="412" y="58" type="line"/>
      <point x="476" y="121" type="line" smooth="yes"/>
      <point x="516" y="161"/>
      <point x="536" y="188"/>
      <point x="536" y="234" type="curve" smooth="yes"/>
      <point x="536" y="296"/>
      <point x="506" y="325"/>
      <point x="437" y="325" type="curve" smooth="yes"/>
      <point x="393" y="325"/>
      <point x="334" y="313"/>
      <point x="334" y="313" type="curve"/>
      <point x="336" y="256" type="line"/>
      <point x="336" y="256"/>
      <point x="392" y="265"/>
      <point x="421" y="265" type="curve" smooth="yes"/>
      <point x="450" y="265"/>
      <point x="470" y="254"/>
      <point x="470" y="228" type="curve" smooth="yes"/>
      <point x="470" y="198"/>
      <point x="450" y="176"/>
      <point x="419" y="145" type="curve" smooth="yes"/>
    </contour>
  </outline>
</glyph>
<glyph name="threequarters" format="2">
  <advance width="632"/>
  <unicode hex="00BE"/>
  <note>
threequarters
</note>
  <outline>
    <contour>
      <point x="50" y="701" type="curve"/>
      <point x="54" y="646" type="line"/>
      <point x="54" y="646"/>
      <point x="103" y="653"/>
      <point x="146" y="653" type="curve" smooth="yes"/>
      <point x="178" y="653"/>
      <point x="191" y="642"/>
      <point x="191" y="619" type="curve" smooth="yes"/>
      <point x="191" y="594"/>
      <point x="171" y="575"/>
      <point x="153" y="575" type="curve" smooth="yes"/>
      <point x="88" y="575" type="line"/>
      <point x="88" y="522" type="line"/>
      <point x="153" y="522" type="line" smooth="yes"/>
      <point x="181" y="522"/>
      <point x="200" y="511"/>
      <point x="200" y="476" type="curve" smooth="yes"/>
      <point x="200" y="451"/>
      <point x="185" y="432"/>
      <point x="150" y="432" type="curve" smooth="yes"/>
      <point x="107" y="432"/>
      <point x="50" y="442"/>
      <point x="50" y="442" type="curve"/>
      <point x="46" y="386" type="line"/>
      <point x="46" y="386"/>
      <point x="110" y="374"/>
      <point x="159" y="374" type="curve" smooth="yes"/>
      <point x="226" y="374"/>
      <point x="265" y="407"/>
      <point x="265" y="473" type="curve" smooth="yes"/>
      <point x="265" y="528"/>
      <point x="248" y="544"/>
      <point x="218" y="554" type="curve"/>
      <point x="225" y="558"/>
      <point x="257" y="578"/>
      <point x="257" y="627" type="curve" smooth="yes"/>
      <point x="257" y="685"/>
      <point x="223" y="711"/>
      <point x="152" y="711" type="curve" smooth="yes"/>
      <point x="109" y="711"/>
      <point x="50" y="701"/>
    </contour>
    <contour>
      <point x="515" y="710" type="line"/>
      <point x="84" y="16" type="line"/>
      <point x="122" y="-10" type="line"/>
      <point x="555" y="683" type="line"/>
    </contour>
    <contour>
      <point x="368" y="104" type="line"/>
      <point x="368" y="50" type="line"/>
      <point x="509" y="50" type="line"/>
      <point x="509" y="0" type="line"/>
      <point x="572" y="0" type="line"/>
      <point x="572" y="50" type="line"/>
      <point x="599" y="50" type="line"/>
      <point x="599" y="108" type="line"/>
      <point x="572" y="108" type="line"/>
      <point x="572" y="199" type="line"/>
      <point x="514" y="199" type="line"/>
      <point x="509" y="108" type="line"/>
      <point x="434" y="108" type="line"/>
      <point x="507" y="316" type="line"/>
      <point x="437" y="316" type="line"/>
    </contour>
  </outline>
</glyph>
<glyph name="questiondown" format="2">
  <advance width="423"/>
  <unicode hex="00BF"/>
  <note>
questiondown
</note>
  <outline>
    <contour>
      <point x="31" y="-41" type="curve" smooth="yes"/>
      <point x="31" y="-167"/>
      <point x="111" y="-210"/>
      <point x="231" y="-210" type="curve" smooth="yes"/>
      <point x="331" y="-210"/>
      <point x="400" y="-180"/>
      <point x="400" y="-180" type="curve"/>
      <point x="395" y="-119" type="line"/>
      <point x="395" y="-119"/>
      <point x="310" y="-142"/>
      <point x="236" y="-142" type="curve" smooth="yes"/>
      <point x="164" y="-142"/>
      <point x="107" y="-123"/>
      <point x="107" y="-41" type="curve" smooth="yes"/>
      <point x="107" y="4"/>
      <point x="124" y="35"/>
      <point x="196" y="97" type="curve" smooth="yes"/>
      <point x="249" y="142"/>
      <point x="289" y="181"/>
      <point x="289" y="230" type="curve" smooth="yes"/>
      <point x="289" y="264"/>
      <point x="276" y="291"/>
      <point x="276" y="291" type="curve"/>
      <point x="213" y="291" type="line"/>
      <point x="213" y="256" type="line" smooth="yes"/>
      <point x="213" y="211"/>
      <point x="183" y="180"/>
      <point x="124" y="131" type="curve" smooth="yes"/>
      <point x="46" y="66"/>
      <point x="31" y="15"/>
    </contour>
    <contour>
      <point x="200" y="500" type="line"/>
      <point x="200" y="391" type="line"/>
      <point x="282" y="391" type="line"/>
      <point x="282" y="500" type="line"/>
    </contour>
  </outline>
</glyph>
<glyph name="Agrave" format="2">
  <advance width="602"/>
  <unicode hex="00C0"/>
  <note>
Agrave
</note>
  <anchor x="298" y="0" name="bottom"/>
  <anchor x="578" y="0" name="ogonek"/>
  <anchor x="298" y="920" name="top"/>
  <outline>
    <contour>
      <point x="283" y="626" type="line"/>
      <point x="313" y="626" type="line"/>
      <point x="423" y="255" type="line"/>
      <point x="173" y="255" type="line"/>
    </contour>
    <contour>
      <point x="232" y="700" type="line"/>
      <point x="24" y="0" type="line"/>
      <point x="98" y="0" type="line"/>
      <point x="153" y="187" type="line"/>
      <point x="443" y="187" type="line"/>
      <point x="498" y="0" type="line"/>
      <point x="578" y="0" type="line"/>
      <point x="370" y="700" type="line"/>
    </contour>
    <contour>
      <point x="203" y="920" type="line"/>
      <point x="177" y="856" type="line"/>
      <point x="398" y="771" type="line"/>
      <point x="419" y="822" type="line"/>
    </contour>
  </outline>
</glyph>
<glyph name="Acircumflex" format="2">
  <advance width="602"/>
  <unicode hex="00C2"/>
  <note>
Acircumflex
</note>
  <anchor x="298" y="0" name="bottom"/>
  <anchor x="578" y="0" name="ogonek"/>
  <anchor x="298" y="915" name="top"/>
  <outline>
    <contour>
      <point x="283" y="626" type="line"/>
      <point x="313" y="626" type="line"/>
      <point x="423" y="255" type="line"/>
      <point x="173" y="255" type="line"/>
    </contour>
    <contour>
      <point x="232" y="700" type="line"/>
      <point x="24" y="0" type="line"/>
      <point x="98" y="0" type="line"/>
      <point x="153" y="187" type="line"/>
      <point x="443" y="187" type="line"/>
      <point x="498" y="0" type="line"/>
      <point x="578" y="0" type="line"/>
      <point x="370" y="700" type="line"/>
    </contour>
    <contour>
      <point x="262" y="915" type="line"/>
      <point x="148" y="776" type="line"/>
      <point x="223" y="776" type="line"/>
      <point x="298" y="864" type="line"/>
      <point x="373" y="776" type="line"/>
      <point x="448" y="776" type="line"/>
      <point x="334" y="915" type="line"/>
    </contour>
  </outline>
</glyph>
<glyph name="Atilde" format="2">
  <advance width="602"/>
  <unicode hex="00C3"/>
  <note>
Atilde
</note>
  <anchor x="298" y="0" name="bottom"/>
  <anchor x="578" y="0" name="ogonek"/>
  <anchor x="298" y="899" name="top"/>
  <outline>
    <contour>
      <point x="283" y="626" type="line"/>
      <point x="313" y="626" type="line"/>
      <point x="423" y="255" type="line"/>
      <point x="173" y="255" type="line"/>
    </contour>
    <contour>
      <point x="232" y="700" type="line"/>
      <point x="24" y="0" type="line"/>
      <point x="98" y="0" type="line"/>
      <point x="153" y="187" type="line"/>
      <point x="443" y="187" type="line"/>
      <point x="498" y="0" type="line"/>
      <point x="578" y="0" type="line"/>
      <point x="370" y="700" type="line"/>
    </contour>
    <contour>
      <point x="128" y="837" type="curve"/>
      <point x="158" y="799" type="line"/>
      <point x="158" y="799"/>
      <point x="207" y="839"/>
      <point x="231" y="839" type="curve" smooth="yes"/>
      <point x="263" y="839"/>
      <point x="330" y="792"/>
      <point x="370" y="792" type="curve" smooth="yes"/>
      <point x="410" y="792"/>
      <point x="459" y="843"/>
      <point x="469" y="853" type="curve"/>
      <point x="439" y="891" type="line"/>
      <point x="439" y="891"/>
      <point x="391" y="853"/>
      <point x="370" y="853" type="curve" smooth="yes"/>
      <point x="340" y="853"/>
      <point x="271" y="899"/>
      <point x="231" y="899" type="curve" smooth="yes"/>
      <point x="190" y="899"/>
      <point x="128" y="837"/>
    </contour>
  </outline>
</glyph>
<glyph name="Adieresis" format="2">
  <advance width="602"/>
  <unicode hex="00C4"/>
  <note>
Adieresis
</note>
  <anchor x="298" y="0" name="bottom"/>
  <anchor x="578" y="0" name="ogonek"/>
  <anchor x="298" y="891" name="top"/>
  <outline>
    <contour>
      <point x="283" y="626" type="line"/>
      <point x="313" y="626" type="line"/>
      <point x="423" y="255" type="line"/>
      <point x="173" y="255" type="line"/>
    </contour>
    <contour>
      <point x="232" y="700" type="line"/>
      <point x="24" y="0" type="line"/>
      <point x="98" y="0" type="line"/>
      <point x="153" y="187" type="line"/>
      <point x="443" y="187" type="line"/>
      <point x="498" y="0" type="line"/>
      <point x="578" y="0" type="line"/>
      <point x="370" y="700" type="line"/>
    </contour>
    <contour>
      <point x="161" y="891" type="line"/>
      <point x="161" y="804" type="line"/>
      <point x="233" y="804" type="line"/>
      <point x="233" y="891" type="line"/>
    </contour>
    <contour>
      <point x="361" y="891" type="line"/>
      <point x="361" y="804" type="line"/>
      <point x="434" y="804" type="line"/>
      <point x="434" y="891" type="line"/>
    </contour>
  </outline>
</glyph>
<glyph name="Aring" format="2">
  <advance width="602"/>
  <unicode hex="00C5"/>
  <note>
Aring
</note>
  <anchor x="298" y="0" name="bottom"/>
  <anchor x="578" y="0" name="ogonek"/>
  <anchor x="298" y="949" name="top"/>
  <outline>
    <contour>
      <point x="283" y="626" type="line"/>
      <point x="313" y="626" type="line"/>
      <point x="423" y="255" type="line"/>
      <point x="173" y="255" type="line"/>
    </contour>
    <contour>
      <point x="232" y="700" type="line"/>
      <point x="24" y="0" type="line"/>
      <point x="98" y="0" type="line"/>
      <point x="153" y="187" type="line"/>
      <point x="443" y="187" type="line"/>
      <point x="498" y="0" type="line"/>
      <point x="578" y="0" type="line"/>
      <point x="370" y="700" type="line"/>
    </contour>
    <contour>
      <point x="193" y="848" type="curve" smooth="yes"/>
      <point x="193" y="789"/>
      <point x="239" y="745"/>
      <point x="298" y="745" type="curve" smooth="yes"/>
      <point x="356" y="745"/>
      <point x="403" y="789"/>
      <point x="403" y="848" type="curve" smooth="yes"/>
      <point x="403" y="906"/>
      <point x="356" y="950"/>
      <point x="298" y="950" type="curve" smooth="yes"/>
      <point x="239" y="950"/>
      <point x="193" y="906"/>
    </contour>
    <contour>
      <point x="246" y="848" type="curve" smooth="yes"/>
      <point x="246" y="879"/>
      <point x="269" y="901"/>
      <point x="298" y="901" type="curve" smooth="yes"/>
      <point x="327" y="901"/>
      <point x="350" y="879"/>
      <point x="350" y="848" type="curve" smooth="yes"/>
      <point x="350" y="816"/>
      <point x="327" y="794"/>
      <point x="298" y="794" type="curve" smooth="yes"/>
      <point x="269" y="794"/>
      <point x="246" y="816"/>
    </contour>
  </outline>
</glyph>
<glyph name="Ccedilla" format="2">
  <advance width="541"/>
  <unicode hex="00C7"/>
  <note>
Ccedilla
</note>
  <anchor x="348" y="-217" name="bottom"/>
  <anchor x="326" y="700" name="top"/>
  <outline>
    <contour>
      <point x="505" y="9" type="curve"/>
      <point x="502" y="75" type="line"/>
      <point x="454" y="66"/>
      <point x="376" y="57"/>
      <point x="321" y="57" type="curve" smooth="yes"/>
      <point x="159" y="57"/>
      <point x="138" y="161"/>
      <point x="138" y="344" type="curve" smooth="yes"/>
      <point x="138" y="565"/>
      <point x="168" y="645"/>
      <point x="316" y="645" type="curve" smooth="yes"/>
      <point x="376" y="645"/>
      <point x="454" y="631"/>
      <point x="499" y="621" type="curve"/>
      <point x="502" y="686" type="line"/>
      <point x="458" y="697"/>
      <point x="385" y="714"/>
      <point x="308" y="714" type="curve" smooth="yes"/>
      <point x="106" y="714"/>
      <point x="58" y="587"/>
      <point x="58" y="344" type="curve" smooth="yes"/>
      <point x="58" y="116"/>
      <point x="101" y="-7"/>
      <point x="300" y="-12" type="curve"/>
      <point x="283" y="-93" type="line"/>
      <point x="327" y="-93" type="line" smooth="yes"/>
      <point x="355" y="-93"/>
      <point x="371" y="-102"/>
      <point x="371" y="-127" type="curve" smooth="yes"/>
      <point x="371" y="-155"/>
      <point x="355" y="-165"/>
      <point x="327" y="-165" type="curve" smooth="yes"/>
      <point x="300" y="-165"/>
      <point x="257" y="-162"/>
      <point x="257" y="-162" type="curve"/>
      <point x="254" y="-210" type="line"/>
      <point x="254" y="-210"/>
      <point x="300" y="-217"/>
      <point x="344" y="-217" type="curve" smooth="yes"/>
      <point x="400" y="-217"/>
      <point x="437" y="-190"/>
      <point x="437" y="-127" type="curve" smooth="yes"/>
      <point x="437" y="-63"/>
      <point x="400" y="-49"/>
      <point x="337" y="-49" type="curve"/>
      <point x="345" y="-11" type="line"/>
      <point x="402" y="-9"/>
      <point x="464" y="1"/>
    </contour>
  </outline>
</glyph>
<glyph name="Egrave" format="2">
  <advance width="554"/>
  <unicode hex="00C8"/>
  <note>
Egrave
</note>
  <anchor x="298" y="0" name="bottom"/>
  <anchor x="466" y="0" name="ogonek"/>
  <anchor x="298" y="920" name="top"/>
  <outline>
    <contour>
      <point x="506" y="700" type="line"/>
      <point x="85" y="700" type="line"/>
      <point x="85" y="0" type="line"/>
      <point x="506" y="0" type="line"/>
      <point x="506" y="68" type="line"/>
      <point x="163" y="68" type="line"/>
      <point x="163" y="323" type="line"/>
      <point x="446" y="323" type="line"/>
      <point x="446" y="389" type="line"/>
      <point x="163" y="389" type="line"/>
      <point x="163" y="632" type="line"/>
      <point x="506" y="632" type="line"/>
    </contour>
    <contour>
      <point x="203" y="920" type="line"/>
      <point x="177" y="856" type="line"/>
      <point x="398" y="771" type="line"/>
      <point x="419" y="822" type="line"/>
    </contour>
  </outline>
</glyph>
<glyph name="Eacute" format="2">
  <advance width="554"/>
  <unicode hex="00C9"/>
  <note>
Eacute
</note>
  <anchor x="298" y="0" name="bottom"/>
  <anchor x="466" y="0" name="ogonek"/>
  <anchor x="298" y="920" name="top"/>
  <outline>
    <contour>
      <point x="506" y="700" type="line"/>
      <point x="85" y="700" type="line"/>
      <point x="85" y="0" type="line"/>
      <point x="506" y="0" type="line"/>
      <point x="506" y="68" type="line"/>
      <point x="163" y="68" type="line"/>
      <point x="163" y="323" type="line"/>
      <point x="446" y="323" type="line"/>
      <point x="446" y="389" type="line"/>
      <point x="163" y="389" type="line"/>
      <point x="163" y="632" type="line"/>
      <point x="506" y="632" type="line"/>
    </contour>
    <contour>
      <point x="393" y="920" type="line"/>
      <point x="177" y="822" type="line"/>
      <point x="198" y="771" type="line"/>
      <point x="419" y="856" type="line"/>
    </contour>
  </outline>
</glyph>
<glyph name="Ecircumflex" format="2">
  <advance width="554"/>
  <unicode hex="00CA"/>
  <note>
Ecircumflex
</note>
  <anchor x="298" y="0" name="bottom"/>
  <anchor x="466" y="0" name="ogonek"/>
  <anchor x="298" y="915" name="top"/>
  <outline>
    <contour>
      <point x="506" y="700" type="line"/>
      <point x="85" y="700" type="line"/>
      <point x="85" y="0" type="line"/>
      <point x="506" y="0" type="line"/>
      <point x="506" y="68" type="line"/>
      <point x="163" y="68" type="line"/>
      <point x="163" y="323" type="line"/>
      <point x="446" y="323" type="line"/>
      <point x="446" y="389" type="line"/>
      <point x="163" y="389" type="line"/>
      <point x="163" y="632" type="line"/>
      <point x="506" y="632" type="line"/>
    </contour>
    <contour>
      <point x="262" y="915" type="line"/>
      <point x="148" y="776" type="line"/>
      <point x="223" y="776" type="line"/>
      <point x="298" y="864" type="line"/>
      <point x="373" y="776" type="line"/>
      <point x="448" y="776" type="line"/>
      <point x="334" y="915" type="line"/>
    </contour>
  </outline>
</glyph>
<glyph name="Edieresis" format="2">
  <advance width="554"/>
  <unicode hex="00CB"/>
  <note>
Edieresis
</note>
  <anchor x="298" y="0" name="bottom"/>
  <anchor x="466" y="0" name="ogonek"/>
  <anchor x="298" y="891" name="top"/>
  <outline>
    <contour>
      <point x="506" y="700" type="line"/>
      <point x="85" y="700" type="line"/>
      <point x="85" y="0" type="line"/>
      <point x="506" y="0" type="line"/>
      <point x="506" y="68" type="line"/>
      <point x="163" y="68" type="line"/>
      <point x="163" y="323" type="line"/>
      <point x="446" y="323" type="line"/>
      <point x="446" y="389" type="line"/>
      <point x="163" y="389" type="line"/>
      <point x="163" y="632" type="line"/>
      <point x="506" y="632" type="line"/>
    </contour>
    <contour>
      <point x="161" y="891" type="line"/>
      <point x="161" y="804" type="line"/>
      <point x="233" y="804" type="line"/>
      <point x="233" y="891" type="line"/>
    </contour>
    <contour>
      <point x="361" y="891" type="line"/>
      <point x="361" y="804" type="line"/>
      <point x="434" y="804" type="line"/>
      <point x="434" y="891" type="line"/>
    </contour>
  </outline>
</glyph>
<glyph name="Igrave" format="2">
  <advance width="248"/>
  <unicode hex="00CC"/>
  <note>
Igrave
</note>
  <anchor x="124" y="0" name="bottom"/>
  <anchor x="124" y="353" name="center"/>
  <anchor x="163" y="0" name="ogonek"/>
  <anchor x="124" y="920" name="top"/>
  <outline>
    <contour>
      <point x="163" y="700" type="line"/>
      <point x="85" y="700" type="line"/>
      <point x="85" y="0" type="line"/>
      <point x="163" y="0" type="line"/>
    </contour>
    <contour>
      <point x="29" y="920" type="line"/>
      <point x="3" y="856" type="line"/>
      <point x="224" y="771" type="line"/>
      <point x="245" y="822" type="line"/>
    </contour>
  </outline>
</glyph>
<glyph name="Iacute" format="2">
  <advance width="248"/>
  <unicode hex="00CD"/>
  <note>
Iacute
</note>
  <anchor x="124" y="0" name="bottom"/>
  <anchor x="124" y="353" name="center"/>
  <anchor x="163" y="0" name="ogonek"/>
  <anchor x="124" y="920" name="top"/>
  <outline>
    <contour>
      <point x="163" y="700" type="line"/>
      <point x="85" y="700" type="line"/>
      <point x="85" y="0" type="line"/>
      <point x="163" y="0" type="line"/>
    </contour>
    <contour>
      <point x="219" y="920" type="line"/>
      <point x="3" y="822" type="line"/>
      <point x="24" y="771" type="line"/>
      <point x="245" y="856" type="line"/>
    </contour>
  </outline>
</glyph>
<glyph name="Icircumflex" format="2">
  <advance width="248"/>
  <unicode hex="00CE"/>
  <note>
Icircumflex
</note>
  <anchor x="124" y="0" name="bottom"/>
  <anchor x="124" y="353" name="center"/>
  <anchor x="163" y="0" name="ogonek"/>
  <anchor x="124" y="915" name="top"/>
  <outline>
    <contour>
      <point x="163" y="700" type="line"/>
      <point x="85" y="700" type="line"/>
      <point x="85" y="0" type="line"/>
      <point x="163" y="0" type="line"/>
    </contour>
    <contour>
      <point x="88" y="915" type="line"/>
      <point x="-26" y="776" type="line"/>
      <point x="49" y="776" type="line"/>
      <point x="124" y="864" type="line"/>
      <point x="199" y="776" type="line"/>
      <point x="274" y="776" type="line"/>
      <point x="160" y="915" type="line"/>
    </contour>
  </outline>
</glyph>
<glyph name="Idieresis" format="2">
  <advance width="248"/>
  <unicode hex="00CF"/>
  <note>
Idieresis
</note>
  <anchor x="124" y="0" name="bottom"/>
  <anchor x="124" y="353" name="center"/>
  <anchor x="163" y="0" name="ogonek"/>
  <anchor x="124" y="891" name="top"/>
  <outline>
    <contour>
      <point x="163" y="700" type="line"/>
      <point x="85" y="700" type="line"/>
      <point x="85" y="0" type="line"/>
      <point x="163" y="0" type="line"/>
    </contour>
    <contour>
      <point x="-13" y="891" type="line"/>
      <point x="-13" y="804" type="line"/>
      <point x="59" y="804" type="line"/>
      <point x="59" y="891" type="line"/>
    </contour>
    <contour>
      <point x="187" y="891" type="line"/>
      <point x="187" y="804" type="line"/>
      <point x="260" y="804" type="line"/>
      <point x="260" y="891" type="line"/>
    </contour>
  </outline>
</glyph>
<glyph name="Ntilde" format="2">
  <advance width="679"/>
  <unicode hex="00D1"/>
  <note>
Ntilde
</note>
  <anchor x="340" y="0" name="bottom"/>
  <anchor x="364" y="899" name="top"/>
  <outline>
    <contour>
      <point x="244" y="700" type="line"/>
      <point x="85" y="700" type="line"/>
      <point x="85" y="0" type="line"/>
      <point x="163" y="0" type="line"/>
      <point x="163" y="626" type="line"/>
      <point x="193" y="626" type="line"/>
      <point x="435" y="0" type="line"/>
      <point x="594" y="0" type="line"/>
      <point x="594" y="700" type="line"/>
      <point x="516" y="700" type="line"/>
      <point x="516" y="74" type="line"/>
      <point x="486" y="74" type="line"/>
    </contour>
    <contour>
      <point x="194" y="837" type="curve"/>
      <point x="224" y="799" type="line"/>
      <point x="224" y="799"/>
      <point x="273" y="839"/>
      <point x="297" y="839" type="curve" smooth="yes"/>
      <point x="329" y="839"/>
      <point x="396" y="792"/>
      <point x="436" y="792" type="curve" smooth="yes"/>
      <point x="476" y="792"/>
      <point x="525" y="843"/>
      <point x="535" y="853" type="curve"/>
      <point x="505" y="891" type="line"/>
      <point x="505" y="891"/>
      <point x="457" y="853"/>
      <point x="436" y="853" type="curve" smooth="yes"/>
      <point x="406" y="853"/>
      <point x="337" y="899"/>
      <point x="297" y="899" type="curve" smooth="yes"/>
      <point x="256" y="899"/>
      <point x="194" y="837"/>
    </contour>
  </outline>
</glyph>
<glyph name="Otilde" format="2">
  <advance width="661"/>
  <unicode hex="00D5"/>
  <note>
Otilde
</note>
  <anchor x="331" y="0" name="bottom"/>
  <anchor x="331" y="350" name="center"/>
  <anchor x="396" y="0" name="ogonek"/>
  <anchor x="331" y="899" name="top"/>
  <anchor x="642" y="700" name="topright"/>
  <outline>
    <contour>
      <point x="330" y="57" type="curve" smooth="yes"/>
      <point x="170" y="57"/>
      <point x="137" y="156"/>
      <point x="137" y="345" type="curve" smooth="yes"/>
      <point x="137" y="539"/>
      <point x="171" y="645"/>
      <point x="330" y="645" type="curve" smooth="yes"/>
      <point x="488" y="645"/>
      <point x="524" y="538"/>
      <point x="524" y="345" type="curve" smooth="yes"/>
      <point x="524" y="150"/>
      <point x="491" y="57"/>
    </contour>
    <contour>
      <point x="57" y="345" type="curve" smooth="yes"/>
      <point x="57" y="113"/>
      <point x="115" y="-12"/>
      <point x="330" y="-12" type="curve" smooth="yes"/>
      <point x="545" y="-12"/>
      <point x="604" y="107"/>
      <point x="604" y="345" type="curve" smooth="yes"/>
      <point x="604" y="581"/>
      <point x="544" y="714"/>
      <point x="330" y="714" type="curve" smooth="yes"/>
      <point x="116" y="714"/>
      <point x="57" y="579"/>
    </contour>
    <contour>
      <point x="161" y="837" type="curve"/>
      <point x="191" y="799" type="line"/>
      <point x="191" y="799"/>
      <point x="240" y="839"/>
      <point x="264" y="839" type="curve" smooth="yes"/>
      <point x="296" y="839"/>
      <point x="363" y="792"/>
      <point x="403" y="792" type="curve" smooth="yes"/>
      <point x="443" y="792"/>
      <point x="492" y="843"/>
      <point x="502" y="853" type="curve"/>
      <point x="472" y="891" type="line"/>
      <point x="472" y="891"/>
      <point x="424" y="853"/>
      <point x="403" y="853" type="curve" smooth="yes"/>
      <point x="373" y="853"/>
      <point x="304" y="899"/>
      <point x="264" y="899" type="curve" smooth="yes"/>
      <point x="223" y="899"/>
      <point x="161" y="837"/>
    </contour>
  </outline>
</glyph>
<glyph name="Oslash" format="2">
  <advance width="661"/>
  <unicode hex="00D8"/>
  <note>
Oslash
</note>
  <anchor x="331" y="0" name="bottom"/>
  <anchor x="331" y="350" name="center"/>
  <anchor x="396" y="0" name="ogonek"/>
  <anchor x="331" y="700" name="top"/>
  <anchor x="642" y="700" name="topright"/>
  <outline>
    <contour>
      <point x="330" y="57" type="curve" smooth="yes"/>
      <point x="289" y="57"/>
      <point x="256" y="64"/>
      <point x="230" y="76" type="curve"/>
      <point x="480" y="578" type="line"/>
      <point x="514" y="527"/>
      <point x="524" y="449"/>
      <point x="524" y="345" type="curve" smooth="yes"/>
      <point x="524" y="150"/>
      <point x="491" y="57"/>
    </contour>
    <contour>
      <point x="57" y="345" type="curve" smooth="yes"/>
      <point x="57" y="204"/>
      <point x="79" y="102"/>
      <point x="144" y="44" type="curve"/>
      <point x="110" y="-24" type="line"/>
      <point x="167" y="-51" type="line"/>
      <point x="198" y="11" type="line"/>
      <point x="233" y="-4"/>
      <point x="277" y="-12"/>
      <point x="330" y="-12" type="curve" smooth="yes"/>
      <point x="545" y="-12"/>
      <point x="604" y="107"/>
      <point x="604" y="345" type="curve" smooth="yes"/>
      <point x="604" y="488"/>
      <point x="582" y="593"/>
      <point x="517" y="654" type="curve"/>
      <point x="552" y="724" type="line"/>
      <point x="495" y="751" type="line"/>
      <point x="464" y="689" type="line"/>
      <point x="428" y="706"/>
      <point x="384" y="714"/>
      <point x="330" y="714" type="curve" smooth="yes"/>
      <point x="116" y="714"/>
      <point x="57" y="579"/>
    </contour>
    <contour>
      <point x="137" y="345" type="curve" smooth="yes"/>
      <point x="137" y="539"/>
      <point x="171" y="645"/>
      <point x="330" y="645" type="curve" smooth="yes"/>
      <point x="372" y="645"/>
      <point x="405" y="638"/>
      <point x="431" y="623" type="curve"/>
      <point x="181" y="119" type="line"/>
      <point x="147" y="167"/>
      <point x="137" y="243"/>
    </contour>
  </outline>
</glyph>
<glyph name="Ugrave" format="2">
  <advance width="646"/>
  <unicode hex="00D9"/>
  <note>
Ugrave
</note>
  <anchor x="323" y="0" name="bottom"/>
  <anchor x="407" y="0" name="ogonek"/>
  <anchor x="323" y="920" name="top"/>
  <anchor x="620" y="700" name="topright"/>
  <outline>
    <contour>
      <point x="159" y="206" type="curve" smooth="yes"/>
      <point x="159" y="700" type="line"/>
      <point x="81" y="700" type="line"/>
      <point x="81" y="208" type="line" smooth="yes"/>
      <point x="81" y="49"/>
      <point x="168" y="-12"/>
      <point x="320" y="-12" type="curve" smooth="yes"/>
      <point x="478" y="-12"/>
      <point x="565" y="50"/>
      <point x="565" y="208" type="curve" smooth="yes"/>
      <point x="565" y="700" type="line"/>
      <point x="487" y="700" type="line"/>
      <point x="487" y="206" type="line" smooth="yes"/>
      <point x="487" y="98"/>
      <point x="428" y="57"/>
      <point x="320" y="57" type="curve" smooth="yes"/>
      <point x="218" y="57"/>
      <point x="159" y="98"/>
    </contour>
    <contour>
      <point x="228" y="920" type="line"/>
      <point x="202" y="856" type="line"/>
      <point x="423" y="771" type="line"/>
      <point x="444" y="822" type="line"/>
    </contour>
  </outline>
</glyph>
<glyph name="Ucircumflex" format="2">
  <advance width="646"/>
  <unicode hex="00DB"/>
  <note>
Ucircumflex
</note>
  <anchor x="323" y="0" name="bottom"/>
  <anchor x="407" y="0" name="ogonek"/>
  <anchor x="323" y="915" name="top"/>
  <anchor x="620" y="700" name="topright"/>
  <outline>
    <contour>
      <point x="159" y="206" type="curve" smooth="yes"/>
      <point x="159" y="700" type="line"/>
      <point x="81" y="700" type="line"/>
      <point x="81" y="208" type="line" smooth="yes"/>
      <point x="81" y="49"/>
      <point x="168" y="-12"/>
      <point x="320" y="-12" type="curve" smooth="yes"/>
      <point x="478" y="-12"/>
      <point x="565" y="50"/>
      <point x="565" y="208" type="curve" smooth="yes"/>
      <point x="565" y="700" type="line"/>
      <point x="487" y="700" type="line"/>
      <point x="487" y="206" type="line" smooth="yes"/>
      <point x="487" y="98"/>
      <point x="428" y="57"/>
      <point x="320" y="57" type="curve" smooth="yes"/>
      <point x="218" y="57"/>
      <point x="159" y="98"/>
    </contour>
    <contour>
      <point x="287" y="915" type="line"/>
      <point x="173" y="776" type="line"/>
      <point x="248" y="776" type="line"/>
      <point x="323" y="864" type="line"/>
      <point x="398" y="776" type="line"/>
      <point x="473" y="776" type="line"/>
      <point x="359" y="915" type="line"/>
    </contour>
  </outline>
</glyph>
<glyph name="Udieresis" format="2">
  <advance width="646"/>
  <unicode hex="00DC"/>
  <note>
Udieresis
</note>
  <anchor x="323" y="0" name="bottom"/>
  <anchor x="407" y="0" name="ogonek"/>
  <anchor x="323" y="891" name="top"/>
  <anchor x="620" y="700" name="topright"/>
  <outline>
    <contour>
      <point x="159" y="206" type="curve" smooth="yes"/>
      <point x="159" y="700" type="line"/>
      <point x="81" y="700" type="line"/>
      <point x="81" y="208" type="line" smooth="yes"/>
      <point x="81" y="49"/>
      <point x="168" y="-12"/>
      <point x="320" y="-12" type="curve" smooth="yes"/>
      <point x="478" y="-12"/>
      <point x="565" y="50"/>
      <point x="565" y="208" type="curve" smooth="yes"/>
      <point x="565" y="700" type="line"/>
      <point x="487" y="700" type="line"/>
      <point x="487" y="206" type="line" smooth="yes"/>
      <point x="487" y="98"/>
      <point x="428" y="57"/>
      <point x="320" y="57" type="curve" smooth="yes"/>
      <point x="218" y="57"/>
      <point x="159" y="98"/>
    </contour>
    <contour>
      <point x="186" y="891" type="line"/>
      <point x="186" y="804" type="line"/>
      <point x="258" y="804" type="line"/>
      <point x="258" y="891" type="line"/>
    </contour>
    <contour>
      <point x="386" y="891" type="line"/>
      <point x="386" y="804" type="line"/>
      <point x="459" y="804" type="line"/>
      <point x="459" y="891" type="line"/>
    </contour>
  </outline>
</glyph>
<glyph name="Yacute" format="2">
  <advance width="552"/>
  <unicode hex="00DD"/>
  <note>
Yacute
</note>
  <anchor x="277" y="0" name="bottom"/>
  <anchor x="277" y="920" name="top"/>
  <outline>
    <contour>
      <point x="237" y="294" type="line"/>
      <point x="237" y="0" type="line"/>
      <point x="315" y="0" type="line"/>
      <point x="315" y="294" type="line"/>
      <point x="535" y="700" type="line"/>
      <point x="451" y="700" type="line"/>
      <point x="277" y="367" type="line"/>
      <point x="101" y="700" type="line"/>
      <point x="17" y="700" type="line"/>
    </contour>
    <contour>
      <point x="372" y="920" type="line"/>
      <point x="156" y="822" type="line"/>
      <point x="177" y="771" type="line"/>
      <point x="398" y="856" type="line"/>
    </contour>
  </outline>
</glyph>
<glyph name="Thorn" format="2">
  <advance width="596"/>
  <unicode hex="00DE"/>
  <note>
Thorn
</note>
  <anchor x="124" y="0" name="bottom"/>
  <anchor x="124" y="353" name="center"/>
  <anchor x="163" y="0" name="ogonek"/>
  <anchor x="124" y="700" name="top"/>
  <outline>
    <contour>
      <point x="328" y="580" type="curve" smooth="yes"/>
      <point x="163" y="580" type="line"/>
      <point x="163" y="700" type="line"/>
      <point x="85" y="700" type="line"/>
      <point x="85" y="0" type="line"/>
      <point x="163" y="0" type="line"/>
      <point x="163" y="153" type="line"/>
      <point x="328" y="153" type="line" smooth="yes"/>
      <point x="479" y="153"/>
      <point x="549" y="238"/>
      <point x="549" y="373" type="curve" smooth="yes"/>
      <point x="549" y="507"/>
      <point x="479" y="580"/>
    </contour>
    <contour>
      <point x="327" y="221" type="curve" smooth="yes"/>
      <point x="163" y="221" type="line"/>
      <point x="163" y="512" type="line"/>
      <point x="327" y="512" type="line" smooth="yes"/>
      <point x="428" y="512"/>
      <point x="469" y="463"/>
      <point x="469" y="373" type="curve" smooth="yes"/>
      <point x="469" y="282"/>
      <point x="428" y="221"/>
    </contour>
  </outline>
</glyph>
<glyph name="ccedilla" format="2">
  <advance width="437"/>
  <unicode hex="00E7"/>
  <note>
ccedilla
</note>
  <anchor x="262" y="-217" name="bottom"/>
  <anchor x="250" y="500" name="top"/>
  <outline>
    <contour>
      <point x="259" y="514" type="curve" smooth="yes"/>
      <point x="110" y="514"/>
      <point x="51" y="444"/>
      <point x="51" y="259" type="curve" smooth="yes"/>
      <point x="51" y="80"/>
      <point x="89" y="3"/>
      <point x="215" y="-10" type="curve"/>
      <point x="197" y="-93" type="line"/>
      <point x="241" y="-93" type="line" smooth="yes"/>
      <point x="269" y="-93"/>
      <point x="285" y="-102"/>
      <point x="285" y="-127" type="curve" smooth="yes"/>
      <point x="285" y="-155"/>
      <point x="269" y="-165"/>
      <point x="241" y="-165" type="curve" smooth="yes"/>
      <point x="214" y="-165"/>
      <point x="171" y="-162"/>
      <point x="171" y="-162" type="curve"/>
      <point x="168" y="-210" type="line"/>
      <point x="168" y="-210"/>
      <point x="214" y="-217"/>
      <point x="258" y="-217" type="curve" smooth="yes"/>
      <point x="314" y="-217"/>
      <point x="351" y="-190"/>
      <point x="351" y="-127" type="curve" smooth="yes"/>
      <point x="351" y="-63"/>
      <point x="314" y="-49"/>
      <point x="251" y="-49" type="curve"/>
      <point x="259" y="-12" type="line"/>
      <point x="306" y="-12"/>
      <point x="396" y="2"/>
      <point x="396" y="2" type="curve"/>
      <point x="393" y="64" type="line"/>
      <point x="393" y="64"/>
      <point x="313" y="55"/>
      <point x="275" y="55" type="curve" smooth="yes"/>
      <point x="151" y="55"/>
      <point x="129" y="109"/>
      <point x="129" y="259" type="curve" smooth="yes"/>
      <point x="129" y="397"/>
      <point x="159" y="447"/>
      <point x="274" y="447" type="curve" smooth="yes"/>
      <point x="312" y="447"/>
      <point x="392" y="438"/>
      <point x="392" y="438" type="curve"/>
      <point x="395" y="499" type="line"/>
      <point x="395" y="499"/>
      <point x="305" y="514"/>
    </contour>
  </outline>
</glyph>
<glyph name="igrave" format="2">
  <advance width="222"/>
  <unicode hex="00EC"/>
  <note>
igrave
</note>
  <anchor x="111" y="0" name="bottom"/>
  <anchor x="149" y="0" name="ogonek"/>
  <anchor x="111" y="740" name="top"/>
  <outline>
    <contour>
      <point x="149" y="500" type="line"/>
      <point x="73" y="500" type="line"/>
      <point x="73" y="0" type="line"/>
      <point x="149" y="0" type="line"/>
    </contour>
    <contour>
      <point x="16" y="740" type="line"/>
      <point x="-10" y="676" type="line"/>
      <point x="211" y="591" type="line"/>
      <point x="232" y="642" type="line"/>
    </contour>
  </outline>
</glyph>
<glyph name="iacute" format="2">
  <advance width="222"/>
  <unicode hex="00ED"/>
  <note>
iacute
</note>
  <anchor x="111" y="0" name="bottom"/>
  <anchor x="149" y="0" name="ogonek"/>
  <anchor x="121" y="740" name="top"/>
  <outline>
    <contour>
      <point x="149" y="500" type="line"/>
      <point x="73" y="500" type="line"/>
      <point x="73" y="0" type="line"/>
      <point x="149" y="0" type="line"/>
    </contour>
    <contour>
      <point x="216" y="740" type="line"/>
      <point x="0" y="642" type="line"/>
      <point x="21" y="591" type="line"/>
      <point x="242" y="676" type="line"/>
    </contour>
  </outline>
</glyph>
<glyph name="icircumflex" format="2">
  <advance width="222"/>
  <unicode hex="00EE"/>
  <note>
icircumflex
</note>
  <anchor x="111" y="0" name="bottom"/>
  <anchor x="149" y="0" name="ogonek"/>
  <anchor x="111" y="740" name="top"/>
  <outline>
    <contour>
      <point x="149" y="500" type="line"/>
      <point x="73" y="500" type="line"/>
      <point x="73" y="0" type="line"/>
      <point x="149" y="0" type="line"/>
    </contour>
    <contour>
      <point x="75" y="735" type="line"/>
      <point x="-39" y="596" type="line"/>
      <point x="36" y="596" type="line"/>
      <point x="111" y="682" type="line"/>
      <point x="186" y="596" type="line"/>
      <point x="261" y="596" type="line"/>
      <point x="147" y="735" type="line"/>
    </contour>
  </outline>
</glyph>
<glyph name="idieresis" format="2">
  <advance width="222"/>
  <unicode hex="00EF"/>
  <note>
idieresis
</note>
  <anchor x="111" y="0" name="bottom"/>
  <anchor x="149" y="0" name="ogonek"/>
  <anchor x="111" y="711" name="top"/>
  <outline>
    <contour>
      <point x="149" y="500" type="line"/>
      <point x="73" y="500" type="line"/>
      <point x="73" y="0" type="line"/>
      <point x="149" y="0" type="line"/>
    </contour>
    <contour>
      <point x="-26" y="711" type="line"/>
      <point x="-26" y="624" type="line"/>
      <point x="46" y="624" type="line"/>
      <point x="46" y="711" type="line"/>
    </contour>
    <contour>
      <point x="174" y="711" type="line"/>
      <point x="174" y="624" type="line"/>
      <point x="247" y="624" type="line"/>
      <point x="247" y="711" type="line"/>
    </contour>
  </outline>
</glyph>
<glyph name="ntilde" format="2">
  <advance width="542"/>
  <unicode hex="00F1"/>
  <note>
ntilde
</note>
  <anchor x="277" y="0" name="bottom"/>
  <anchor x="267" y="719" name="top"/>
  <outline>
    <contour>
      <point x="73" y="500" type="line"/>
      <point x="73" y="0" type="line"/>
      <point x="149" y="0" type="line"/>
      <point x="149" y="406" type="line"/>
      <point x="149" y="406"/>
      <point x="218" y="447"/>
      <point x="290" y="447" type="curve" smooth="yes"/>
      <point x="383" y="447"/>
      <point x="398" y="398"/>
      <point x="398" y="266" type="curve" smooth="yes"/>
      <point x="398" y="0" type="line"/>
      <point x="474" y="0" type="line"/>
      <point x="474" y="268" type="line" smooth="yes"/>
      <point x="474" y="446"/>
      <point x="441" y="514"/>
      <point x="303" y="514" type="curve" smooth="yes"/>
      <point x="229" y="514"/>
      <point x="148" y="465"/>
      <point x="148" y="465" type="curve"/>
      <point x="148" y="500" type="line"/>
    </contour>
    <contour>
      <point x="97" y="657" type="curve"/>
      <point x="127" y="619" type="line"/>
      <point x="127" y="619"/>
      <point x="176" y="659"/>
      <point x="200" y="659" type="curve" smooth="yes"/>
      <point x="232" y="659"/>
      <point x="299" y="612"/>
      <point x="339" y="612" type="curve" smooth="yes"/>
      <point x="379" y="612"/>
      <point x="428" y="663"/>
      <point x="438" y="673" type="curve"/>
      <point x="408" y="711" type="line"/>
      <point x="408" y="711"/>
      <point x="360" y="673"/>
      <point x="339" y="673" type="curve" smooth="yes"/>
      <point x="309" y="673"/>
      <point x="240" y="719"/>
      <point x="200" y="719" type="curve" smooth="yes"/>
      <point x="159" y="719"/>
      <point x="97" y="657"/>
    </contour>
  </outline>
</glyph>
<glyph name="oacute" format="2">
  <advance width="530"/>
  <unicode hex="00F3"/>
  <note>
oacute
</note>
  <anchor x="265" y="0" name="bottom"/>
  <anchor x="265" y="250" name="center"/>
  <anchor x="334" y="0" name="ogonek"/>
  <anchor x="275" y="740" name="top"/>
  <anchor x="508" y="500" name="topright"/>
  <outline>
    <contour>
      <point x="265" y="514" type="curve" smooth="yes"/>
      <point x="107" y="514"/>
      <point x="50" y="432"/>
      <point x="50" y="256" type="curve" smooth="yes"/>
      <point x="50" y="72"/>
      <point x="97" y="-12"/>
      <point x="265" y="-12" type="curve" smooth="yes"/>
      <point x="434" y="-12"/>
      <point x="480" y="72"/>
      <point x="480" y="256" type="curve" smooth="yes"/>
      <point x="480" y="432"/>
      <point x="424" y="514"/>
    </contour>
    <contour>
      <point x="128" y="256" type="curve" smooth="yes"/>
      <point x="128" y="399"/>
      <point x="159" y="449"/>
      <point x="265" y="449" type="curve" smooth="yes"/>
      <point x="372" y="449"/>
      <point x="402" y="399"/>
      <point x="402" y="256" type="curve" smooth="yes"/>
      <point x="402" y="112"/>
      <point x="384" y="53"/>
      <point x="265" y="53" type="curve" smooth="yes"/>
      <point x="147" y="53"/>
      <point x="128" y="112"/>
    </contour>
    <contour>
      <point x="370" y="740" type="line"/>
      <point x="154" y="642" type="line"/>
      <point x="175" y="591" type="line"/>
      <point x="396" y="676" type="line"/>
    </contour>
  </outline>
</glyph>
<glyph name="otilde" format="2">
  <advance width="530"/>
  <unicode hex="00F5"/>
  <note>
otilde
</note>
  <anchor x="265" y="0" name="bottom"/>
  <anchor x="265" y="250" name="center"/>
  <anchor x="334" y="0" name="ogonek"/>
  <anchor x="265" y="719" name="top"/>
  <anchor x="508" y="500" name="topright"/>
  <outline>
    <contour>
      <point x="265" y="514" type="curve" smooth="yes"/>
      <point x="107" y="514"/>
      <point x="50" y="432"/>
      <point x="50" y="256" type="curve" smooth="yes"/>
      <point x="50" y="72"/>
      <point x="97" y="-12"/>
      <point x="265" y="-12" type="curve" smooth="yes"/>
      <point x="434" y="-12"/>
      <point x="480" y="72"/>
      <point x="480" y="256" type="curve" smooth="yes"/>
      <point x="480" y="432"/>
      <point x="424" y="514"/>
    </contour>
    <contour>
      <point x="95" y="657" type="curve"/>
      <point x="125" y="619" type="line"/>
      <point x="125" y="619"/>
      <point x="174" y="659"/>
      <point x="198" y="659" type="curve" smooth="yes"/>
      <point x="230" y="659"/>
      <point x="297" y="612"/>
      <point x="337" y="612" type="curve" smooth="yes"/>
      <point x="377" y="612"/>
      <point x="426" y="663"/>
      <point x="436" y="673" type="curve"/>
      <point x="406" y="711" type="line"/>
      <point x="406" y="711"/>
      <point x="358" y="673"/>
      <point x="337" y="673" type="curve" smooth="yes"/>
      <point x="307" y="673"/>
      <point x="238" y="719"/>
      <point x="198" y="719" type="curve" smooth="yes"/>
      <point x="157" y="719"/>
      <point x="95" y="657"/>
    </contour>
    <contour>
      <point x="128" y="256" type="curve" smooth="yes"/>
      <point x="128" y="399"/>
      <point x="159" y="449"/>
      <point x="265" y="449" type="curve" smooth="yes"/>
      <point x="372" y="449"/>
      <point x="402" y="399"/>
      <point x="402" y="256" type="curve" smooth="yes"/>
      <point x="402" y="112"/>
      <point x="384" y="53"/>
      <point x="265" y="53" type="curve" smooth="yes"/>
      <point x="147" y="53"/>
      <point x="128" y="112"/>
    </contour>
  </outline>
</glyph>
<glyph name="uacute" format="2">
  <advance width="535"/>
  <unicode hex="00FA"/>
  <note>
uacute
</note>
  <anchor x="268" y="0" name="bottom"/>
  <anchor x="456" y="0" name="ogonek"/>
  <anchor x="278" y="740" name="top"/>
  <anchor x="512" y="500" name="topright"/>
  <outline>
    <contour>
      <point x="462" y="0" type="line"/>
      <point x="462" y="500" type="line"/>
      <point x="386" y="500" type="line"/>
      <point x="386" y="94" type="line"/>
      <point x="386" y="94"/>
      <point x="323" y="55"/>
      <point x="249" y="55" type="curve" smooth="yes"/>
      <point x="156" y="55"/>
      <point x="144" y="100"/>
      <point x="144" y="238" type="curve" smooth="yes"/>
      <point x="144" y="500" type="line"/>
      <point x="68" y="500" type="line"/>
      <point x="68" y="237" type="line" smooth="yes"/>
      <point x="68" y="53"/>
      <point x="98" y="-12"/>
      <point x="238" y="-12" type="curve" smooth="yes"/>
      <point x="311" y="-12"/>
      <point x="386" y="35"/>
      <point x="386" y="35" type="curve"/>
      <point x="386" y="0" type="line"/>
    </contour>
    <contour>
      <point x="373" y="740" type="line"/>
      <point x="157" y="642" type="line"/>
      <point x="178" y="591" type="line"/>
      <point x="399" y="676" type="line"/>
    </contour>
  </outline>
</glyph>
<glyph name="yacute" format="2">
  <advance width="485"/>
  <unicode hex="00FD"/>
  <note>
yacute
</note>
  <anchor x="239" y="0" name="bottom"/>
  <anchor x="249" y="740" name="top"/>
  <outline>
    <contour>
      <point x="232" y="65" type="line"/>
      <point x="99" y="500" type="line"/>
      <point x="24" y="500" type="line"/>
      <point x="174" y="0" type="line"/>
      <point x="240" y="0" type="line"/>
      <point x="174" y="-230" type="line"/>
      <point x="249" y="-230" type="line"/>
      <point x="458" y="500" type="line"/>
      <point x="383" y="500" type="line"/>
      <point x="257" y="65" type="line"/>
    </contour>
    <contour>
      <point x="344" y="740" type="line"/>
      <point x="128" y="642" type="line"/>
      <point x="149" y="591" type="line"/>
      <point x="370" y="676" type="line"/>
    </contour>
  </outline>
</glyph>
<glyph name="Abreve" format="2">
  <advance width="602"/>
  <unicode hex="0102"/>
  <note>
Abreve
</note>
  <anchor x="298" y="0" name="bottom"/>
  <anchor x="578" y="0" name="ogonek"/>
  <anchor x="298" y="911" name="top"/>
  <outline>
    <contour>
      <point x="283" y="626" type="line"/>
      <point x="313" y="626" type="line"/>
      <point x="423" y="255" type="line"/>
      <point x="173" y="255" type="line"/>
    </contour>
    <contour>
      <point x="232" y="700" type="line"/>
      <point x="24" y="0" type="line"/>
      <point x="98" y="0" type="line"/>
      <point x="153" y="187" type="line"/>
      <point x="443" y="187" type="line"/>
      <point x="498" y="0" type="line"/>
      <point x="578" y="0" type="line"/>
      <point x="370" y="700" type="line"/>
    </contour>
    <contour>
      <point x="211" y="911" type="curve"/>
      <point x="150" y="911" type="line"/>
      <point x="154" y="834"/>
      <point x="208" y="771"/>
      <point x="298" y="771" type="curve" smooth="yes"/>
      <point x="388" y="771"/>
      <point x="442" y="834"/>
      <point x="446" y="911" type="curve"/>
      <point x="385" y="911" type="line"/>
      <point x="383" y="862"/>
      <point x="351" y="827"/>
      <point x="298" y="827" type="curve" smooth="yes"/>
      <point x="245" y="827"/>
      <point x="213" y="862"/>
    </contour>
  </outline>
</glyph>
<glyph name="Aogonek" format="2">
  <advance width="602"/>
  <unicode hex="0104"/>
  <note>
Aogonek
</note>
  <anchor x="298" y="0" name="bottom"/>
  <anchor x="578" y="0" name="ogonek"/>
  <anchor x="298" y="700" name="top"/>
  <outline>
    <contour>
      <point x="283" y="626" type="line"/>
      <point x="313" y="626" type="line"/>
      <point x="423" y="255" type="line"/>
      <point x="173" y="255" type="line"/>
    </contour>
    <contour>
      <point x="232" y="700" type="line"/>
      <point x="24" y="0" type="line"/>
      <point x="98" y="0" type="line"/>
      <point x="153" y="187" type="line"/>
      <point x="443" y="187" type="line"/>
      <point x="498" y="0" type="line"/>
      <point x="508" y="0" type="line"/>
      <point x="486" y="-20"/>
      <point x="434" y="-72"/>
      <point x="434" y="-119" type="curve" smooth="yes"/>
      <point x="434" y="-173"/>
      <point x="474" y="-206"/>
      <point x="526" y="-206" type="curve" smooth="yes"/>
      <point x="560" y="-206"/>
      <point x="605" y="-197"/>
      <point x="605" y="-197" type="curve"/>
      <point x="598" y="-139" type="line"/>
      <point x="598" y="-139"/>
      <point x="562" y="-145"/>
      <point x="548" y="-145" type="curve" smooth="yes"/>
      <point x="524" y="-145"/>
      <point x="507" y="-127"/>
      <point x="507" y="-102" type="curve" smooth="yes"/>
      <point x="507" y="-69"/>
      <point x="578" y="0"/>
      <point x="578" y="0" type="curve"/>
      <point x="370" y="700" type="line"/>
    </contour>
  </outline>
</glyph>
<glyph name="aogonek" format="2">
  <advance width="504"/>
  <unicode hex="0105"/>
  <note>
aogonek
</note>
  <anchor x="248" y="0" name="bottom"/>
  <anchor x="467" y="0" name="ogonek"/>
  <anchor x="239" y="500" name="top"/>
  <outline>
    <contour>
      <point x="424" y="91" type="curve" smooth="yes"/>
      <point x="424" y="353" type="line" smooth="yes"/>
      <point x="424" y="462"/>
      <point x="375" y="514"/>
      <point x="262" y="514" type="curve" smooth="yes"/>
      <point x="176" y="514"/>
      <point x="66" y="492"/>
      <point x="66" y="492" type="curve"/>
      <point x="69" y="435" type="line"/>
      <point x="69" y="435"/>
      <point x="188" y="448"/>
      <point x="258" y="448" type="curve" smooth="yes"/>
      <point x="318" y="448"/>
      <point x="348" y="423"/>
      <point x="348" y="353" type="curve" smooth="yes"/>
      <point x="348" y="306" type="line"/>
      <point x="191" y="291" type="line" smooth="yes"/>
      <point x="88" y="281"/>
      <point x="39" y="239"/>
      <point x="39" y="143" type="curve" smooth="yes"/>
      <point x="39" y="40"/>
      <point x="88" y="-12"/>
      <point x="179" y="-12" type="curve" smooth="yes"/>
      <point x="269" y="-12"/>
      <point x="359" y="28"/>
      <point x="359" y="28" type="curve"/>
      <point x="371" y="16"/>
      <point x="384" y="7"/>
      <point x="398" y="1" type="curve"/>
      <point x="377" y="-18"/>
      <point x="323" y="-71"/>
      <point x="323" y="-119" type="curve" smooth="yes"/>
      <point x="323" y="-173"/>
      <point x="363" y="-206"/>
      <point x="415" y="-206" type="curve" smooth="yes"/>
      <point x="449" y="-206"/>
      <point x="494" y="-197"/>
      <point x="494" y="-197" type="curve"/>
      <point x="487" y="-139" type="line"/>
      <point x="487" y="-139"/>
      <point x="451" y="-145"/>
      <point x="437" y="-145" type="curve" smooth="yes"/>
      <point x="413" y="-145"/>
      <point x="396" y="-127"/>
      <point x="396" y="-102" type="curve" smooth="yes"/>
      <point x="396" y="-77"/>
      <point x="436" y="-32"/>
      <point x="456" y="-11" type="curve"/>
      <point x="463" y="-12"/>
      <point x="470" y="-12"/>
      <point x="478" y="-12" type="curve"/>
      <point x="481" y="47" type="line"/>
      <point x="449" y="51"/>
      <point x="424" y="62"/>
    </contour>
    <contour>
      <point x="115" y="145" type="curve" smooth="yes"/>
      <point x="115" y="200"/>
      <point x="139" y="229"/>
      <point x="200" y="235" type="curve" smooth="yes"/>
      <point x="348" y="249" type="line"/>
      <point x="348" y="82" type="line"/>
      <point x="348" y="82"/>
      <point x="265" y="51"/>
      <point x="191" y="51" type="curve" smooth="yes"/>
      <point x="140" y="51"/>
      <point x="115" y="85"/>
    </contour>
  </outline>
</glyph>
<glyph name="Dcaron" format="2">
  <advance width="644"/>
  <unicode hex="010E"/>
  <note>
Dcaron
</note>
  <anchor x="299" y="0" name="bottom"/>
  <anchor x="122" y="354" name="center"/>
  <anchor x="299" y="920" name="top"/>
  <outline>
    <contour>
      <point x="85" y="700" type="line"/>
      <point x="85" y="0" type="line"/>
      <point x="332" y="0" type="line" smooth="yes"/>
      <point x="536" y="0"/>
      <point x="588" y="161"/>
      <point x="588" y="360" type="curve" smooth="yes"/>
      <point x="588" y="563"/>
      <point x="533" y="700"/>
      <point x="332" y="700" type="curve" smooth="yes"/>
    </contour>
    <contour>
      <point x="224" y="915" type="line"/>
      <point x="149" y="915" type="line"/>
      <point x="263" y="776" type="line"/>
      <point x="335" y="776" type="line"/>
      <point x="449" y="915" type="line"/>
      <point x="374" y="915" type="line"/>
      <point x="299" y="829" type="line"/>
    </contour>
    <contour>
      <point x="332" y="68" type="curve" smooth="yes"/>
      <point x="163" y="68" type="line"/>
      <point x="163" y="632" type="line"/>
      <point x="332" y="632" type="line" smooth="yes"/>
      <point x="476" y="632"/>
      <point x="508" y="514"/>
      <point x="508" y="360" type="curve" smooth="yes"/>
      <point x="508" y="206"/>
      <point x="476" y="68"/>
    </contour>
  </outline>
</glyph>
<glyph name="Dcroat" format="2">
  <advance width="665"/>
  <unicode hex="0110"/>
  <note>
Dcroat
</note>
  <anchor x="320" y="0" name="bottom"/>
  <anchor x="143" y="354" name="center"/>
  <anchor x="320" y="700" name="top"/>
  <outline>
    <contour>
      <point x="106" y="321" type="line"/>
      <point x="106" y="0" type="line"/>
      <point x="353" y="0" type="line" smooth="yes"/>
      <point x="557" y="0"/>
      <point x="609" y="161"/>
      <point x="609" y="360" type="curve" smooth="yes"/>
      <point x="609" y="563"/>
      <point x="554" y="700"/>
      <point x="353" y="700" type="curve" smooth="yes"/>
      <point x="106" y="700" type="line"/>
      <point x="106" y="389" type="line"/>
      <point x="41" y="389" type="line"/>
      <point x="41" y="321" type="line"/>
    </contour>
    <contour>
      <point x="353" y="68" type="curve" smooth="yes"/>
      <point x="184" y="68" type="line"/>
      <point x="184" y="321" type="line"/>
      <point x="378" y="321" type="line"/>
      <point x="378" y="389" type="line"/>
      <point x="184" y="389" type="line"/>
      <point x="184" y="632" type="line"/>
      <point x="353" y="632" type="line" smooth="yes"/>
      <point x="497" y="632"/>
      <point x="529" y="514"/>
      <point x="529" y="360" type="curve" smooth="yes"/>
      <point x="529" y="206"/>
      <point x="497" y="68"/>
    </contour>
  </outline>
</glyph>
<glyph name="Emacron" format="2">
  <advance width="554"/>
  <unicode hex="0112"/>
  <note>
Emacron
</note>
  <anchor x="298" y="0" name="bottom"/>
  <anchor x="466" y="0" name="ogonek"/>
  <anchor x="298" y="863" name="top"/>
  <outline>
    <contour>
      <point x="506" y="700" type="line"/>
      <point x="85" y="700" type="line"/>
      <point x="85" y="0" type="line"/>
      <point x="506" y="0" type="line"/>
      <point x="506" y="68" type="line"/>
      <point x="163" y="68" type="line"/>
      <point x="163" y="323" type="line"/>
      <point x="446" y="323" type="line"/>
      <point x="446" y="389" type="line"/>
      <point x="163" y="389" type="line"/>
      <point x="163" y="632" type="line"/>
      <point x="506" y="632" type="line"/>
    </contour>
    <contour>
      <point x="160" y="863" type="line"/>
      <point x="160" y="804" type="line"/>
      <point x="435" y="804" type="line"/>
      <point x="435" y="863" type="line"/>
    </contour>
  </outline>
</glyph>
<glyph name="Ebreve" format="2">
  <advance width="554"/>
  <unicode hex="0114"/>
  <note>
Ebreve
</note>
  <anchor x="298" y="0" name="bottom"/>
  <anchor x="466" y="0" name="ogonek"/>
  <anchor x="298" y="911" name="top"/>
  <outline>
    <contour>
      <point x="506" y="700" type="line"/>
      <point x="85" y="700" type="line"/>
      <point x="85" y="0" type="line"/>
      <point x="506" y="0" type="line"/>
      <point x="506" y="68" type="line"/>
      <point x="163" y="68" type="line"/>
      <point x="163" y="323" type="line"/>
      <point x="446" y="323" type="line"/>
      <point x="446" y="389" type="line"/>
      <point x="163" y="389" type="line"/>
      <point x="163" y="632" type="line"/>
      <point x="506" y="632" type="line"/>
    </contour>
    <contour>
      <point x="211" y="911" type="curve"/>
      <point x="150" y="911" type="line"/>
      <point x="154" y="834"/>
      <point x="208" y="771"/>
      <point x="298" y="771" type="curve" smooth="yes"/>
      <point x="388" y="771"/>
      <point x="442" y="834"/>
      <point x="446" y="911" type="curve"/>
      <point x="385" y="911" type="line"/>
      <point x="383" y="862"/>
      <point x="351" y="827"/>
      <point x="298" y="827" type="curve" smooth="yes"/>
      <point x="245" y="827"/>
      <point x="213" y="862"/>
    </contour>
  </outline>
</glyph>
<glyph name="ebreve" format="2">
  <advance width="506"/>
  <unicode hex="0115"/>
  <note>
ebreve
</note>
  <anchor x="255" y="0" name="bottom"/>
  <anchor x="367" y="0" name="ogonek"/>
  <anchor x="262" y="731" name="top"/>
  <outline>
    <contour>
      <point x="257" y="54" type="curve" smooth="yes"/>
      <point x="159" y="54"/>
      <point x="126" y="110"/>
      <point x="126" y="219" type="curve"/>
      <point x="456" y="219" type="line"/>
      <point x="460" y="276" type="line"/>
      <point x="460" y="444"/>
      <point x="392" y="514"/>
      <point x="259" y="514" type="curve" smooth="yes"/>
      <point x="132" y="514"/>
      <point x="50" y="441"/>
      <point x="50" y="247" type="curve" smooth="yes"/>
      <point x="50" y="75"/>
      <point x="99" y="-12"/>
      <point x="248" y="-12" type="curve" smooth="yes"/>
      <point x="329" y="-12"/>
      <point x="443" y="4"/>
      <point x="443" y="4" type="curve"/>
      <point x="441" y="63" type="line"/>
      <point x="441" y="63"/>
      <point x="332" y="54"/>
    </contour>
    <contour>
      <point x="175" y="731" type="curve"/>
      <point x="114" y="731" type="line"/>
      <point x="118" y="654"/>
      <point x="172" y="591"/>
      <point x="262" y="591" type="curve" smooth="yes"/>
      <point x="352" y="591"/>
      <point x="406" y="654"/>
      <point x="410" y="731" type="curve"/>
      <point x="349" y="731" type="line"/>
      <point x="347" y="682"/>
      <point x="315" y="647"/>
      <point x="262" y="647" type="curve" smooth="yes"/>
      <point x="209" y="647"/>
      <point x="177" y="682"/>
    </contour>
    <contour>
      <point x="385" y="279" type="curve"/>
      <point x="125" y="279" type="line"/>
      <point x="126" y="404"/>
      <point x="174" y="451"/>
      <point x="259" y="451" type="curve" smooth="yes"/>
      <point x="347" y="451"/>
      <point x="385" y="407"/>
    </contour>
  </outline>
</glyph>
<glyph name="Edotaccent" format="2">
  <advance width="554"/>
  <unicode hex="0116"/>
  <note>
Edotaccent
</note>
  <anchor x="298" y="0" name="bottom"/>
  <anchor x="466" y="0" name="ogonek"/>
  <anchor x="298" y="900" name="top"/>
  <outline>
    <contour>
      <point x="506" y="700" type="line"/>
      <point x="85" y="700" type="line"/>
      <point x="85" y="0" type="line"/>
      <point x="506" y="0" type="line"/>
      <point x="506" y="68" type="line"/>
      <point x="163" y="68" type="line"/>
      <point x="163" y="323" type="line"/>
      <point x="446" y="323" type="line"/>
      <point x="446" y="389" type="line"/>
      <point x="163" y="389" type="line"/>
      <point x="163" y="632" type="line"/>
      <point x="506" y="632" type="line"/>
    </contour>
    <contour>
      <point x="260" y="900" type="line"/>
      <point x="260" y="804" type="line"/>
      <point x="335" y="804" type="line"/>
      <point x="335" y="900" type="line"/>
    </contour>
  </outline>
</glyph>
<glyph name="Eogonek" format="2">
  <advance width="554"/>
  <unicode hex="0118"/>
  <note>
Eogonek
</note>
  <anchor x="298" y="0" name="bottom"/>
  <anchor x="466" y="0" name="ogonek"/>
  <anchor x="298" y="700" name="top"/>
  <outline>
    <contour>
      <point x="506" y="700" type="line"/>
      <point x="85" y="700" type="line"/>
      <point x="85" y="0" type="line"/>
      <point x="396" y="0" type="line"/>
      <point x="374" y="-20"/>
      <point x="322" y="-72"/>
      <point x="322" y="-119" type="curve" smooth="yes"/>
      <point x="322" y="-173"/>
      <point x="362" y="-206"/>
      <point x="414" y="-206" type="curve" smooth="yes"/>
      <point x="448" y="-206"/>
      <point x="493" y="-197"/>
      <point x="493" y="-197" type="curve"/>
      <point x="486" y="-139" type="line"/>
      <point x="486" y="-139"/>
      <point x="450" y="-145"/>
      <point x="436" y="-145" type="curve" smooth="yes"/>
      <point x="412" y="-145"/>
      <point x="395" y="-127"/>
      <point x="395" y="-102" type="curve" smooth="yes"/>
      <point x="395" y="-69"/>
      <point x="466" y="0"/>
      <point x="466" y="0" type="curve"/>
      <point x="506" y="0" type="line"/>
      <point x="506" y="68" type="line"/>
      <point x="163" y="68" type="line"/>
      <point x="163" y="323" type="line"/>
      <point x="446" y="323" type="line"/>
      <point x="446" y="389" type="line"/>
      <point x="163" y="389" type="line"/>
      <point x="163" y="632" type="line"/>
      <point x="506" y="632" type="line"/>
    </contour>
  </outline>
</glyph>
<glyph name="eogonek" format="2">
  <advance width="506"/>
  <unicode hex="0119"/>
  <note>
eogonek
</note>
  <anchor x="255" y="0" name="bottom"/>
  <anchor x="367" y="0" name="ogonek"/>
  <anchor x="262" y="500" name="top"/>
  <outline>
    <contour>
      <point x="257" y="54" type="curve" smooth="yes"/>
      <point x="159" y="54"/>
      <point x="126" y="110"/>
      <point x="126" y="219" type="curve"/>
      <point x="456" y="219" type="line"/>
      <point x="460" y="276" type="line"/>
      <point x="460" y="444"/>
      <point x="392" y="514"/>
      <point x="259" y="514" type="curve" smooth="yes"/>
      <point x="132" y="514"/>
      <point x="50" y="441"/>
      <point x="50" y="247" type="curve" smooth="yes"/>
      <point x="50" y="75"/>
      <point x="99" y="-12"/>
      <point x="248" y="-12" type="curve" smooth="yes"/>
      <point x="263" y="-12"/>
      <point x="279" y="-11"/>
      <point x="296" y="-11" type="curve"/>
      <point x="271" y="-35"/>
      <point x="233" y="-79"/>
      <point x="233" y="-119" type="curve" smooth="yes"/>
      <point x="233" y="-173"/>
      <point x="273" y="-206"/>
      <point x="325" y="-206" type="curve" smooth="yes"/>
      <point x="359" y="-206"/>
      <point x="404" y="-197"/>
      <point x="404" y="-197" type="curve"/>
      <point x="397" y="-139" type="line"/>
      <point x="397" y="-139"/>
      <point x="361" y="-145"/>
      <point x="347" y="-145" type="curve" smooth="yes"/>
      <point x="323" y="-145"/>
      <point x="306" y="-127"/>
      <point x="306" y="-102" type="curve" smooth="yes"/>
      <point x="306" y="-74"/>
      <point x="357" y="-20"/>
      <point x="373" y="-4" type="curve"/>
      <point x="413" y="0"/>
      <point x="443" y="4"/>
      <point x="443" y="4" type="curve"/>
      <point x="441" y="63" type="line"/>
      <point x="441" y="63"/>
      <point x="332" y="54"/>
    </contour>
    <contour>
      <point x="385" y="279" type="curve"/>
      <point x="125" y="279" type="line"/>
      <point x="126" y="404"/>
      <point x="174" y="451"/>
      <point x="259" y="451" type="curve" smooth="yes"/>
      <point x="347" y="451"/>
      <point x="385" y="407"/>
    </contour>
  </outline>
</glyph>
<glyph name="Ecaron" format="2">
  <advance width="554"/>
  <unicode hex="011A"/>
  <note>
Ecaron
</note>
  <anchor x="298" y="0" name="bottom"/>
  <anchor x="466" y="0" name="ogonek"/>
  <anchor x="298" y="920" name="top"/>
  <outline>
    <contour>
      <point x="506" y="700" type="line"/>
      <point x="85" y="700" type="line"/>
      <point x="85" y="0" type="line"/>
      <point x="506" y="0" type="line"/>
      <point x="506" y="68" type="line"/>
      <point x="163" y="68" type="line"/>
      <point x="163" y="323" type="line"/>
      <point x="446" y="323" type="line"/>
      <point x="446" y="389" type="line"/>
      <point x="163" y="389" type="line"/>
      <point x="163" y="632" type="line"/>
      <point x="506" y="632" type="line"/>
    </contour>
    <contour>
      <point x="223" y="915" type="line"/>
      <point x="148" y="915" type="line"/>
      <point x="262" y="776" type="line"/>
      <point x="334" y="776" type="line"/>
      <point x="448" y="915" type="line"/>
      <point x="373" y="915" type="line"/>
      <point x="298" y="829" type="line"/>
    </contour>
  </outline>
</glyph>
<glyph name="uni0122" format="2">
  <advance width="617"/>
  <unicode hex="0122"/>
  <note>
uni0122
</note>
  <anchor x="295" y="-236" name="bottom"/>
  <anchor x="339" y="700" name="top"/>
  <outline>
    <contour>
      <point x="551" y="354" type="line"/>
      <point x="360" y="354" type="line"/>
      <point x="360" y="286" type="line"/>
      <point x="475" y="286" type="line"/>
      <point x="475" y="71" type="line"/>
      <point x="449" y="66"/>
      <point x="372" y="57"/>
      <point x="322" y="57" type="curve" smooth="yes"/>
      <point x="162" y="57"/>
      <point x="138" y="151"/>
      <point x="138" y="344" type="curve" smooth="yes"/>
      <point x="138" y="544"/>
      <point x="156" y="645"/>
      <point x="316" y="645" type="curve" smooth="yes"/>
      <point x="407" y="645"/>
      <point x="548" y="618"/>
      <point x="548" y="618" type="curve"/>
      <point x="551" y="682" type="line"/>
      <point x="551" y="682"/>
      <point x="414" y="714"/>
      <point x="309" y="714" type="curve" smooth="yes"/>
      <point x="101" y="714"/>
      <point x="58" y="578"/>
      <point x="58" y="344" type="curve" smooth="yes"/>
      <point x="58" y="111"/>
      <point x="104" y="-12"/>
      <point x="316" y="-12" type="curve" smooth="yes"/>
      <point x="392" y="-12"/>
      <point x="530" y="8"/>
      <point x="551" y="12" type="curve"/>
    </contour>
    <contour>
      <point x="329" y="-77" type="line"/>
      <point x="241" y="-221" type="line"/>
      <point x="285" y="-252" type="line"/>
      <point x="387" y="-120" type="line"/>
    </contour>
  </outline>
</glyph>
<glyph name="Hcircumflex" format="2">
  <advance width="675"/>
  <unicode hex="0124"/>
  <note>
Hcircumflex
</note>
  <anchor x="338" y="0" name="bottom"/>
  <anchor x="338" y="547" name="center"/>
  <anchor x="338" y="915" name="top"/>
  <outline>
    <contour>
      <point x="163" y="321" type="line"/>
      <point x="512" y="321" type="line"/>
      <point x="512" y="0" type="line"/>
      <point x="590" y="0" type="line"/>
      <point x="590" y="700" type="line"/>
      <point x="512" y="700" type="line"/>
      <point x="512" y="391" type="line"/>
      <point x="163" y="391" type="line"/>
      <point x="163" y="700" type="line"/>
      <point x="85" y="700" type="line"/>
      <point x="85" y="0" type="line"/>
      <point x="163" y="0" type="line"/>
    </contour>
    <contour>
      <point x="302" y="915" type="line"/>
      <point x="188" y="776" type="line"/>
      <point x="263" y="776" type="line"/>
      <point x="338" y="864" type="line"/>
      <point x="413" y="776" type="line"/>
      <point x="488" y="776" type="line"/>
      <point x="374" y="915" type="line"/>
    </contour>
  </outline>
</glyph>
<glyph name="hcircumflex" format="2">
  <advance width="542"/>
  <unicode hex="0125"/>
  <note>
hcircumflex
</note>
  <anchor x="270" y="0" name="bottom"/>
  <anchor x="205" y="614" name="center"/>
  <anchor x="111" y="945" name="top"/>
  <outline>
    <contour>
      <point x="73" y="730" type="line"/>
      <point x="73" y="0" type="line"/>
      <point x="149" y="0" type="line"/>
      <point x="149" y="413" type="line"/>
      <point x="149" y="413"/>
      <point x="221" y="443"/>
      <point x="292" y="443" type="curve" smooth="yes"/>
      <point x="384" y="443"/>
      <point x="398" y="394"/>
      <point x="398" y="262" type="curve" smooth="yes"/>
      <point x="398" y="0" type="line"/>
      <point x="474" y="0" type="line"/>
      <point x="474" y="264" type="line" smooth="yes"/>
      <point x="474" y="442"/>
      <point x="442" y="510"/>
      <point x="305" y="510" type="curve" smooth="yes"/>
      <point x="231" y="510"/>
      <point x="149" y="472"/>
      <point x="149" y="472" type="curve"/>
      <point x="149" y="730" type="line"/>
    </contour>
    <contour>
      <point x="75" y="945" type="line"/>
      <point x="-39" y="806" type="line"/>
      <point x="36" y="806" type="line"/>
      <point x="111" y="894" type="line"/>
      <point x="186" y="806" type="line"/>
      <point x="261" y="806" type="line"/>
      <point x="147" y="945" type="line"/>
    </contour>
  </outline>
</glyph>
<glyph name="Hbar" format="2">
  <advance width="705"/>
  <unicode hex="0126"/>
  <note>
Hbar
</note>
  <anchor x="353" y="0" name="bottom"/>
  <anchor x="353" y="547" name="center"/>
  <anchor x="353" y="700" name="top"/>
  <outline>
    <contour>
      <point x="178" y="321" type="line"/>
      <point x="527" y="321" type="line"/>
      <point x="527" y="0" type="line"/>
      <point x="605" y="0" type="line"/>
      <point x="605" y="513" type="line"/>
      <point x="680" y="513" type="line"/>
      <point x="680" y="581" type="line"/>
      <point x="605" y="581" type="line"/>
      <point x="605" y="700" type="line"/>
      <point x="527" y="700" type="line"/>
      <point x="527" y="581" type="line"/>
      <point x="178" y="581" type="line"/>
      <point x="178" y="700" type="line"/>
      <point x="100" y="700" type="line"/>
      <point x="100" y="581" type="line"/>
      <point x="25" y="581" type="line"/>
      <point x="25" y="513" type="line"/>
      <point x="100" y="513" type="line"/>
      <point x="100" y="0" type="line"/>
      <point x="178" y="0" type="line"/>
    </contour>
    <contour>
      <point x="527" y="391" type="line"/>
      <point x="178" y="391" type="line"/>
      <point x="178" y="513" type="line"/>
      <point x="527" y="513" type="line"/>
    </contour>
  </outline>
</glyph>
<glyph name="Itilde" format="2">
  <advance width="248"/>
  <unicode hex="0128"/>
  <note>
Itilde
</note>
  <anchor x="124" y="0" name="bottom"/>
  <anchor x="124" y="353" name="center"/>
  <anchor x="163" y="0" name="ogonek"/>
  <anchor x="124" y="899" name="top"/>
  <outline>
    <contour>
      <point x="163" y="700" type="line"/>
      <point x="85" y="700" type="line"/>
      <point x="85" y="0" type="line"/>
      <point x="163" y="0" type="line"/>
    </contour>
    <contour>
      <point x="-46" y="837" type="curve"/>
      <point x="-16" y="799" type="line"/>
      <point x="-16" y="799"/>
      <point x="33" y="839"/>
      <point x="57" y="839" type="curve" smooth="yes"/>
      <point x="89" y="839"/>
      <point x="156" y="792"/>
      <point x="196" y="792" type="curve" smooth="yes"/>
      <point x="236" y="792"/>
      <point x="285" y="843"/>
      <point x="295" y="853" type="curve"/>
      <point x="265" y="891" type="line"/>
      <point x="265" y="891"/>
      <point x="217" y="853"/>
      <point x="196" y="853" type="curve" smooth="yes"/>
      <point x="166" y="853"/>
      <point x="97" y="899"/>
      <point x="57" y="899" type="curve" smooth="yes"/>
      <point x="16" y="899"/>
      <point x="-46" y="837"/>
    </contour>
  </outline>
</glyph>
<glyph name="itilde" format="2">
  <advance width="222"/>
  <unicode hex="0129"/>
  <note>
itilde
</note>
  <anchor x="111" y="0" name="bottom"/>
  <anchor x="149" y="0" name="ogonek"/>
  <anchor x="111" y="719" name="top"/>
  <outline>
    <contour>
      <point x="149" y="500" type="line"/>
      <point x="73" y="500" type="line"/>
      <point x="73" y="0" type="line"/>
      <point x="149" y="0" type="line"/>
    </contour>
    <contour>
      <point x="-59" y="657" type="curve"/>
      <point x="-29" y="619" type="line"/>
      <point x="-29" y="619"/>
      <point x="20" y="659"/>
      <point x="44" y="659" type="curve" smooth="yes"/>
      <point x="76" y="659"/>
      <point x="143" y="612"/>
      <point x="183" y="612" type="curve" smooth="yes"/>
      <point x="223" y="612"/>
      <point x="272" y="663"/>
      <point x="282" y="673" type="curve"/>
      <point x="252" y="711" type="line"/>
      <point x="252" y="711"/>
      <point x="204" y="673"/>
      <point x="183" y="673" type="curve" smooth="yes"/>
      <point x="153" y="673"/>
      <point x="84" y="719"/>
      <point x="44" y="719" type="curve" smooth="yes"/>
      <point x="3" y="719"/>
      <point x="-59" y="657"/>
    </contour>
  </outline>
</glyph>
<glyph name="Imacron" format="2">
  <advance width="248"/>
  <unicode hex="012A"/>
  <note>
Imacron
</note>
  <anchor x="124" y="0" name="bottom"/>
  <anchor x="124" y="353" name="center"/>
  <anchor x="163" y="0" name="ogonek"/>
  <anchor x="124" y="863" name="top"/>
  <outline>
    <contour>
      <point x="163" y="700" type="line"/>
      <point x="85" y="700" type="line"/>
      <point x="85" y="0" type="line"/>
      <point x="163" y="0" type="line"/>
    </contour>
    <contour>
      <point x="-14" y="863" type="line"/>
      <point x="-14" y="804" type="line"/>
      <point x="261" y="804" type="line"/>
      <point x="261" y="863" type="line"/>
    </contour>
  </outline>
</glyph>
<glyph name="imacron" format="2">
  <advance width="222"/>
  <unicode hex="012B"/>
  <note>
imacron
</note>
  <anchor x="111" y="0" name="bottom"/>
  <anchor x="149" y="0" name="ogonek"/>
  <anchor x="111" y="683" name="top"/>
  <outline>
    <contour>
      <point x="149" y="500" type="line"/>
      <point x="73" y="500" type="line"/>
      <point x="73" y="0" type="line"/>
      <point x="149" y="0" type="line"/>
    </contour>
    <contour>
      <point x="-27" y="683" type="line"/>
      <point x="-27" y="624" type="line"/>
      <point x="248" y="624" type="line"/>
      <point x="248" y="683" type="line"/>
    </contour>
  </outline>
</glyph>
<glyph name="Ibreve" format="2">
  <advance width="248"/>
  <unicode hex="012C"/>
  <note>
Ibreve
</note>
  <anchor x="124" y="0" name="bottom"/>
  <anchor x="124" y="353" name="center"/>
  <anchor x="163" y="0" name="ogonek"/>
  <anchor x="124" y="911" name="top"/>
  <outline>
    <contour>
      <point x="163" y="700" type="line"/>
      <point x="85" y="700" type="line"/>
      <point x="85" y="0" type="line"/>
      <point x="163" y="0" type="line"/>
    </contour>
    <contour>
      <point x="37" y="911" type="curve"/>
      <point x="-24" y="911" type="line"/>
      <point x="-20" y="834"/>
      <point x="34" y="771"/>
      <point x="124" y="771" type="curve" smooth="yes"/>
      <point x="214" y="771"/>
      <point x="268" y="834"/>
      <point x="272" y="911" type="curve"/>
      <point x="211" y="911" type="line"/>
      <point x="209" y="862"/>
      <point x="177" y="827"/>
      <point x="124" y="827" type="curve" smooth="yes"/>
      <point x="71" y="827"/>
      <point x="39" y="862"/>
    </contour>
  </outline>
</glyph>
<glyph name="ibreve" format="2">
  <advance width="222"/>
  <unicode hex="012D"/>
  <note>
ibreve
</note>
  <anchor x="111" y="0" name="bottom"/>
  <anchor x="149" y="0" name="ogonek"/>
  <anchor x="111" y="731" name="top"/>
  <outline>
    <contour>
      <point x="149" y="500" type="line"/>
      <point x="73" y="500" type="line"/>
      <point x="73" y="0" type="line"/>
      <point x="149" y="0" type="line"/>
    </contour>
    <contour>
      <point x="24" y="731" type="curve"/>
      <point x="-37" y="731" type="line"/>
      <point x="-33" y="654"/>
      <point x="21" y="591"/>
      <point x="111" y="591" type="curve" smooth="yes"/>
      <point x="201" y="591"/>
      <point x="255" y="654"/>
      <point x="259" y="731" type="curve"/>
      <point x="198" y="731" type="line"/>
      <point x="196" y="682"/>
      <point x="164" y="647"/>
      <point x="111" y="647" type="curve" smooth="yes"/>
      <point x="58" y="647"/>
      <point x="26" y="682"/>
    </contour>
  </outline>
</glyph>
<glyph name="Iogonek" format="2">
  <advance width="248"/>
  <unicode hex="012E"/>
  <note>
Iogonek
</note>
  <anchor x="124" y="0" name="bottom"/>
  <anchor x="124" y="353" name="center"/>
  <anchor x="163" y="0" name="ogonek"/>
  <anchor x="124" y="700" name="top"/>
  <outline>
    <contour>
      <point x="163" y="700" type="line"/>
      <point x="85" y="700" type="line"/>
      <point x="85" y="0" type="line"/>
      <point x="93" y="0" type="line"/>
      <point x="71" y="-20"/>
      <point x="19" y="-72"/>
      <point x="19" y="-119" type="curve" smooth="yes"/>
      <point x="19" y="-173"/>
      <point x="59" y="-206"/>
      <point x="111" y="-206" type="curve" smooth="yes"/>
      <point x="145" y="-206"/>
      <point x="190" y="-197"/>
      <point x="190" y="-197" type="curve"/>
      <point x="183" y="-139" type="line"/>
      <point x="183" y="-139"/>
      <point x="147" y="-145"/>
      <point x="133" y="-145" type="curve" smooth="yes"/>
      <point x="109" y="-145"/>
      <point x="92" y="-127"/>
      <point x="92" y="-102" type="curve" smooth="yes"/>
      <point x="92" y="-69"/>
      <point x="163" y="0"/>
      <point x="163" y="0" type="curve"/>
    </contour>
  </outline>
</glyph>
<glyph name="iogonek" format="2">
  <advance width="222"/>
  <unicode hex="012F"/>
  <note>
iogonek
</note>
  <anchor x="111" y="0" name="bottom"/>
  <anchor x="149" y="0" name="ogonek"/>
  <anchor x="111" y="700" name="top"/>
  <outline>
    <contour>
      <point x="149" y="500" type="line"/>
      <point x="73" y="500" type="line"/>
      <point x="73" y="0" type="line"/>
      <point x="79" y="0" type="line"/>
      <point x="57" y="-20"/>
      <point x="5" y="-72"/>
      <point x="5" y="-119" type="curve" smooth="yes"/>
      <point x="5" y="-173"/>
      <point x="45" y="-206"/>
      <point x="97" y="-206" type="curve" smooth="yes"/>
      <point x="131" y="-206"/>
      <point x="176" y="-197"/>
      <point x="176" y="-197" type="curve"/>
      <point x="169" y="-139" type="line"/>
      <point x="169" y="-139"/>
      <point x="133" y="-145"/>
      <point x="119" y="-145" type="curve" smooth="yes"/>
      <point x="95" y="-145"/>
      <point x="78" y="-127"/>
      <point x="78" y="-102" type="curve" smooth="yes"/>
      <point x="78" y="-69"/>
      <point x="149" y="0"/>
      <point x="149" y="0" type="curve"/>
    </contour>
    <contour>
      <point x="73" y="700" type="line"/>
      <point x="73" y="603" type="line"/>
      <point x="148" y="603" type="line"/>
      <point x="148" y="700" type="line"/>
    </contour>
  </outline>
</glyph>
<glyph name="Idotaccent" format="2">
  <advance width="248"/>
  <unicode hex="0130"/>
  <note>
Idotaccent
</note>
  <anchor x="124" y="0" name="bottom"/>
  <anchor x="124" y="353" name="center"/>
  <anchor x="163" y="0" name="ogonek"/>
  <anchor x="124" y="900" name="top"/>
  <outline>
    <contour>
      <point x="163" y="700" type="line"/>
      <point x="85" y="700" type="line"/>
      <point x="85" y="0" type="line"/>
      <point x="163" y="0" type="line"/>
    </contour>
    <contour>
      <point x="86" y="900" type="line"/>
      <point x="86" y="804" type="line"/>
      <point x="161" y="804" type="line"/>
      <point x="161" y="900" type="line"/>
    </contour>
  </outline>
</glyph>
<glyph name="dotlessi" format="2">
  <advance width="222"/>
  <unicode hex="0131"/>
  <note>
dotlessi
</note>
  <anchor x="111" y="0" name="bottom"/>
  <anchor x="149" y="0" name="ogonek"/>
  <anchor x="111" y="500" name="top"/>
  <outline>
    <contour>
      <point x="149" y="500" type="line"/>
      <point x="73" y="500" type="line"/>
      <point x="73" y="0" type="line"/>
      <point x="149" y="0" type="line"/>
    </contour>
  </outline>
</glyph>
<glyph name="IJ" format="2">
  <advance width="539"/>
  <unicode hex="0132"/>
  <note>
IJ
</note>
  <anchor x="391" y="0" name="bottom"/>
  <anchor x="124" y="353" name="center"/>
  <anchor x="163" y="0" name="ogonek"/>
  <anchor x="418" y="700" name="top"/>
  <outline>
    <contour>
      <point x="163" y="700" type="line"/>
      <point x="85" y="700" type="line"/>
      <point x="85" y="0" type="line"/>
      <point x="163" y="0" type="line"/>
    </contour>
    <contour>
      <point x="266" y="58" type="curve"/>
      <point x="266" y="-12" type="line"/>
      <point x="398" y="-12"/>
      <point x="457" y="5"/>
      <point x="457" y="155" type="curve" smooth="yes"/>
      <point x="456" y="700" type="line"/>
      <point x="379" y="700" type="line"/>
      <point x="379" y="157" type="line" smooth="yes"/>
      <point x="379" y="63"/>
      <point x="357" y="58"/>
    </contour>
  </outline>
</glyph>
<glyph name="ij" format="2">
  <advance width="443"/>
  <unicode hex="0133"/>
  <note>
ij
</note>
  <anchor x="326" y="-230" name="bottom"/>
  <anchor x="149" y="0" name="ogonek"/>
  <anchor x="331" y="700" name="top"/>
  <outline>
    <contour>
      <point x="149" y="500" type="line"/>
      <point x="73" y="500" type="line"/>
      <point x="73" y="0" type="line"/>
      <point x="149" y="0" type="line"/>
    </contour>
    <contour>
      <point x="73" y="700" type="line"/>
      <point x="73" y="603" type="line"/>
      <point x="148" y="603" type="line"/>
      <point x="148" y="700" type="line"/>
    </contour>
    <contour>
      <point x="172" y="-184" type="curve"/>
      <point x="202" y="-242" type="line"/>
      <point x="335" y="-174"/>
      <point x="370" y="-130"/>
      <point x="370" y="-7" type="curve" smooth="yes"/>
      <point x="370" y="500" type="line"/>
      <point x="294" y="500" type="line"/>
      <point x="294" y="-6" type="line" smooth="yes"/>
      <point x="294" y="-102"/>
      <point x="273" y="-125"/>
    </contour>
    <contour>
      <point x="293" y="700" type="line"/>
      <point x="293" y="603" type="line"/>
      <point x="368" y="603" type="line"/>
      <point x="368" y="700" type="line"/>
    </contour>
  </outline>
</glyph>
<glyph name="Jcircumflex" format="2">
  <advance width="290"/>
  <unicode hex="0134"/>
  <note>
Jcircumflex
</note>
  <anchor x="142" y="0" name="bottom"/>
  <anchor x="169" y="915" name="top"/>
  <outline>
    <contour>
      <point x="208" y="155" type="curve" smooth="yes"/>
      <point x="207" y="700" type="line"/>
      <point x="130" y="700" type="line"/>
      <point x="130" y="157" type="line" smooth="yes"/>
      <point x="130" y="63"/>
      <point x="108" y="58"/>
      <point x="17" y="58" type="curve"/>
      <point x="17" y="-12" type="line"/>
      <point x="149" y="-12"/>
      <point x="208" y="5"/>
    </contour>
    <contour>
      <point x="133" y="915" type="line"/>
      <point x="19" y="776" type="line"/>
      <point x="94" y="776" type="line"/>
      <point x="169" y="864" type="line"/>
      <point x="244" y="776" type="line"/>
      <point x="319" y="776" type="line"/>
      <point x="205" y="915" type="line"/>
    </contour>
  </outline>
</glyph>
<glyph name="jcircumflex" format="2">
  <advance width="222"/>
  <unicode hex="0135"/>
  <note>
jcircumflex
</note>
  <anchor x="105" y="-230" name="bottom"/>
  <anchor x="110" y="740" name="top"/>
  <outline>
    <contour>
      <point x="149" y="500" type="line"/>
      <point x="73" y="500" type="line"/>
      <point x="73" y="-6" type="line" smooth="yes"/>
      <point x="73" y="-102"/>
      <point x="52" y="-125"/>
      <point x="-49" y="-184" type="curve"/>
      <point x="-19" y="-242" type="line"/>
      <point x="114" y="-174"/>
      <point x="149" y="-130"/>
      <point x="149" y="-7" type="curve" smooth="yes"/>
    </contour>
    <contour>
      <point x="74" y="735" type="line"/>
      <point x="-40" y="596" type="line"/>
      <point x="35" y="596" type="line"/>
      <point x="110" y="682" type="line"/>
      <point x="185" y="596" type="line"/>
      <point x="260" y="596" type="line"/>
      <point x="146" y="735" type="line"/>
    </contour>
  </outline>
</glyph>
<glyph name="uni0136" format="2">
  <advance width="567"/>
  <unicode hex="0136"/>
  <note>
uni0136
</note>
  <anchor x="257" y="-236" name="bottom"/>
  <anchor x="291" y="700" name="top"/>
  <outline>
    <contour>
      <point x="163" y="308" type="line"/>
      <point x="277" y="312" type="line"/>
      <point x="461" y="0" type="line"/>
      <point x="552" y="0" type="line"/>
      <point x="343" y="350" type="line"/>
      <point x="541" y="700" type="line"/>
      <point x="453" y="700" type="line"/>
      <point x="276" y="380" type="line"/>
      <point x="163" y="376" type="line"/>
      <point x="163" y="700" type="line"/>
      <point x="85" y="700" type="line"/>
      <point x="85" y="0" type="line"/>
      <point x="163" y="0" type="line"/>
    </contour>
    <contour>
      <point x="291" y="-77" type="line"/>
      <point x="203" y="-221" type="line"/>
      <point x="247" y="-252" type="line"/>
      <point x="349" y="-120" type="line"/>
    </contour>
  </outline>
</glyph>
<glyph name="uni0137" format="2">
  <advance width="475"/>
  <unicode hex="0137"/>
  <note>
uni0137
</note>
  <anchor x="212" y="-236" name="bottom"/>
  <anchor x="112" y="730" name="top"/>
  <outline>
    <contour>
      <point x="73" y="730" type="line"/>
      <point x="73" y="0" type="line"/>
      <point x="149" y="0" type="line"/>
      <point x="149" y="240" type="line"/>
      <point x="228" y="243" type="line"/>
      <point x="377" y="0" type="line"/>
      <point x="462" y="0" type="line"/>
      <point x="292" y="281" type="line"/>
      <point x="455" y="500" type="line"/>
      <point x="370" y="500" type="line"/>
      <point x="227" y="309" type="line"/>
      <point x="149" y="305" type="line"/>
      <point x="149" y="730" type="line"/>
    </contour>
    <contour>
      <point x="246" y="-77" type="line"/>
      <point x="158" y="-221" type="line"/>
      <point x="202" y="-252" type="line"/>
      <point x="304" y="-120" type="line"/>
    </contour>
  </outline>
</glyph>
<glyph name="Lacute" format="2">
  <advance width="480"/>
  <unicode hex="0139"/>
  <note>
Lacute
</note>
  <anchor x="279" y="0" name="bottom"/>
  <anchor x="122" y="350" name="center"/>
  <anchor x="124" y="920" name="top"/>
  <anchor x="279" y="700" name="topright"/>
  <outline>
    <contour>
      <point x="85" y="700" type="line"/>
      <point x="85" y="0" type="line"/>
      <point x="466" y="0" type="line"/>
      <point x="466" y="70" type="line"/>
      <point x="163" y="70" type="line"/>
      <point x="163" y="700" type="line"/>
    </contour>
    <contour>
      <point x="219" y="920" type="line"/>
      <point x="3" y="822" type="line"/>
      <point x="24" y="771" type="line"/>
      <point x="245" y="856" type="line"/>
    </contour>
  </outline>
</glyph>
<glyph name="lacute" format="2">
  <advance width="268"/>
  <unicode hex="013A"/>
  <note>
lacute
</note>
  <anchor x="170" y="0" name="bottom"/>
  <anchor x="108" y="365" name="center"/>
  <anchor x="108" y="950" name="top"/>
  <anchor x="202" y="730" name="topright"/>
  <outline>
    <contour>
      <point x="146" y="131" type="curve" smooth="yes"/>
      <point x="146" y="730" type="line"/>
      <point x="70" y="730" type="line"/>
      <point x="70" y="101" type="line" smooth="yes"/>
      <point x="70" y="27"/>
      <point x="110" y="-12"/>
      <point x="193" y="-12" type="curve" smooth="yes"/>
      <point x="228" y="-12"/>
      <point x="252" y="-4"/>
      <point x="252" y="-4" type="curve"/>
      <point x="247" y="57" type="line"/>
      <point x="247" y="57"/>
      <point x="225" y="55"/>
      <point x="197" y="55" type="curve" smooth="yes"/>
      <point x="152" y="55"/>
      <point x="146" y="76"/>
    </contour>
    <contour>
      <point x="203" y="950" type="line"/>
      <point x="-13" y="852" type="line"/>
      <point x="8" y="801" type="line"/>
      <point x="229" y="886" type="line"/>
    </contour>
  </outline>
</glyph>
<glyph name="uni013B" format="2">
  <advance width="480"/>
  <unicode hex="013B"/>
  <note>
uni013B
</note>
  <anchor x="235" y="-236" name="bottom"/>
  <anchor x="122" y="350" name="center"/>
  <anchor x="124" y="700" name="top"/>
  <anchor x="279" y="700" name="topright"/>
  <outline>
    <contour>
      <point x="85" y="700" type="line"/>
      <point x="85" y="0" type="line"/>
      <point x="466" y="0" type="line"/>
      <point x="466" y="70" type="line"/>
      <point x="163" y="70" type="line"/>
      <point x="163" y="700" type="line"/>
    </contour>
    <contour>
      <point x="269" y="-77" type="line"/>
      <point x="181" y="-221" type="line"/>
      <point x="225" y="-252" type="line"/>
      <point x="327" y="-120" type="line"/>
    </contour>
  </outline>
</glyph>
<glyph name="uni013C" format="2">
  <advance width="268"/>
  <unicode hex="013C"/>
  <note>
uni013C
</note>
  <anchor x="126" y="-236" name="bottom"/>
  <anchor x="108" y="365" name="center"/>
  <anchor x="108" y="730" name="top"/>
  <anchor x="202" y="730" name="topright"/>
  <outline>
    <contour>
      <point x="146" y="131" type="curve" smooth="yes"/>
      <point x="146" y="730" type="line"/>
      <point x="70" y="730" type="line"/>
      <point x="70" y="101" type="line" smooth="yes"/>
      <point x="70" y="27"/>
      <point x="110" y="-12"/>
      <point x="193" y="-12" type="curve" smooth="yes"/>
      <point x="228" y="-12"/>
      <point x="252" y="-4"/>
      <point x="252" y="-4" type="curve"/>
      <point x="247" y="57" type="line"/>
      <point x="247" y="57"/>
      <point x="225" y="55"/>
      <point x="197" y="55" type="curve" smooth="yes"/>
      <point x="152" y="55"/>
      <point x="146" y="76"/>
    </contour>
    <contour>
      <point x="160" y="-77" type="line"/>
      <point x="72" y="-221" type="line"/>
      <point x="116" y="-252" type="line"/>
      <point x="218" y="-120" type="line"/>
    </contour>
  </outline>
</glyph>
<glyph name="Lcaron" format="2">
  <advance width="481"/>
  <unicode hex="013D"/>
  <note>
Lcaron
</note>
  <anchor x="279" y="0" name="bottom"/>
  <anchor x="122" y="350" name="center"/>
  <anchor x="124" y="700" name="top"/>
  <anchor x="279" y="700" name="topright"/>
  <outline>
    <contour>
      <point x="85" y="700" type="line"/>
      <point x="85" y="0" type="line"/>
      <point x="466" y="0" type="line"/>
      <point x="466" y="70" type="line"/>
      <point x="163" y="70" type="line"/>
      <point x="163" y="700" type="line"/>
    </contour>
    <contour>
      <point x="299" y="574" type="curve"/>
      <point x="339" y="556" type="line"/>
      <point x="339" y="556"/>
      <point x="384" y="598"/>
      <point x="384" y="635" type="curve" smooth="yes"/>
      <point x="384" y="660"/>
      <point x="383" y="700"/>
      <point x="383" y="700" type="curve"/>
      <point x="316" y="700" type="line"/>
      <point x="316" y="700"/>
      <point x="319" y="655"/>
      <point x="319" y="644" type="curve" smooth="yes"/>
      <point x="319" y="626"/>
      <point x="299" y="574"/>
    </contour>
  </outline>
</glyph>
<glyph name="lcaron" format="2">
  <advance width="268"/>
  <unicode hex="013E"/>
  <note>
lcaron
</note>
  <anchor x="170" y="0" name="bottom"/>
  <anchor x="108" y="365" name="center"/>
  <anchor x="108" y="730" name="top"/>
  <anchor x="202" y="730" name="topright"/>
  <outline>
    <contour>
      <point x="146" y="131" type="curve" smooth="yes"/>
      <point x="146" y="730" type="line"/>
      <point x="70" y="730" type="line"/>
      <point x="70" y="101" type="line" smooth="yes"/>
      <point x="70" y="27"/>
      <point x="110" y="-12"/>
      <point x="193" y="-12" type="curve" smooth="yes"/>
      <point x="228" y="-12"/>
      <point x="252" y="-4"/>
      <point x="252" y="-4" type="curve"/>
      <point x="247" y="57" type="line"/>
      <point x="247" y="57"/>
      <point x="225" y="55"/>
      <point x="197" y="55" type="curve" smooth="yes"/>
      <point x="152" y="55"/>
      <point x="146" y="76"/>
    </contour>
    <contour>
      <point x="222" y="604" type="curve"/>
      <point x="262" y="586" type="line"/>
      <point x="262" y="586"/>
      <point x="307" y="628"/>
      <point x="307" y="665" type="curve" smooth="yes"/>
      <point x="307" y="690"/>
      <point x="306" y="730"/>
      <point x="306" y="730" type="curve"/>
      <point x="239" y="730" type="line"/>
      <point x="239" y="730"/>
      <point x="242" y="685"/>
      <point x="242" y="674" type="curve" smooth="yes"/>
      <point x="242" y="656"/>
      <point x="222" y="604"/>
    </contour>
  </outline>
</glyph>
<glyph name="Lslash" format="2">
  <advance width="517"/>
  <unicode hex="0141"/>
  <note>
Lslash
</note>
  <anchor x="316" y="0" name="bottom"/>
  <anchor x="159" y="350" name="center"/>
  <anchor x="161" y="700" name="top"/>
  <anchor x="316" y="700" name="topright"/>
  <outline>
    <contour>
      <point x="122" y="290" type="line"/>
      <point x="122" y="0" type="line"/>
      <point x="503" y="0" type="line"/>
      <point x="503" y="70" type="line"/>
      <point x="200" y="70" type="line"/>
      <point x="200" y="317" type="line"/>
      <point x="353" y="393" type="line"/>
      <point x="323" y="452" type="line"/>
      <point x="200" y="386" type="line"/>
      <point x="200" y="700" type="line"/>
      <point x="122" y="700" type="line"/>
      <point x="122" y="361" type="line"/>
      <point x="17" y="308" type="line"/>
      <point x="47" y="250" type="line"/>
    </contour>
  </outline>
</glyph>
<glyph name="lslash" format="2">
  <advance width="325"/>
  <unicode hex="0142"/>
  <note>
lslash
</note>
  <anchor x="211" y="0" name="bottom"/>
  <anchor x="149" y="365" name="center"/>
  <anchor x="149" y="730" name="top"/>
  <anchor x="243" y="730" name="topright"/>
  <outline>
    <contour>
      <point x="187" y="131" type="curve" smooth="yes"/>
      <point x="187" y="320" type="line"/>
      <point x="293" y="372" type="line"/>
      <point x="263" y="431" type="line"/>
      <point x="187" y="390" type="line"/>
      <point x="187" y="730" type="line"/>
      <point x="111" y="730" type="line"/>
      <point x="111" y="365" type="line"/>
      <point x="27" y="323" type="line"/>
      <point x="57" y="265" type="line"/>
      <point x="111" y="295" type="line"/>
      <point x="111" y="101" type="line" smooth="yes"/>
      <point x="111" y="27"/>
      <point x="151" y="-12"/>
      <point x="234" y="-12" type="curve" smooth="yes"/>
      <point x="269" y="-12"/>
      <point x="293" y="-4"/>
      <point x="293" y="-4" type="curve"/>
      <point x="288" y="57" type="line"/>
      <point x="288" y="57"/>
      <point x="266" y="55"/>
      <point x="238" y="55" type="curve" smooth="yes"/>
      <point x="193" y="55"/>
      <point x="187" y="76"/>
    </contour>
  </outline>
</glyph>
<glyph name="Nacute" format="2">
  <advance width="679"/>
  <unicode hex="0143"/>
  <note>
Nacute
</note>
  <anchor x="340" y="0" name="bottom"/>
  <anchor x="364" y="920" name="top"/>
  <outline>
    <contour>
      <point x="244" y="700" type="line"/>
      <point x="85" y="700" type="line"/>
      <point x="85" y="0" type="line"/>
      <point x="163" y="0" type="line"/>
      <point x="163" y="626" type="line"/>
      <point x="193" y="626" type="line"/>
      <point x="435" y="0" type="line"/>
      <point x="594" y="0" type="line"/>
      <point x="594" y="700" type="line"/>
      <point x="516" y="700" type="line"/>
      <point x="516" y="74" type="line"/>
      <point x="486" y="74" type="line"/>
    </contour>
    <contour>
      <point x="459" y="920" type="line"/>
      <point x="243" y="822" type="line"/>
      <point x="264" y="771" type="line"/>
      <point x="485" y="856" type="line"/>
    </contour>
  </outline>
</glyph>
<glyph name="nacute" format="2">
  <advance width="542"/>
  <unicode hex="0144"/>
  <note>
nacute
</note>
  <anchor x="277" y="0" name="bottom"/>
  <anchor x="277" y="740" name="top"/>
  <outline>
    <contour>
      <point x="73" y="500" type="line"/>
      <point x="73" y="0" type="line"/>
      <point x="149" y="0" type="line"/>
      <point x="149" y="406" type="line"/>
      <point x="149" y="406"/>
      <point x="218" y="447"/>
      <point x="290" y="447" type="curve" smooth="yes"/>
      <point x="383" y="447"/>
      <point x="398" y="398"/>
      <point x="398" y="266" type="curve" smooth="yes"/>
      <point x="398" y="0" type="line"/>
      <point x="474" y="0" type="line"/>
      <point x="474" y="268" type="line" smooth="yes"/>
      <point x="474" y="446"/>
      <point x="441" y="514"/>
      <point x="303" y="514" type="curve" smooth="yes"/>
      <point x="229" y="514"/>
      <point x="148" y="465"/>
      <point x="148" y="465" type="curve"/>
      <point x="148" y="500" type="line"/>
    </contour>
    <contour>
      <point x="372" y="740" type="line"/>
      <point x="156" y="642" type="line"/>
      <point x="177" y="591" type="line"/>
      <point x="398" y="676" type="line"/>
    </contour>
  </outline>
</glyph>
<glyph name="uni0145" format="2">
  <advance width="679"/>
  <unicode hex="0145"/>
  <note>
uni0145
</note>
  <anchor x="296" y="-236" name="bottom"/>
  <anchor x="364" y="700" name="top"/>
  <outline>
    <contour>
      <point x="244" y="700" type="line"/>
      <point x="85" y="700" type="line"/>
      <point x="85" y="0" type="line"/>
      <point x="163" y="0" type="line"/>
      <point x="163" y="626" type="line"/>
      <point x="193" y="626" type="line"/>
      <point x="435" y="0" type="line"/>
      <point x="594" y="0" type="line"/>
      <point x="594" y="700" type="line"/>
      <point x="516" y="700" type="line"/>
      <point x="516" y="74" type="line"/>
      <point x="486" y="74" type="line"/>
    </contour>
    <contour>
      <point x="330" y="-77" type="line"/>
      <point x="242" y="-221" type="line"/>
      <point x="286" y="-252" type="line"/>
      <point x="388" y="-120" type="line"/>
    </contour>
  </outline>
</glyph>
<glyph name="uni0146" format="2">
  <advance width="542"/>
  <unicode hex="0146"/>
  <note>
uni0146
</note>
  <anchor x="233" y="-236" name="bottom"/>
  <anchor x="267" y="500" name="top"/>
  <outline>
    <contour>
      <point x="73" y="500" type="line"/>
      <point x="73" y="0" type="line"/>
      <point x="149" y="0" type="line"/>
      <point x="149" y="406" type="line"/>
      <point x="149" y="406"/>
      <point x="218" y="447"/>
      <point x="290" y="447" type="curve" smooth="yes"/>
      <point x="383" y="447"/>
      <point x="398" y="398"/>
      <point x="398" y="266" type="curve" smooth="yes"/>
      <point x="398" y="0" type="line"/>
      <point x="474" y="0" type="line"/>
      <point x="474" y="268" type="line" smooth="yes"/>
      <point x="474" y="446"/>
      <point x="441" y="514"/>
      <point x="303" y="514" type="curve" smooth="yes"/>
      <point x="229" y="514"/>
      <point x="148" y="465"/>
      <point x="148" y="465" type="curve"/>
      <point x="148" y="500" type="line"/>
    </contour>
    <contour>
      <point x="267" y="-77" type="line"/>
      <point x="179" y="-221" type="line"/>
      <point x="223" y="-252" type="line"/>
      <point x="325" y="-120" type="line"/>
    </contour>
  </outline>
</glyph>
<glyph name="Ncaron" format="2">
  <advance width="679"/>
  <unicode hex="0147"/>
  <note>
Ncaron
</note>
  <anchor x="340" y="0" name="bottom"/>
  <anchor x="364" y="920" name="top"/>
  <outline>
    <contour>
      <point x="244" y="700" type="line"/>
      <point x="85" y="700" type="line"/>
      <point x="85" y="0" type="line"/>
      <point x="163" y="0" type="line"/>
      <point x="163" y="626" type="line"/>
      <point x="193" y="626" type="line"/>
      <point x="435" y="0" type="line"/>
      <point x="594" y="0" type="line"/>
      <point x="594" y="700" type="line"/>
      <point x="516" y="700" type="line"/>
      <point x="516" y="74" type="line"/>
      <point x="486" y="74" type="line"/>
    </contour>
    <contour>
      <point x="289" y="915" type="line"/>
      <point x="214" y="915" type="line"/>
      <point x="328" y="776" type="line"/>
      <point x="400" y="776" type="line"/>
      <point x="514" y="915" type="line"/>
      <point x="439" y="915" type="line"/>
      <point x="364" y="829" type="line"/>
    </contour>
  </outline>
</glyph>
<glyph name="napostrophe" format="2">
  <advance width="669"/>
  <unicode hex="0149"/>
  <note>
napostrophe
</note>
  <anchor x="404" y="0" name="bottom"/>
  <anchor x="394" y="500" name="top"/>
  <outline>
    <contour>
      <point x="150" y="730" type="line"/>
      <point x="67" y="730" type="line"/>
      <point x="21" y="493" type="line"/>
      <point x="83" y="493" type="line"/>
    </contour>
    <contour>
      <point x="200" y="500" type="line"/>
      <point x="200" y="0" type="line"/>
      <point x="276" y="0" type="line"/>
      <point x="276" y="406" type="line"/>
      <point x="276" y="406"/>
      <point x="345" y="447"/>
      <point x="417" y="447" type="curve" smooth="yes"/>
      <point x="510" y="447"/>
      <point x="525" y="398"/>
      <point x="525" y="266" type="curve" smooth="yes"/>
      <point x="525" y="0" type="line"/>
      <point x="601" y="0" type="line"/>
      <point x="601" y="268" type="line" smooth="yes"/>
      <point x="601" y="446"/>
      <point x="568" y="514"/>
      <point x="430" y="514" type="curve" smooth="yes"/>
      <point x="356" y="514"/>
      <point x="275" y="465"/>
      <point x="275" y="465" type="curve"/>
      <point x="275" y="500" type="line"/>
    </contour>
  </outline>
</glyph>
<glyph name="eng" format="2">
  <advance width="542"/>
  <unicode hex="014B"/>
  <note>
eng
</note>
  <anchor x="277" y="0" name="bottom"/>
  <anchor x="267" y="500" name="top"/>
  <outline>
    <contour>
      <point x="474" y="-22" type="curve" smooth="yes"/>
      <point x="474" y="268" type="line" smooth="yes"/>
      <point x="474" y="446"/>
      <point x="441" y="514"/>
      <point x="303" y="514" type="curve" smooth="yes"/>
      <point x="229" y="514"/>
      <point x="148" y="465"/>
      <point x="148" y="465" type="curve"/>
      <point x="148" y="500" type="line"/>
      <point x="73" y="500" type="line"/>
      <point x="73" y="0" type="line"/>
      <point x="149" y="0" type="line"/>
      <point x="149" y="406" type="line"/>
      <point x="149" y="406"/>
      <point x="218" y="447"/>
      <point x="290" y="447" type="curve" smooth="yes"/>
      <point x="383" y="447"/>
      <point x="398" y="398"/>
      <point x="398" y="266" type="curve" smooth="yes"/>
      <point x="398" y="-19" type="line" smooth="yes"/>
      <point x="398" y="-113"/>
      <point x="376" y="-119"/>
      <point x="285" y="-119" type="curve"/>
      <point x="285" y="-189" type="line"/>
      <point x="417" y="-189"/>
      <point x="474" y="-172"/>
    </contour>
  </outline>
</glyph>
<glyph name="Obreve" format="2">
  <advance width="661"/>
  <unicode hex="014E"/>
  <note>
Obreve
</note>
  <anchor x="331" y="0" name="bottom"/>
  <anchor x="331" y="350" name="center"/>
  <anchor x="396" y="0" name="ogonek"/>
  <anchor x="331" y="911" name="top"/>
  <anchor x="642" y="700" name="topright"/>
  <outline>
    <contour>
      <point x="330" y="57" type="curve" smooth="yes"/>
      <point x="170" y="57"/>
      <point x="137" y="156"/>
      <point x="137" y="345" type="curve" smooth="yes"/>
      <point x="137" y="539"/>
      <point x="171" y="645"/>
      <point x="330" y="645" type="curve" smooth="yes"/>
      <point x="488" y="645"/>
      <point x="524" y="538"/>
      <point x="524" y="345" type="curve" smooth="yes"/>
      <point x="524" y="150"/>
      <point x="491" y="57"/>
    </contour>
    <contour>
      <point x="57" y="345" type="curve" smooth="yes"/>
      <point x="57" y="113"/>
      <point x="115" y="-12"/>
      <point x="330" y="-12" type="curve" smooth="yes"/>
      <point x="545" y="-12"/>
      <point x="604" y="107"/>
      <point x="604" y="345" type="curve" smooth="yes"/>
      <point x="604" y="581"/>
      <point x="544" y="714"/>
      <point x="330" y="714" type="curve" smooth="yes"/>
      <point x="116" y="714"/>
      <point x="57" y="579"/>
    </contour>
    <contour>
      <point x="244" y="911" type="curve"/>
      <point x="183" y="911" type="line"/>
      <point x="187" y="834"/>
      <point x="241" y="771"/>
      <point x="331" y="771" type="curve" smooth="yes"/>
      <point x="421" y="771"/>
      <point x="475" y="834"/>
      <point x="479" y="911" type="curve"/>
      <point x="418" y="911" type="line"/>
      <point x="416" y="862"/>
      <point x="384" y="827"/>
      <point x="331" y="827" type="curve" smooth="yes"/>
      <point x="278" y="827"/>
      <point x="246" y="862"/>
    </contour>
  </outline>
</glyph>
<glyph name="obreve" format="2">
  <advance width="530"/>
  <unicode hex="014F"/>
  <note>
obreve
</note>
  <anchor x="265" y="0" name="bottom"/>
  <anchor x="265" y="250" name="center"/>
  <anchor x="334" y="0" name="ogonek"/>
  <anchor x="265" y="731" name="top"/>
  <anchor x="508" y="500" name="topright"/>
  <outline>
    <contour>
      <point x="265" y="514" type="curve" smooth="yes"/>
      <point x="107" y="514"/>
      <point x="50" y="432"/>
      <point x="50" y="256" type="curve" smooth="yes"/>
      <point x="50" y="72"/>
      <point x="97" y="-12"/>
      <point x="265" y="-12" type="curve" smooth="yes"/>
      <point x="434" y="-12"/>
      <point x="480" y="72"/>
      <point x="480" y="256" type="curve" smooth="yes"/>
      <point x="480" y="432"/>
      <point x="424" y="514"/>
    </contour>
    <contour>
      <point x="178" y="731" type="curve"/>
      <point x="117" y="731" type="line"/>
      <point x="121" y="654"/>
      <point x="175" y="591"/>
      <point x="265" y="591" type="curve" smooth="yes"/>
      <point x="355" y="591"/>
      <point x="409" y="654"/>
      <point x="413" y="731" type="curve"/>
      <point x="352" y="731" type="line"/>
      <point x="350" y="682"/>
      <point x="318" y="647"/>
      <point x="265" y="647" type="curve" smooth="yes"/>
      <point x="212" y="647"/>
      <point x="180" y="682"/>
    </contour>
    <contour>
      <point x="128" y="256" type="curve" smooth="yes"/>
      <point x="128" y="399"/>
      <point x="159" y="449"/>
      <point x="265" y="449" type="curve" smooth="yes"/>
      <point x="372" y="449"/>
      <point x="402" y="399"/>
      <point x="402" y="256" type="curve" smooth="yes"/>
      <point x="402" y="112"/>
      <point x="384" y="53"/>
      <point x="265" y="53" type="curve" smooth="yes"/>
      <point x="147" y="53"/>
      <point x="128" y="112"/>
    </contour>
  </outline>
</glyph>
<glyph name="ohungarumlaut" format="2">
  <advance width="530"/>
  <unicode hex="0151"/>
  <note>
ohungarumlaut
</note>
  <anchor x="265" y="0" name="bottom"/>
  <anchor x="265" y="250" name="center"/>
  <anchor x="334" y="0" name="ogonek"/>
  <anchor x="265" y="740" name="top"/>
  <anchor x="508" y="500" name="topright"/>
  <outline>
    <contour>
      <point x="265" y="514" type="curve" smooth="yes"/>
      <point x="107" y="514"/>
      <point x="50" y="432"/>
      <point x="50" y="256" type="curve" smooth="yes"/>
      <point x="50" y="72"/>
      <point x="97" y="-12"/>
      <point x="265" y="-12" type="curve" smooth="yes"/>
      <point x="434" y="-12"/>
      <point x="480" y="72"/>
      <point x="480" y="256" type="curve" smooth="yes"/>
      <point x="480" y="432"/>
      <point x="424" y="514"/>
    </contour>
    <contour>
      <point x="228" y="740" type="line"/>
      <point x="67" y="638" type="line"/>
      <point x="91" y="591" type="line"/>
      <point x="262" y="676" type="line"/>
    </contour>
    <contour>
      <point x="128" y="256" type="curve" smooth="yes"/>
      <point x="128" y="399"/>
      <point x="159" y="449"/>
      <point x="265" y="449" type="curve" smooth="yes"/>
      <point x="372" y="449"/>
      <point x="402" y="399"/>
      <point x="402" y="256" type="curve" smooth="yes"/>
      <point x="402" y="112"/>
      <point x="384" y="53"/>
      <point x="265" y="53" type="curve" smooth="yes"/>
      <point x="147" y="53"/>
      <point x="128" y="112"/>
    </contour>
    <contour>
      <point x="428" y="740" type="line"/>
      <point x="267" y="638" type="line"/>
      <point x="291" y="591" type="line"/>
      <point x="462" y="676" type="line"/>
    </contour>
  </outline>
</glyph>
<glyph name="Racute" format="2">
  <advance width="616"/>
  <unicode hex="0154"/>
  <note>
Racute
</note>
  <anchor x="309" y="0" name="bottom"/>
  <anchor x="306" y="920" name="top"/>
  <outline>
    <contour>
      <point x="482" y="487" type="curve" smooth="yes"/>
      <point x="482" y="395"/>
      <point x="446" y="333"/>
      <point x="342" y="333" type="curve" smooth="yes"/>
      <point x="163" y="333" type="line"/>
      <point x="163" y="632" type="line"/>
      <point x="341" y="632" type="line" smooth="yes"/>
      <point x="438" y="632"/>
      <point x="482" y="585"/>
    </contour>
    <contour>
      <point x="85" y="700" type="line"/>
      <point x="85" y="0" type="line"/>
      <point x="163" y="0" type="line"/>
      <point x="163" y="265" type="line"/>
      <point x="358" y="265" type="line"/>
      <point x="483" y="0" type="line"/>
      <point x="568" y="0" type="line"/>
      <point x="435" y="281" type="line"/>
      <point x="522" y="309"/>
      <point x="562" y="380"/>
      <point x="562" y="487" type="curve" smooth="yes"/>
      <point x="562" y="636"/>
      <point x="486" y="700"/>
      <point x="341" y="700" type="curve" smooth="yes"/>
    </contour>
    <contour>
      <point x="401" y="920" type="line"/>
      <point x="185" y="822" type="line"/>
      <point x="206" y="771" type="line"/>
      <point x="427" y="856" type="line"/>
    </contour>
  </outline>
</glyph>
<glyph name="racute" format="2">
  <advance width="346"/>
  <unicode hex="0155"/>
  <note>
racute
</note>
  <anchor x="111" y="0" name="bottom"/>
  <anchor x="214" y="740" name="top"/>
  <outline>
    <contour>
      <point x="148" y="500" type="line"/>
      <point x="73" y="500" type="line"/>
      <point x="73" y="0" type="line"/>
      <point x="149" y="0" type="line"/>
      <point x="149" y="367" type="line"/>
      <point x="149" y="367"/>
      <point x="237" y="419"/>
      <point x="331" y="438" type="curve"/>
      <point x="331" y="514" type="line"/>
      <point x="235" y="495"/>
      <point x="148" y="432"/>
      <point x="148" y="432" type="curve"/>
    </contour>
    <contour>
      <point x="309" y="740" type="line"/>
      <point x="93" y="642" type="line"/>
      <point x="114" y="591" type="line"/>
      <point x="335" y="676" type="line"/>
    </contour>
  </outline>
</glyph>
<glyph name="uni0157" format="2">
  <advance width="346"/>
  <unicode hex="0157"/>
  <note>
uni0157
</note>
  <anchor x="67" y="-236" name="bottom"/>
  <anchor x="204" y="500" name="top"/>
  <outline>
    <contour>
      <point x="148" y="500" type="line"/>
      <point x="73" y="500" type="line"/>
      <point x="73" y="0" type="line"/>
      <point x="149" y="0" type="line"/>
      <point x="149" y="367" type="line"/>
      <point x="149" y="367"/>
      <point x="237" y="419"/>
      <point x="331" y="438" type="curve"/>
      <point x="331" y="514" type="line"/>
      <point x="235" y="495"/>
      <point x="148" y="432"/>
      <point x="148" y="432" type="curve"/>
    </contour>
    <contour>
      <point x="101" y="-77" type="line"/>
      <point x="13" y="-221" type="line"/>
      <point x="57" y="-252" type="line"/>
      <point x="159" y="-120" type="line"/>
    </contour>
  </outline>
</glyph>
<glyph name="Rcaron" format="2">
  <advance width="616"/>
  <unicode hex="0158"/>
  <note>
Rcaron
</note>
  <anchor x="309" y="0" name="bottom"/>
  <anchor x="306" y="920" name="top"/>
  <outline>
    <contour>
      <point x="482" y="487" type="curve" smooth="yes"/>
      <point x="482" y="395"/>
      <point x="446" y="333"/>
      <point x="342" y="333" type="curve" smooth="yes"/>
      <point x="163" y="333" type="line"/>
      <point x="163" y="632" type="line"/>
      <point x="341" y="632" type="line" smooth="yes"/>
      <point x="438" y="632"/>
      <point x="482" y="585"/>
    </contour>
    <contour>
      <point x="85" y="700" type="line"/>
      <point x="85" y="0" type="line"/>
      <point x="163" y="0" type="line"/>
      <point x="163" y="265" type="line"/>
      <point x="358" y="265" type="line"/>
      <point x="483" y="0" type="line"/>
      <point x="568" y="0" type="line"/>
      <point x="435" y="281" type="line"/>
      <point x="522" y="309"/>
      <point x="562" y="380"/>
      <point x="562" y="487" type="curve" smooth="yes"/>
      <point x="562" y="636"/>
      <point x="486" y="700"/>
      <point x="341" y="700" type="curve" smooth="yes"/>
    </contour>
    <contour>
      <point x="231" y="915" type="line"/>
      <point x="156" y="915" type="line"/>
      <point x="270" y="776" type="line"/>
      <point x="342" y="776" type="line"/>
      <point x="456" y="915" type="line"/>
      <point x="381" y="915" type="line"/>
      <point x="306" y="829" type="line"/>
    </contour>
  </outline>
</glyph>
<glyph name="Scedilla" format="2">
  <advance width="543"/>
  <unicode hex="015E"/>
  <note>
Scedilla
</note>
  <anchor x="273" y="-217" name="bottom"/>
  <anchor x="277" y="700" name="top"/>
  <outline>
    <contour>
      <point x="471" y="622" type="curve"/>
      <point x="478" y="687" type="line"/>
      <point x="478" y="687"/>
      <point x="365" y="714"/>
      <point x="271" y="714" type="curve" smooth="yes"/>
      <point x="138" y="714"/>
      <point x="50" y="662"/>
      <point x="50" y="520" type="curve" smooth="yes"/>
      <point x="50" y="416"/>
      <point x="97" y="373"/>
      <point x="202" y="342" type="curve" smooth="yes"/>
      <point x="309" y="310" type="line" smooth="yes"/>
      <point x="396" y="284"/>
      <point x="419" y="260"/>
      <point x="419" y="196" type="curve" smooth="yes"/>
      <point x="419" y="100"/>
      <point x="369" y="56"/>
      <point x="269" y="56" type="curve" smooth="yes"/>
      <point x="198" y="56"/>
      <point x="62" y="76"/>
      <point x="62" y="76" type="curve"/>
      <point x="54" y="11" type="line"/>
      <point x="54" y="11"/>
      <point x="147" y="-5"/>
      <point x="226" y="-10" type="curve"/>
      <point x="208" y="-93" type="line"/>
      <point x="252" y="-93" type="line" smooth="yes"/>
      <point x="280" y="-93"/>
      <point x="296" y="-102"/>
      <point x="296" y="-127" type="curve" smooth="yes"/>
      <point x="296" y="-155"/>
      <point x="280" y="-165"/>
      <point x="252" y="-165" type="curve" smooth="yes"/>
      <point x="225" y="-165"/>
      <point x="182" y="-162"/>
      <point x="182" y="-162" type="curve"/>
      <point x="179" y="-210" type="line"/>
      <point x="179" y="-210"/>
      <point x="225" y="-217"/>
      <point x="269" y="-217" type="curve" smooth="yes"/>
      <point x="325" y="-217"/>
      <point x="362" y="-190"/>
      <point x="362" y="-127" type="curve" smooth="yes"/>
      <point x="362" y="-63"/>
      <point x="325" y="-49"/>
      <point x="262" y="-49" type="curve"/>
      <point x="270" y="-12" type="line"/>
      <point x="273" y="-12" type="line" smooth="yes"/>
      <point x="412" y="-12"/>
      <point x="496" y="49"/>
      <point x="496" y="202" type="curve" smooth="yes"/>
      <point x="496" y="304"/>
      <point x="458" y="346"/>
      <point x="340" y="381" type="curve" smooth="yes"/>
      <point x="233" y="413" type="line" smooth="yes"/>
      <point x="159" y="435"/>
      <point x="127" y="453"/>
      <point x="127" y="522" type="curve" smooth="yes"/>
      <point x="127" y="610"/>
      <point x="180" y="646"/>
      <point x="276" y="646" type="curve" smooth="yes"/>
      <point x="352" y="646"/>
      <point x="471" y="622"/>
    </contour>
  </outline>
</glyph>
<glyph name="scedilla" format="2">
  <advance width="461"/>
  <unicode hex="015F"/>
  <note>
scedilla
</note>
  <anchor x="239" y="-217" name="bottom"/>
  <anchor x="229" y="500" name="top"/>
  <outline>
    <contour>
      <point x="401" y="431" type="curve"/>
      <point x="403" y="495" type="line"/>
      <point x="403" y="495"/>
      <point x="297" y="514"/>
      <point x="222" y="514" type="curve" smooth="yes"/>
      <point x="136" y="514"/>
      <point x="47" y="478"/>
      <point x="47" y="368" type="curve" smooth="yes"/>
      <point x="47" y="291"/>
      <point x="78" y="259"/>
      <point x="154" y="241" type="curve" smooth="yes"/>
      <point x="270" y="213" type="line" smooth="yes"/>
      <point x="331" y="198"/>
      <point x="344" y="181"/>
      <point x="344" y="143" type="curve" smooth="yes"/>
      <point x="344" y="73"/>
      <point x="300" y="55"/>
      <point x="218" y="55" type="curve" smooth="yes"/>
      <point x="164" y="55"/>
      <point x="50" y="72"/>
      <point x="50" y="72" type="curve"/>
      <point x="46" y="7" type="line"/>
      <point x="46" y="7"/>
      <point x="126" y="-7"/>
      <point x="191" y="-11" type="curve"/>
      <point x="174" y="-93" type="line"/>
      <point x="218" y="-93" type="line" smooth="yes"/>
      <point x="246" y="-93"/>
      <point x="262" y="-102"/>
      <point x="262" y="-127" type="curve" smooth="yes"/>
      <point x="262" y="-155"/>
      <point x="246" y="-165"/>
      <point x="218" y="-165" type="curve" smooth="yes"/>
      <point x="191" y="-165"/>
      <point x="148" y="-162"/>
      <point x="148" y="-162" type="curve"/>
      <point x="145" y="-210" type="line"/>
      <point x="145" y="-210"/>
      <point x="191" y="-217"/>
      <point x="235" y="-217" type="curve" smooth="yes"/>
      <point x="291" y="-217"/>
      <point x="328" y="-190"/>
      <point x="328" y="-127" type="curve" smooth="yes"/>
      <point x="328" y="-63"/>
      <point x="291" y="-49"/>
      <point x="228" y="-49" type="curve"/>
      <point x="236" y="-12" type="line"/>
      <point x="350" y="-9"/>
      <point x="419" y="31"/>
      <point x="419" y="146" type="curve" smooth="yes"/>
      <point x="419" y="224"/>
      <point x="391" y="255"/>
      <point x="302" y="277" type="curve" smooth="yes"/>
      <point x="199" y="303" type="line" smooth="yes"/>
      <point x="135" y="319"/>
      <point x="122" y="335"/>
      <point x="122" y="371" type="curve" smooth="yes"/>
      <point x="122" y="430"/>
      <point x="169" y="447"/>
      <point x="226" y="447" type="curve" smooth="yes"/>
      <point x="290" y="447"/>
      <point x="401" y="431"/>
    </contour>
  </outline>
</glyph>
<glyph name="uni0162" format="2">
  <advance width="526"/>
  <unicode hex="0162"/>
  <note>
uni0162
</note>
  <anchor x="285" y="-217" name="bottom"/>
  <anchor x="263" y="340" name="center"/>
  <anchor x="263" y="700" name="top"/>
  <outline>
    <contour>
      <point x="512" y="700" type="line"/>
      <point x="14" y="700" type="line"/>
      <point x="14" y="630" type="line"/>
      <point x="224" y="630" type="line"/>
      <point x="224" y="0" type="line"/>
      <point x="240" y="0" type="line"/>
      <point x="220" y="-93" type="line"/>
      <point x="264" y="-93" type="line" smooth="yes"/>
      <point x="292" y="-93"/>
      <point x="308" y="-102"/>
      <point x="308" y="-127" type="curve" smooth="yes"/>
      <point x="308" y="-155"/>
      <point x="292" y="-165"/>
      <point x="264" y="-165" type="curve" smooth="yes"/>
      <point x="237" y="-165"/>
      <point x="194" y="-162"/>
      <point x="194" y="-162" type="curve"/>
      <point x="191" y="-210" type="line"/>
      <point x="191" y="-210"/>
      <point x="237" y="-217"/>
      <point x="281" y="-217" type="curve" smooth="yes"/>
      <point x="337" y="-217"/>
      <point x="374" y="-190"/>
      <point x="374" y="-127" type="curve" smooth="yes"/>
      <point x="374" y="-63"/>
      <point x="337" y="-49"/>
      <point x="274" y="-49" type="curve"/>
      <point x="285" y="0" type="line"/>
      <point x="302" y="0" type="line"/>
      <point x="302" y="630" type="line"/>
      <point x="512" y="630" type="line"/>
    </contour>
  </outline>
</glyph>
<glyph name="uni0163" format="2">
  <advance width="360"/>
  <unicode hex="0163"/>
  <note>
uni0163
</note>
  <anchor x="251" y="-217" name="bottom"/>
  <anchor x="134" y="263" name="center"/>
  <anchor x="137" y="653" name="top"/>
  <anchor x="226" y="730" name="topright"/>
  <outline>
    <contour>
      <point x="173" y="171" type="curve" smooth="yes"/>
      <point x="173" y="435" type="line"/>
      <point x="331" y="435" type="line"/>
      <point x="331" y="500" type="line"/>
      <point x="172" y="500" type="line"/>
      <point x="172" y="653" type="line"/>
      <point x="98" y="653" type="line"/>
      <point x="98" y="500" type="line"/>
      <point x="27" y="500" type="line"/>
      <point x="27" y="435" type="line"/>
      <point x="97" y="435" type="line"/>
      <point x="97" y="171" type="line" smooth="yes"/>
      <point x="97" y="43"/>
      <point x="125" y="-2"/>
      <point x="204" y="-10" type="curve"/>
      <point x="186" y="-93" type="line"/>
      <point x="230" y="-93" type="line" smooth="yes"/>
      <point x="258" y="-93"/>
      <point x="274" y="-102"/>
      <point x="274" y="-127" type="curve" smooth="yes"/>
      <point x="274" y="-155"/>
      <point x="258" y="-165"/>
      <point x="230" y="-165" type="curve" smooth="yes"/>
      <point x="203" y="-165"/>
      <point x="160" y="-162"/>
      <point x="160" y="-162" type="curve"/>
      <point x="157" y="-210" type="line"/>
      <point x="157" y="-210"/>
      <point x="203" y="-217"/>
      <point x="247" y="-217" type="curve" smooth="yes"/>
      <point x="303" y="-217"/>
      <point x="340" y="-190"/>
      <point x="340" y="-127" type="curve" smooth="yes"/>
      <point x="340" y="-63"/>
      <point x="303" y="-49"/>
      <point x="240" y="-49" type="curve"/>
      <point x="248" y="-12" type="line"/>
      <point x="285" y="-10"/>
      <point x="338" y="-1"/>
      <point x="338" y="-1" type="curve"/>
      <point x="333" y="61" type="line"/>
      <point x="333" y="61"/>
      <point x="272" y="55"/>
      <point x="244" y="55" type="curve" smooth="yes"/>
      <point x="179" y="55"/>
      <point x="173" y="86"/>
    </contour>
  </outline>
</glyph>
<glyph name="Tcaron" format="2">
  <advance width="526"/>
  <unicode hex="0164"/>
  <note>
Tcaron
</note>
  <anchor x="263" y="0" name="bottom"/>
  <anchor x="263" y="340" name="center"/>
  <anchor x="263" y="920" name="top"/>
  <outline>
    <contour>
      <point x="512" y="700" type="line"/>
      <point x="14" y="700" type="line"/>
      <point x="14" y="630" type="line"/>
      <point x="224" y="630" type="line"/>
      <point x="224" y="0" type="line"/>
      <point x="302" y="0" type="line"/>
      <point x="302" y="630" type="line"/>
      <point x="512" y="630" type="line"/>
    </contour>
    <contour>
      <point x="188" y="915" type="line"/>
      <point x="113" y="915" type="line"/>
      <point x="227" y="776" type="line"/>
      <point x="299" y="776" type="line"/>
      <point x="413" y="915" type="line"/>
      <point x="338" y="915" type="line"/>
      <point x="263" y="829" type="line"/>
    </contour>
  </outline>
</glyph>
<glyph name="tcaron" format="2">
  <advance width="360"/>
  <unicode hex="0165"/>
  <note>
tcaron
</note>
  <anchor x="229" y="0" name="bottom"/>
  <anchor x="134" y="263" name="center"/>
  <anchor x="137" y="653" name="top"/>
  <anchor x="226" y="730" name="topright"/>
  <outline>
    <contour>
      <point x="173" y="171" type="curve" smooth="yes"/>
      <point x="173" y="435" type="line"/>
      <point x="331" y="435" type="line"/>
      <point x="331" y="500" type="line"/>
      <point x="172" y="500" type="line"/>
      <point x="172" y="653" type="line"/>
      <point x="98" y="653" type="line"/>
      <point x="98" y="500" type="line"/>
      <point x="27" y="500" type="line"/>
      <point x="27" y="435" type="line"/>
      <point x="97" y="435" type="line"/>
      <point x="97" y="171" type="line" smooth="yes"/>
      <point x="97" y="27"/>
      <point x="133" y="-12"/>
      <point x="236" y="-12" type="curve" smooth="yes"/>
      <point x="271" y="-12"/>
      <point x="338" y="-1"/>
      <point x="338" y="-1" type="curve"/>
      <point x="333" y="61" type="line"/>
      <point x="333" y="61"/>
      <point x="272" y="55"/>
      <point x="244" y="55" type="curve" smooth="yes"/>
      <point x="179" y="55"/>
      <point x="173" y="86"/>
    </contour>
    <contour>
      <point x="246" y="604" type="curve"/>
      <point x="286" y="586" type="line"/>
      <point x="286" y="586"/>
      <point x="331" y="628"/>
      <point x="331" y="665" type="curve" smooth="yes"/>
      <point x="331" y="690"/>
      <point x="330" y="730"/>
      <point x="330" y="730" type="curve"/>
      <point x="263" y="730" type="line"/>
      <point x="263" y="730"/>
      <point x="266" y="685"/>
      <point x="266" y="674" type="curve" smooth="yes"/>
      <point x="266" y="656"/>
      <point x="246" y="604"/>
    </contour>
  </outline>
</glyph>
<glyph name="Tbar" format="2">
  <advance width="542"/>
  <unicode hex="0166"/>
  <note>
Tbar
</note>
  <anchor x="271" y="0" name="bottom"/>
  <anchor x="271" y="340" name="center"/>
  <anchor x="271" y="700" name="top"/>
  <outline>
    <contour>
      <point x="520" y="700" type="line"/>
      <point x="22" y="700" type="line"/>
      <point x="22" y="630" type="line"/>
      <point x="232" y="630" type="line"/>
      <point x="232" y="375" type="line"/>
      <point x="104" y="375" type="line"/>
      <point x="104" y="305" type="line"/>
      <point x="232" y="305" type="line"/>
      <point x="232" y="0" type="line"/>
      <point x="310" y="0" type="line"/>
      <point x="310" y="305" type="line"/>
      <point x="440" y="305" type="line"/>
      <point x="440" y="375" type="line"/>
      <point x="310" y="375" type="line"/>
      <point x="310" y="630" type="line"/>
      <point x="520" y="630" type="line"/>
    </contour>
  </outline>
</glyph>
<glyph name="tbar" format="2">
  <advance width="373"/>
  <unicode hex="0167"/>
  <note>
tbar
</note>
  <anchor x="236" y="0" name="bottom"/>
  <anchor x="141" y="263" name="center"/>
  <anchor x="144" y="653" name="top"/>
  <anchor x="233" y="730" name="topright"/>
  <outline>
    <contour>
      <point x="180" y="171" type="curve" smooth="yes"/>
      <point x="180" y="230" type="line"/>
      <point x="338" y="230" type="line"/>
      <point x="338" y="295" type="line"/>
      <point x="180" y="295" type="line"/>
      <point x="180" y="435" type="line"/>
      <point x="338" y="435" type="line"/>
      <point x="338" y="500" type="line"/>
      <point x="179" y="500" type="line"/>
      <point x="179" y="653" type="line"/>
      <point x="105" y="653" type="line"/>
      <point x="105" y="500" type="line"/>
      <point x="34" y="500" type="line"/>
      <point x="34" y="435" type="line"/>
      <point x="104" y="435" type="line"/>
      <point x="104" y="295" type="line"/>
      <point x="34" y="295" type="line"/>
      <point x="34" y="230" type="line"/>
      <point x="104" y="230" type="line"/>
      <point x="104" y="171" type="line" smooth="yes"/>
      <point x="104" y="27"/>
      <point x="140" y="-12"/>
      <point x="243" y="-12" type="curve" smooth="yes"/>
      <point x="278" y="-12"/>
      <point x="345" y="-1"/>
      <point x="345" y="-1" type="curve"/>
      <point x="340" y="61" type="line"/>
      <point x="340" y="61"/>
      <point x="279" y="55"/>
      <point x="251" y="55" type="curve" smooth="yes"/>
      <point x="186" y="55"/>
      <point x="180" y="86"/>
    </contour>
  </outline>
</glyph>
<glyph name="Utilde" format="2">
  <advance width="646"/>
  <unicode hex="0168"/>
  <note>
Utilde
</note>
  <anchor x="323" y="0" name="bottom"/>
  <anchor x="407" y="0" name="ogonek"/>
  <anchor x="323" y="899" name="top"/>
  <anchor x="620" y="700" name="topright"/>
  <outline>
    <contour>
      <point x="159" y="206" type="curve" smooth="yes"/>
      <point x="159" y="700" type="line"/>
      <point x="81" y="700" type="line"/>
      <point x="81" y="208" type="line" smooth="yes"/>
      <point x="81" y="49"/>
      <point x="168" y="-12"/>
      <point x="320" y="-12" type="curve" smooth="yes"/>
      <point x="478" y="-12"/>
      <point x="565" y="50"/>
      <point x="565" y="208" type="curve" smooth="yes"/>
      <point x="565" y="700" type="line"/>
      <point x="487" y="700" type="line"/>
      <point x="487" y="206" type="line" smooth="yes"/>
      <point x="487" y="98"/>
      <point x="428" y="57"/>
      <point x="320" y="57" type="curve" smooth="yes"/>
      <point x="218" y="57"/>
      <point x="159" y="98"/>
    </contour>
    <contour>
      <point x="153" y="837" type="curve"/>
      <point x="183" y="799" type="line"/>
      <point x="183" y="799"/>
      <point x="232" y="839"/>
      <point x="256" y="839" type="curve" smooth="yes"/>
      <point x="288" y="839"/>
      <point x="355" y="792"/>
      <point x="395" y="792" type="curve" smooth="yes"/>
      <point x="435" y="792"/>
      <point x="484" y="843"/>
      <point x="494" y="853" type="curve"/>
      <point x="464" y="891" type="line"/>
      <point x="464" y="891"/>
      <point x="416" y="853"/>
      <point x="395" y="853" type="curve" smooth="yes"/>
      <point x="365" y="853"/>
      <point x="296" y="899"/>
      <point x="256" y="899" type="curve" smooth="yes"/>
      <point x="215" y="899"/>
      <point x="153" y="837"/>
    </contour>
  </outline>
</glyph>
<glyph name="Ubreve" format="2">
  <advance width="646"/>
  <unicode hex="016C"/>
  <note>
Ubreve
</note>
  <anchor x="323" y="0" name="bottom"/>
  <anchor x="407" y="0" name="ogonek"/>
  <anchor x="323" y="911" name="top"/>
  <anchor x="620" y="700" name="topright"/>
  <outline>
    <contour>
      <point x="159" y="206" type="curve" smooth="yes"/>
      <point x="159" y="700" type="line"/>
      <point x="81" y="700" type="line"/>
      <point x="81" y="208" type="line" smooth="yes"/>
      <point x="81" y="49"/>
      <point x="168" y="-12"/>
      <point x="320" y="-12" type="curve" smooth="yes"/>
      <point x="478" y="-12"/>
      <point x="565" y="50"/>
      <point x="565" y="208" type="curve" smooth="yes"/>
      <point x="565" y="700" type="line"/>
      <point x="487" y="700" type="line"/>
      <point x="487" y="206" type="line" smooth="yes"/>
      <point x="487" y="98"/>
      <point x="428" y="57"/>
      <point x="320" y="57" type="curve" smooth="yes"/>
      <point x="218" y="57"/>
      <point x="159" y="98"/>
    </contour>
    <contour>
      <point x="236" y="911" type="curve"/>
      <point x="175" y="911" type="line"/>
      <point x="179" y="834"/>
      <point x="233" y="771"/>
      <point x="323" y="771" type="curve" smooth="yes"/>
      <point x="413" y="771"/>
      <point x="467" y="834"/>
      <point x="471" y="911" type="curve"/>
      <point x="410" y="911" type="line"/>
      <point x="408" y="862"/>
      <point x="376" y="827"/>
      <point x="323" y="827" type="curve" smooth="yes"/>
      <point x="270" y="827"/>
      <point x="238" y="862"/>
    </contour>
  </outline>
</glyph>
<glyph name="Uring" format="2">
  <advance width="646"/>
  <unicode hex="016E"/>
  <note>
Uring
</note>
  <anchor x="323" y="0" name="bottom"/>
  <anchor x="407" y="0" name="ogonek"/>
  <anchor x="323" y="949" name="top"/>
  <anchor x="620" y="700" name="topright"/>
  <outline>
    <contour>
      <point x="159" y="206" type="curve" smooth="yes"/>
      <point x="159" y="700" type="line"/>
      <point x="81" y="700" type="line"/>
      <point x="81" y="208" type="line" smooth="yes"/>
      <point x="81" y="49"/>
      <point x="168" y="-12"/>
      <point x="320" y="-12" type="curve" smooth="yes"/>
      <point x="478" y="-12"/>
      <point x="565" y="50"/>
      <point x="565" y="208" type="curve" smooth="yes"/>
      <point x="565" y="700" type="line"/>
      <point x="487" y="700" type="line"/>
      <point x="487" y="206" type="line" smooth="yes"/>
      <point x="487" y="98"/>
      <point x="428" y="57"/>
      <point x="320" y="57" type="curve" smooth="yes"/>
      <point x="218" y="57"/>
      <point x="159" y="98"/>
    </contour>
    <contour>
      <point x="218" y="848" type="curve" smooth="yes"/>
      <point x="218" y="789"/>
      <point x="264" y="745"/>
      <point x="323" y="745" type="curve" smooth="yes"/>
      <point x="381" y="745"/>
      <point x="428" y="789"/>
      <point x="428" y="848" type="curve" smooth="yes"/>
      <point x="428" y="906"/>
      <point x="381" y="950"/>
      <point x="323" y="950" type="curve" smooth="yes"/>
      <point x="264" y="950"/>
      <point x="218" y="906"/>
    </contour>
    <contour>
      <point x="271" y="848" type="curve" smooth="yes"/>
      <point x="271" y="879"/>
      <point x="294" y="901"/>
      <point x="323" y="901" type="curve" smooth="yes"/>
      <point x="352" y="901"/>
      <point x="375" y="879"/>
      <point x="375" y="848" type="curve" smooth="yes"/>
      <point x="375" y="816"/>
      <point x="352" y="794"/>
      <point x="323" y="794" type="curve" smooth="yes"/>
      <point x="294" y="794"/>
      <point x="271" y="816"/>
    </contour>
  </outline>
</glyph>
<glyph name="uring" format="2">
  <advance width="535"/>
  <unicode hex="016F"/>
  <note>
uring
</note>
  <anchor x="268" y="0" name="bottom"/>
  <anchor x="456" y="0" name="ogonek"/>
  <anchor x="268" y="749" name="top"/>
  <anchor x="512" y="500" name="topright"/>
  <outline>
    <contour>
      <point x="462" y="0" type="line"/>
      <point x="462" y="500" type="line"/>
      <point x="386" y="500" type="line"/>
      <point x="386" y="94" type="line"/>
      <point x="386" y="94"/>
      <point x="323" y="55"/>
      <point x="249" y="55" type="curve" smooth="yes"/>
      <point x="156" y="55"/>
      <point x="144" y="100"/>
      <point x="144" y="238" type="curve" smooth="yes"/>
      <point x="144" y="500" type="line"/>
      <point x="68" y="500" type="line"/>
      <point x="68" y="237" type="line" smooth="yes"/>
      <point x="68" y="53"/>
      <point x="98" y="-12"/>
      <point x="238" y="-12" type="curve" smooth="yes"/>
      <point x="311" y="-12"/>
      <point x="386" y="35"/>
      <point x="386" y="35" type="curve"/>
      <point x="386" y="0" type="line"/>
    </contour>
    <contour>
      <point x="163" y="648" type="curve" smooth="yes"/>
      <point x="163" y="589"/>
      <point x="209" y="545"/>
      <point x="268" y="545" type="curve" smooth="yes"/>
      <point x="326" y="545"/>
      <point x="373" y="589"/>
      <point x="373" y="648" type="curve" smooth="yes"/>
      <point x="373" y="706"/>
      <point x="326" y="750"/>
      <point x="268" y="750" type="curve" smooth="yes"/>
      <point x="209" y="750"/>
      <point x="163" y="706"/>
    </contour>
    <contour>
      <point x="213" y="648" type="curve" smooth="yes"/>
      <point x="213" y="681"/>
      <point x="237" y="704"/>
      <point x="268" y="704" type="curve" smooth="yes"/>
      <point x="299" y="704"/>
      <point x="323" y="681"/>
      <point x="323" y="648" type="curve" smooth="yes"/>
      <point x="323" y="614"/>
      <point x="299" y="591"/>
      <point x="268" y="591" type="curve" smooth="yes"/>
      <point x="237" y="591"/>
      <point x="213" y="614"/>
    </contour>
  </outline>
</glyph>
<glyph name="uhungarumlaut" format="2">
  <advance width="535"/>
  <unicode hex="0171"/>
  <note>
uhungarumlaut
</note>
  <anchor x="268" y="0" name="bottom"/>
  <anchor x="456" y="0" name="ogonek"/>
  <anchor x="268" y="740" name="top"/>
  <anchor x="512" y="500" name="topright"/>
  <outline>
    <contour>
      <point x="462" y="0" type="line"/>
      <point x="462" y="500" type="line"/>
      <point x="386" y="500" type="line"/>
      <point x="386" y="94" type="line"/>
      <point x="386" y="94"/>
      <point x="323" y="55"/>
      <point x="249" y="55" type="curve" smooth="yes"/>
      <point x="156" y="55"/>
      <point x="144" y="100"/>
      <point x="144" y="238" type="curve" smooth="yes"/>
      <point x="144" y="500" type="line"/>
      <point x="68" y="500" type="line"/>
      <point x="68" y="237" type="line" smooth="yes"/>
      <point x="68" y="53"/>
      <point x="98" y="-12"/>
      <point x="238" y="-12" type="curve" smooth="yes"/>
      <point x="311" y="-12"/>
      <point x="386" y="35"/>
      <point x="386" y="35" type="curve"/>
      <point x="386" y="0" type="line"/>
    </contour>
    <contour>
      <point x="231" y="740" type="line"/>
      <point x="70" y="638" type="line"/>
      <point x="94" y="591" type="line"/>
      <point x="265" y="676" type="line"/>
    </contour>
    <contour>
      <point x="431" y="740" type="line"/>
      <point x="270" y="638" type="line"/>
      <point x="294" y="591" type="line"/>
      <point x="465" y="676" type="line"/>
    </contour>
  </outline>
</glyph>
<glyph name="Uogonek" format="2">
  <advance width="646"/>
  <unicode hex="0172"/>
  <note>
Uogonek
</note>
  <anchor x="323" y="0" name="bottom"/>
  <anchor x="407" y="0" name="ogonek"/>
  <anchor x="323" y="700" name="top"/>
  <anchor x="620" y="700" name="topright"/>
  <outline>
    <contour>
      <point x="159" y="206" type="curve" smooth="yes"/>
      <point x="159" y="700" type="line"/>
      <point x="81" y="700" type="line"/>
      <point x="81" y="208" type="line" smooth="yes"/>
      <point x="81" y="49"/>
      <point x="168" y="-12"/>
      <point x="320" y="-12" type="curve" smooth="yes"/>
      <point x="324" y="-12" type="line"/>
      <point x="300" y="-37"/>
      <point x="263" y="-80"/>
      <point x="263" y="-119" type="curve" smooth="yes"/>
      <point x="263" y="-173"/>
      <point x="303" y="-206"/>
      <point x="355" y="-206" type="curve" smooth="yes"/>
      <point x="389" y="-206"/>
      <point x="434" y="-197"/>
      <point x="434" y="-197" type="curve"/>
      <point x="427" y="-139" type="line"/>
      <point x="427" y="-139"/>
      <point x="391" y="-145"/>
      <point x="377" y="-145" type="curve" smooth="yes"/>
      <point x="353" y="-145"/>
      <point x="336" y="-127"/>
      <point x="336" y="-102" type="curve" smooth="yes"/>
      <point x="336" y="-74"/>
      <point x="386" y="-22"/>
      <point x="402" y="-5" type="curve"/>
      <point x="508" y="15"/>
      <point x="565" y="80"/>
      <point x="565" y="208" type="curve" smooth="yes"/>
      <point x="565" y="700" type="line"/>
      <point x="487" y="700" type="line"/>
      <point x="487" y="206" type="line" smooth="yes"/>
      <point x="487" y="98"/>
      <point x="428" y="57"/>
      <point x="320" y="57" type="curve" smooth="yes"/>
      <point x="218" y="57"/>
      <point x="159" y="98"/>
    </contour>
  </outline>
</glyph>
<glyph name="uogonek" format="2">
  <advance width="535"/>
  <unicode hex="0173"/>
  <note>
uogonek
</note>
  <anchor x="268" y="0" name="bottom"/>
  <anchor x="456" y="0" name="ogonek"/>
  <anchor x="268" y="500" name="top"/>
  <anchor x="512" y="500" name="topright"/>
  <outline>
    <contour>
      <point x="462" y="0" type="line"/>
      <point x="462" y="500" type="line"/>
      <point x="386" y="500" type="line"/>
      <point x="386" y="94" type="line"/>
      <point x="386" y="94"/>
      <point x="323" y="55"/>
      <point x="249" y="55" type="curve" smooth="yes"/>
      <point x="156" y="55"/>
      <point x="144" y="100"/>
      <point x="144" y="238" type="curve" smooth="yes"/>
      <point x="144" y="500" type="line"/>
      <point x="68" y="500" type="line"/>
      <point x="68" y="237" type="line" smooth="yes"/>
      <point x="68" y="53"/>
      <point x="98" y="-12"/>
      <point x="238" y="-12" type="curve" smooth="yes"/>
      <point x="311" y="-12"/>
      <point x="386" y="35"/>
      <point x="386" y="35" type="curve"/>
      <point x="386" y="0" type="line"/>
      <point x="365" y="-19"/>
      <point x="312" y="-72"/>
      <point x="312" y="-119" type="curve" smooth="yes"/>
      <point x="312" y="-173"/>
      <point x="352" y="-206"/>
      <point x="404" y="-206" type="curve" smooth="yes"/>
      <point x="438" y="-206"/>
      <point x="483" y="-197"/>
      <point x="483" y="-197" type="curve"/>
      <point x="476" y="-139" type="line"/>
      <point x="476" y="-139"/>
      <point x="440" y="-145"/>
      <point x="426" y="-145" type="curve" smooth="yes"/>
      <point x="402" y="-145"/>
      <point x="385" y="-127"/>
      <point x="385" y="-102" type="curve" smooth="yes"/>
      <point x="385" y="-69"/>
      <point x="456" y="0"/>
      <point x="456" y="0" type="curve"/>
    </contour>
  </outline>
</glyph>
<glyph name="wcircumflex" format="2">
  <advance width="763"/>
  <unicode hex="0175"/>
  <note>
wcircumflex
</note>
  <anchor x="380" y="0" name="bottom"/>
  <anchor x="380" y="740" name="top"/>
  <outline>
    <contour>
      <point x="204" y="65" type="line"/>
      <point x="107" y="500" type="line"/>
      <point x="32" y="500" type="line"/>
      <point x="147" y="0" type="line"/>
      <point x="281" y="0" type="line"/>
      <point x="382" y="391" type="line"/>
      <point x="483" y="0" type="line"/>
      <point x="616" y="0" type="line"/>
      <point x="732" y="500" type="line"/>
      <point x="657" y="500" type="line"/>
      <point x="560" y="65" type="line"/>
      <point x="535" y="65" type="line"/>
      <point x="421" y="490" type="line"/>
      <point x="343" y="490" type="line"/>
      <point x="229" y="65" type="line"/>
    </contour>
    <contour>
      <point x="344" y="735" type="line"/>
      <point x="230" y="596" type="line"/>
      <point x="305" y="596" type="line"/>
      <point x="380" y="682" type="line"/>
      <point x="455" y="596" type="line"/>
      <point x="530" y="596" type="line"/>
      <point x="416" y="735" type="line"/>
    </contour>
  </outline>
</glyph>
<glyph name="Ycircumflex" format="2">
  <advance width="552"/>
  <unicode hex="0176"/>
  <note>
Ycircumflex
</note>
  <anchor x="277" y="0" name="bottom"/>
  <anchor x="277" y="915" name="top"/>
  <outline>
    <contour>
      <point x="237" y="294" type="line"/>
      <point x="237" y="0" type="line"/>
      <point x="315" y="0" type="line"/>
      <point x="315" y="294" type="line"/>
      <point x="535" y="700" type="line"/>
      <point x="451" y="700" type="line"/>
      <point x="277" y="367" type="line"/>
      <point x="101" y="700" type="line"/>
      <point x="17" y="700" type="line"/>
    </contour>
    <contour>
      <point x="241" y="915" type="line"/>
      <point x="127" y="776" type="line"/>
      <point x="202" y="776" type="line"/>
      <point x="277" y="864" type="line"/>
      <point x="352" y="776" type="line"/>
      <point x="427" y="776" type="line"/>
      <point x="313" y="915" type="line"/>
    </contour>
  </outline>
</glyph>
<glyph name="ycircumflex" format="2">
  <advance width="485"/>
  <unicode hex="0177"/>
  <note>
ycircumflex
</note>
  <anchor x="239" y="0" name="bottom"/>
  <anchor x="239" y="740" name="top"/>
  <outline>
    <contour>
      <point x="232" y="65" type="line"/>
      <point x="99" y="500" type="line"/>
      <point x="24" y="500" type="line"/>
      <point x="174" y="0" type="line"/>
      <point x="240" y="0" type="line"/>
      <point x="174" y="-230" type="line"/>
      <point x="249" y="-230" type="line"/>
      <point x="458" y="500" type="line"/>
      <point x="383" y="500" type="line"/>
      <point x="257" y="65" type="line"/>
    </contour>
    <contour>
      <point x="203" y="735" type="line"/>
      <point x="89" y="596" type="line"/>
      <point x="164" y="596" type="line"/>
      <point x="239" y="682" type="line"/>
      <point x="314" y="596" type="line"/>
      <point x="389" y="596" type="line"/>
      <point x="275" y="735" type="line"/>
    </contour>
  </outline>
</glyph>
<glyph name="Ydieresis" format="2">
  <advance width="552"/>
  <unicode hex="0178"/>
  <note>
Ydieresis
</note>
  <anchor x="277" y="0" name="bottom"/>
  <anchor x="277" y="891" name="top"/>
  <outline>
    <contour>
      <point x="237" y="294" type="line"/>
      <point x="237" y="0" type="line"/>
      <point x="315" y="0" type="line"/>
      <point x="315" y="294" type="line"/>
      <point x="535" y="700" type="line"/>
      <point x="451" y="700" type="line"/>
      <point x="277" y="367" type="line"/>
      <point x="101" y="700" type="line"/>
      <point x="17" y="700" type="line"/>
    </contour>
    <contour>
      <point x="140" y="891" type="line"/>
      <point x="140" y="804" type="line"/>
      <point x="212" y="804" type="line"/>
      <point x="212" y="891" type="line"/>
    </contour>
    <contour>
      <point x="340" y="891" type="line"/>
      <point x="340" y="804" type="line"/>
      <point x="413" y="804" type="line"/>
      <point x="413" y="891" type="line"/>
    </contour>
  </outline>
</glyph>
<glyph name="Zacute" format="2">
  <advance width="544"/>
  <unicode hex="0179"/>
  <note>
Zacute
</note>
  <anchor x="273" y="0" name="bottom"/>
  <anchor x="215" y="350" name="center"/>
  <anchor x="273" y="920" name="top"/>
  <outline>
    <contour>
      <point x="497" y="700" type="line"/>
      <point x="47" y="700" type="line"/>
      <point x="47" y="632" type="line"/>
      <point x="419" y="632" type="line"/>
      <point x="419" y="607" type="line"/>
      <point x="47" y="107" type="line"/>
      <point x="47" y="0" type="line"/>
      <point x="497" y="0" type="line"/>
      <point x="497" y="70" type="line"/>
      <point x="125" y="70" type="line"/>
      <point x="125" y="95" type="line"/>
      <point x="497" y="595" type="line"/>
    </contour>
    <contour>
      <point x="368" y="920" type="line"/>
      <point x="152" y="822" type="line"/>
      <point x="173" y="771" type="line"/>
      <point x="394" y="856" type="line"/>
    </contour>
  </outline>
</glyph>
<glyph name="zacute" format="2">
  <advance width="459"/>
  <unicode hex="017A"/>
  <note>
zacute
</note>
  <anchor x="227" y="0" name="bottom"/>
  <anchor x="227" y="250" name="center"/>
  <anchor x="237" y="740" name="top"/>
  <outline>
    <contour>
      <point x="415" y="500" type="line"/>
      <point x="44" y="500" type="line"/>
      <point x="44" y="433" type="line"/>
      <point x="324" y="433" type="line"/>
      <point x="324" y="413" type="line"/>
      <point x="44" y="82" type="line"/>
      <point x="44" y="0" type="line"/>
      <point x="415" y="0" type="line"/>
      <point x="415" y="67" type="line"/>
      <point x="135" y="67" type="line"/>
      <point x="135" y="87" type="line"/>
      <point x="415" y="417" type="line"/>
    </contour>
    <contour>
      <point x="332" y="740" type="line"/>
      <point x="116" y="642" type="line"/>
      <point x="137" y="591" type="line"/>
      <point x="358" y="676" type="line"/>
    </contour>
  </outline>
</glyph>
<glyph name="Zdotaccent" format="2">
  <advance width="544"/>
  <unicode hex="017B"/>
  <note>
Zdotaccent
</note>
  <anchor x="273" y="0" name="bottom"/>
  <anchor x="215" y="350" name="center"/>
  <anchor x="273" y="900" name="top"/>
  <outline>
    <contour>
      <point x="497" y="700" type="line"/>
      <point x="47" y="700" type="line"/>
      <point x="47" y="632" type="line"/>
      <point x="419" y="632" type="line"/>
      <point x="419" y="607" type="line"/>
      <point x="47" y="107" type="line"/>
      <point x="47" y="0" type="line"/>
      <point x="497" y="0" type="line"/>
      <point x="497" y="70" type="line"/>
      <point x="125" y="70" type="line"/>
      <point x="125" y="95" type="line"/>
      <point x="497" y="595" type="line"/>
    </contour>
    <contour>
      <point x="235" y="900" type="line"/>
      <point x="235" y="804" type="line"/>
      <point x="310" y="804" type="line"/>
      <point x="310" y="900" type="line"/>
    </contour>
  </outline>
</glyph>
<glyph name="zdotaccent" format="2">
  <advance width="459"/>
  <unicode hex="017C"/>
  <note>
zdotaccent
</note>
  <anchor x="227" y="0" name="bottom"/>
  <anchor x="227" y="250" name="center"/>
  <anchor x="227" y="720" name="top"/>
  <outline>
    <contour>
      <point x="415" y="500" type="line"/>
      <point x="44" y="500" type="line"/>
      <point x="44" y="433" type="line"/>
      <point x="324" y="433" type="line"/>
      <point x="324" y="413" type="line"/>
      <point x="44" y="82" type="line"/>
      <point x="44" y="0" type="line"/>
      <point x="415" y="0" type="line"/>
      <point x="415" y="67" type="line"/>
      <point x="135" y="67" type="line"/>
      <point x="135" y="87" type="line"/>
      <point x="415" y="417" type="line"/>
    </contour>
    <contour>
      <point x="189" y="720" type="line"/>
      <point x="189" y="624" type="line"/>
      <point x="264" y="624" type="line"/>
      <point x="264" y="720" type="line"/>
    </contour>
  </outline>
</glyph>
<glyph name="Zcaron" format="2">
  <advance width="544"/>
  <unicode hex="017D"/>
  <note>
Zcaron
</note>
  <anchor x="273" y="0" name="bottom"/>
  <anchor x="215" y="350" name="center"/>
  <anchor x="273" y="920" name="top"/>
  <outline>
    <contour>
      <point x="497" y="700" type="line"/>
      <point x="47" y="700" type="line"/>
      <point x="47" y="632" type="line"/>
      <point x="419" y="632" type="line"/>
      <point x="419" y="607" type="line"/>
      <point x="47" y="107" type="line"/>
      <point x="47" y="0" type="line"/>
      <point x="497" y="0" type="line"/>
      <point x="497" y="70" type="line"/>
      <point x="125" y="70" type="line"/>
      <point x="125" y="95" type="line"/>
      <point x="497" y="595" type="line"/>
    </contour>
    <contour>
      <point x="198" y="915" type="line"/>
      <point x="123" y="915" type="line"/>
      <point x="237" y="776" type="line"/>
      <point x="309" y="776" type="line"/>
      <point x="423" y="915" type="line"/>
      <point x="348" y="915" type="line"/>
      <point x="273" y="829" type="line"/>
    </contour>
  </outline>
</glyph>
<glyph name="zcaron" format="2">
  <advance width="459"/>
  <unicode hex="017E"/>
  <note>
zcaron
</note>
  <anchor x="227" y="0" name="bottom"/>
  <anchor x="227" y="250" name="center"/>
  <anchor x="227" y="740" name="top"/>
  <outline>
    <contour>
      <point x="415" y="500" type="line"/>
      <point x="44" y="500" type="line"/>
      <point x="44" y="433" type="line"/>
      <point x="324" y="433" type="line"/>
      <point x="324" y="413" type="line"/>
      <point x="44" y="82" type="line"/>
      <point x="44" y="0" type="line"/>
      <point x="415" y="0" type="line"/>
      <point x="415" y="67" type="line"/>
      <point x="135" y="67" type="line"/>
      <point x="135" y="87" type="line"/>
      <point x="415" y="417" type="line"/>
    </contour>
    <contour>
      <point x="152" y="735" type="line"/>
      <point x="77" y="735" type="line"/>
      <point x="191" y="596" type="line"/>
      <point x="263" y="596" type="line"/>
      <point x="377" y="735" type="line"/>
      <point x="302" y="735" type="line"/>
      <point x="227" y="649" type="line"/>
    </contour>
  </outline>
</glyph>
<glyph name="uni0197" format="2">
  <advance width="270"/>
  <unicode hex="0197"/>
  <note>
uni0197
</note>
  <anchor x="135" y="0" name="bottom"/>
  <anchor x="135" y="353" name="center"/>
  <anchor x="174" y="0" name="ogonek"/>
  <anchor x="135" y="700" name="top"/>
  <outline>
    <contour>
      <point x="174" y="700" type="line"/>
      <point x="96" y="700" type="line"/>
      <point x="96" y="388" type="line"/>
      <point x="17" y="388" type="line"/>
      <point x="17" y="318" type="line"/>
      <point x="96" y="318" type="line"/>
      <point x="96" y="0" type="line"/>
      <point x="174" y="0" type="line"/>
      <point x="174" y="318" type="line"/>
      <point x="253" y="318" type="line"/>
      <point x="253" y="388" type="line"/>
      <point x="174" y="388" type="line"/>
    </contour>
  </outline>
</glyph>
<glyph name="uni019D" format="2">
  <advance width="679"/>
  <unicode hex="019D"/>
  <note>
uni019D
</note>
  <anchor x="340" y="0" name="bottom"/>
  <anchor x="364" y="700" name="top"/>
  <outline>
    <contour>
      <point x="163" y="-22" type="curve" smooth="yes"/>
      <point x="163" y="626" type="line"/>
      <point x="193" y="626" type="line"/>
      <point x="435" y="0" type="line"/>
      <point x="594" y="0" type="line"/>
      <point x="594" y="700" type="line"/>
      <point x="516" y="700" type="line"/>
      <point x="516" y="74" type="line"/>
      <point x="486" y="74" type="line"/>
      <point x="244" y="700" type="line"/>
      <point x="85" y="700" type="line"/>
      <point x="85" y="-19" type="line" smooth="yes"/>
      <point x="85" y="-113"/>
      <point x="63" y="-119"/>
      <point x="-28" y="-119" type="curve"/>
      <point x="-28" y="-189" type="line"/>
      <point x="104" y="-189"/>
      <point x="163" y="-172"/>
    </contour>
  </outline>
</glyph>
<glyph name="uni01CD" format="2">
  <advance width="602"/>
  <unicode hex="01CD"/>
  <note>
uni01CD
</note>
  <anchor x="298" y="0" name="bottom"/>
  <anchor x="578" y="0" name="ogonek"/>
  <anchor x="298" y="920" name="top"/>
  <outline>
    <contour>
      <point x="283" y="626" type="line"/>
      <point x="313" y="626" type="line"/>
      <point x="423" y="255" type="line"/>
      <point x="173" y="255" type="line"/>
    </contour>
    <contour>
      <point x="232" y="700" type="line"/>
      <point x="24" y="0" type="line"/>
      <point x="98" y="0" type="line"/>
      <point x="153" y="187" type="line"/>
      <point x="443" y="187" type="line"/>
      <point x="498" y="0" type="line"/>
      <point x="578" y="0" type="line"/>
      <point x="370" y="700" type="line"/>
    </contour>
    <contour>
      <point x="223" y="915" type="line"/>
      <point x="148" y="915" type="line"/>
      <point x="262" y="776" type="line"/>
      <point x="334" y="776" type="line"/>
      <point x="448" y="915" type="line"/>
      <point x="373" y="915" type="line"/>
      <point x="298" y="829" type="line"/>
    </contour>
  </outline>
</glyph>
<glyph name="uni01CF" format="2">
  <advance width="248"/>
  <unicode hex="01CF"/>
  <note>
uni01CF
</note>
  <anchor x="124" y="0" name="bottom"/>
  <anchor x="124" y="353" name="center"/>
  <anchor x="163" y="0" name="ogonek"/>
  <anchor x="124" y="920" name="top"/>
  <outline>
    <contour>
      <point x="163" y="700" type="line"/>
      <point x="85" y="700" type="line"/>
      <point x="85" y="0" type="line"/>
      <point x="163" y="0" type="line"/>
    </contour>
    <contour>
      <point x="49" y="915" type="line"/>
      <point x="-26" y="915" type="line"/>
      <point x="88" y="776" type="line"/>
      <point x="160" y="776" type="line"/>
      <point x="274" y="915" type="line"/>
      <point x="199" y="915" type="line"/>
      <point x="124" y="829" type="line"/>
    </contour>
  </outline>
</glyph>
<glyph name="uni01D0" format="2">
  <advance width="222"/>
  <unicode hex="01D0"/>
  <note>
uni01D0
</note>
  <anchor x="111" y="0" name="bottom"/>
  <anchor x="149" y="0" name="ogonek"/>
  <anchor x="111" y="740" name="top"/>
  <outline>
    <contour>
      <point x="149" y="500" type="line"/>
      <point x="73" y="500" type="line"/>
      <point x="73" y="0" type="line"/>
      <point x="149" y="0" type="line"/>
    </contour>
    <contour>
      <point x="36" y="735" type="line"/>
      <point x="-39" y="735" type="line"/>
      <point x="75" y="596" type="line"/>
      <point x="147" y="596" type="line"/>
      <point x="261" y="735" type="line"/>
      <point x="186" y="735" type="line"/>
      <point x="111" y="649" type="line"/>
    </contour>
  </outline>
</glyph>
<glyph name="uni01E8" format="2">
  <advance width="567"/>
  <unicode hex="01E8"/>
  <note>
uni01E8
</note>
  <anchor x="301" y="0" name="bottom"/>
  <anchor x="291" y="920" name="top"/>
  <outline>
    <contour>
      <point x="163" y="308" type="line"/>
      <point x="277" y="312" type="line"/>
      <point x="461" y="0" type="line"/>
      <point x="552" y="0" type="line"/>
      <point x="343" y="350" type="line"/>
      <point x="541" y="700" type="line"/>
      <point x="453" y="700" type="line"/>
      <point x="276" y="380" type="line"/>
      <point x="163" y="376" type="line"/>
      <point x="163" y="700" type="line"/>
      <point x="85" y="700" type="line"/>
      <point x="85" y="0" type="line"/>
      <point x="163" y="0" type="line"/>
    </contour>
    <contour>
      <point x="216" y="915" type="line"/>
      <point x="141" y="915" type="line"/>
      <point x="255" y="776" type="line"/>
      <point x="327" y="776" type="line"/>
      <point x="441" y="915" type="line"/>
      <point x="366" y="915" type="line"/>
      <point x="291" y="829" type="line"/>
    </contour>
  </outline>
</glyph>
<glyph name="uni01E9" format="2">
  <advance width="475"/>
  <unicode hex="01E9"/>
  <note>
uni01E9
</note>
  <anchor x="256" y="0" name="bottom"/>
  <anchor x="112" y="950" name="top"/>
  <outline>
    <contour>
      <point x="73" y="730" type="line"/>
      <point x="73" y="0" type="line"/>
      <point x="149" y="0" type="line"/>
      <point x="149" y="240" type="line"/>
      <point x="228" y="243" type="line"/>
      <point x="377" y="0" type="line"/>
      <point x="462" y="0" type="line"/>
      <point x="292" y="281" type="line"/>
      <point x="455" y="500" type="line"/>
      <point x="370" y="500" type="line"/>
      <point x="227" y="309" type="line"/>
      <point x="149" y="305" type="line"/>
      <point x="149" y="730" type="line"/>
    </contour>
    <contour>
      <point x="37" y="945" type="line"/>
      <point x="-38" y="945" type="line"/>
      <point x="76" y="806" type="line"/>
      <point x="148" y="806" type="line"/>
      <point x="262" y="945" type="line"/>
      <point x="187" y="945" type="line"/>
      <point x="112" y="859" type="line"/>
    </contour>
  </outline>
</glyph>
<glyph name="uni01EA" format="2">
  <advance width="661"/>
  <unicode hex="01EA"/>
  <note>
uni01EA
</note>
  <anchor x="331" y="0" name="bottom"/>
  <anchor x="331" y="350" name="center"/>
  <anchor x="396" y="0" name="ogonek"/>
  <anchor x="331" y="700" name="top"/>
  <anchor x="642" y="700" name="topright"/>
  <outline>
    <contour>
      <point x="330" y="57" type="curve" smooth="yes"/>
      <point x="170" y="57"/>
      <point x="137" y="156"/>
      <point x="137" y="345" type="curve" smooth="yes"/>
      <point x="137" y="539"/>
      <point x="171" y="645"/>
      <point x="330" y="645" type="curve" smooth="yes"/>
      <point x="488" y="645"/>
      <point x="524" y="538"/>
      <point x="524" y="345" type="curve" smooth="yes"/>
      <point x="524" y="150"/>
      <point x="491" y="57"/>
    </contour>
    <contour>
      <point x="57" y="345" type="curve" smooth="yes"/>
      <point x="57" y="119"/>
      <point x="112" y="-5"/>
      <point x="314" y="-12" type="curve"/>
      <point x="289" y="-36"/>
      <point x="252" y="-80"/>
      <point x="252" y="-119" type="curve" smooth="yes"/>
      <point x="252" y="-173"/>
      <point x="292" y="-206"/>
      <point x="344" y="-206" type="curve" smooth="yes"/>
      <point x="378" y="-206"/>
      <point x="423" y="-197"/>
      <point x="423" y="-197" type="curve"/>
      <point x="416" y="-139" type="line"/>
      <point x="416" y="-139"/>
      <point x="380" y="-145"/>
      <point x="366" y="-145" type="curve" smooth="yes"/>
      <point x="342" y="-145"/>
      <point x="325" y="-127"/>
      <point x="325" y="-102" type="curve" smooth="yes"/>
      <point x="325" y="-76"/>
      <point x="368" y="-28"/>
      <point x="387" y="-9" type="curve"/>
      <point x="556" y="12"/>
      <point x="604" y="130"/>
      <point x="604" y="345" type="curve" smooth="yes"/>
      <point x="604" y="581"/>
      <point x="544" y="714"/>
      <point x="330" y="714" type="curve" smooth="yes"/>
      <point x="116" y="714"/>
      <point x="57" y="579"/>
    </contour>
  </outline>
</glyph>
<glyph name="uni01EB" format="2">
  <advance width="530"/>
  <unicode hex="01EB"/>
  <note>
uni01EB
</note>
  <anchor x="265" y="0" name="bottom"/>
  <anchor x="265" y="250" name="center"/>
  <anchor x="334" y="0" name="ogonek"/>
  <anchor x="265" y="500" name="top"/>
  <anchor x="508" y="500" name="topright"/>
  <outline>
    <contour>
      <point x="265" y="514" type="curve" smooth="yes"/>
      <point x="107" y="514"/>
      <point x="50" y="432"/>
      <point x="50" y="256" type="curve" smooth="yes"/>
      <point x="50" y="77"/>
      <point x="94" y="-7"/>
      <point x="251" y="-12" type="curve"/>
      <point x="227" y="-36"/>
      <point x="190" y="-80"/>
      <point x="190" y="-119" type="curve" smooth="yes"/>
      <point x="190" y="-173"/>
      <point x="230" y="-206"/>
      <point x="282" y="-206" type="curve" smooth="yes"/>
      <point x="316" y="-206"/>
      <point x="361" y="-197"/>
      <point x="361" y="-197" type="curve"/>
      <point x="354" y="-139" type="line"/>
      <point x="354" y="-139"/>
      <point x="318" y="-145"/>
      <point x="304" y="-145" type="curve" smooth="yes"/>
      <point x="280" y="-145"/>
      <point x="263" y="-127"/>
      <point x="263" y="-102" type="curve" smooth="yes"/>
      <point x="263" y="-76"/>
      <point x="308" y="-26"/>
      <point x="327" y="-7" type="curve"/>
      <point x="446" y="12"/>
      <point x="480" y="97"/>
      <point x="480" y="256" type="curve" smooth="yes"/>
      <point x="480" y="432"/>
      <point x="424" y="514"/>
    </contour>
    <contour>
      <point x="128" y="256" type="curve" smooth="yes"/>
      <point x="128" y="399"/>
      <point x="159" y="449"/>
      <point x="265" y="449" type="curve" smooth="yes"/>
      <point x="372" y="449"/>
      <point x="402" y="399"/>
      <point x="402" y="256" type="curve" smooth="yes"/>
      <point x="402" y="112"/>
      <point x="384" y="53"/>
      <point x="265" y="53" type="curve" smooth="yes"/>
      <point x="147" y="53"/>
      <point x="128" y="112"/>
    </contour>
  </outline>
</glyph>
<glyph name="uni01F8" format="2">
  <advance width="679"/>
  <unicode hex="01F8"/>
  <note>
uni01F8
</note>
  <anchor x="340" y="0" name="bottom"/>
  <anchor x="364" y="920" name="top"/>
  <outline>
    <contour>
      <point x="244" y="700" type="line"/>
      <point x="85" y="700" type="line"/>
      <point x="85" y="0" type="line"/>
      <point x="163" y="0" type="line"/>
      <point x="163" y="626" type="line"/>
      <point x="193" y="626" type="line"/>
      <point x="435" y="0" type="line"/>
      <point x="594" y="0" type="line"/>
      <point x="594" y="700" type="line"/>
      <point x="516" y="700" type="line"/>
      <point x="516" y="74" type="line"/>
      <point x="486" y="74" type="line"/>
    </contour>
    <contour>
      <point x="269" y="920" type="line"/>
      <point x="243" y="856" type="line"/>
      <point x="464" y="771" type="line"/>
      <point x="485" y="822" type="line"/>
    </contour>
  </outline>
</glyph>
<glyph name="uni01F9" format="2">
  <advance width="542"/>
  <unicode hex="01F9"/>
  <note>
uni01F9
</note>
  <anchor x="277" y="0" name="bottom"/>
  <anchor x="267" y="740" name="top"/>
  <outline>
    <contour>
      <point x="73" y="500" type="line"/>
      <point x="73" y="0" type="line"/>
      <point x="149" y="0" type="line"/>
      <point x="149" y="406" type="line"/>
      <point x="149" y="406"/>
      <point x="218" y="447"/>
      <point x="290" y="447" type="curve" smooth="yes"/>
      <point x="383" y="447"/>
      <point x="398" y="398"/>
      <point x="398" y="266" type="curve" smooth="yes"/>
      <point x="398" y="0" type="line"/>
      <point x="474" y="0" type="line"/>
      <point x="474" y="268" type="line" smooth="yes"/>
      <point x="474" y="446"/>
      <point x="441" y="514"/>
      <point x="303" y="514" type="curve" smooth="yes"/>
      <point x="229" y="514"/>
      <point x="148" y="465"/>
      <point x="148" y="465" type="curve"/>
      <point x="148" y="500" type="line"/>
    </contour>
    <contour>
      <point x="172" y="740" type="line"/>
      <point x="146" y="676" type="line"/>
      <point x="367" y="591" type="line"/>
      <point x="388" y="642" type="line"/>
    </contour>
  </outline>
</glyph>
<glyph name="oslashacute" format="2">
  <advance width="530"/>
  <unicode hex="01FF"/>
  <note>
oslashacute
</note>
  <anchor x="265" y="0" name="bottom"/>
  <anchor x="265" y="250" name="center"/>
  <anchor x="334" y="0" name="ogonek"/>
  <anchor x="274" y="740" name="top"/>
  <anchor x="508" y="500" name="topright"/>
  <outline>
    <contour>
      <point x="439" y="530" type="line"/>
      <point x="382" y="557" type="line"/>
      <point x="355" y="502" type="line"/>
      <point x="329" y="510"/>
      <point x="300" y="514"/>
      <point x="265" y="514" type="curve" smooth="yes"/>
      <point x="107" y="514"/>
      <point x="50" y="432"/>
      <point x="50" y="256" type="curve" smooth="yes"/>
      <point x="50" y="144"/>
      <point x="68" y="69"/>
      <point x="119" y="27" type="curve"/>
      <point x="91" y="-30" type="line"/>
      <point x="148" y="-57" type="line"/>
      <point x="176" y="-1" type="line"/>
      <point x="201" y="-8"/>
      <point x="230" y="-12"/>
      <point x="265" y="-12" type="curve" smooth="yes"/>
      <point x="434" y="-12"/>
      <point x="480" y="72"/>
      <point x="480" y="256" type="curve" smooth="yes"/>
      <point x="480" y="361"/>
      <point x="460" y="432"/>
      <point x="411" y="473" type="curve"/>
    </contour>
    <contour>
      <point x="128" y="256" type="curve" smooth="yes"/>
      <point x="128" y="399"/>
      <point x="159" y="449"/>
      <point x="265" y="449" type="curve" smooth="yes"/>
      <point x="288" y="449"/>
      <point x="308" y="447"/>
      <point x="325" y="441" type="curve"/>
      <point x="154" y="97" type="line"/>
      <point x="133" y="130"/>
      <point x="128" y="182"/>
    </contour>
    <contour>
      <point x="369" y="740" type="line"/>
      <point x="153" y="642" type="line"/>
      <point x="174" y="591" type="line"/>
      <point x="395" y="676" type="line"/>
    </contour>
    <contour>
      <point x="206" y="60" type="curve"/>
      <point x="376" y="403" type="line"/>
      <point x="395" y="372"/>
      <point x="402" y="325"/>
      <point x="402" y="256" type="curve" smooth="yes"/>
      <point x="402" y="112"/>
      <point x="384" y="53"/>
      <point x="265" y="53" type="curve" smooth="yes"/>
      <point x="242" y="53"/>
      <point x="222" y="55"/>
    </contour>
  </outline>
</glyph>
<glyph name="uni021A" format="2">
  <advance width="526"/>
  <unicode hex="021A"/>
  <note>
uni021A
</note>
  <anchor x="219" y="-236" name="bottom"/>
  <anchor x="263" y="340" name="center"/>
  <anchor x="263" y="700" name="top"/>
  <outline>
    <contour>
      <point x="512" y="700" type="line"/>
      <point x="14" y="700" type="line"/>
      <point x="14" y="630" type="line"/>
      <point x="224" y="630" type="line"/>
      <point x="224" y="0" type="line"/>
      <point x="302" y="0" type="line"/>
      <point x="302" y="630" type="line"/>
      <point x="512" y="630" type="line"/>
    </contour>
    <contour>
      <point x="253" y="-77" type="line"/>
      <point x="165" y="-221" type="line"/>
      <point x="209" y="-252" type="line"/>
      <point x="311" y="-120" type="line"/>
    </contour>
  </outline>
</glyph>
<glyph name="uni021B" format="2">
  <advance width="360"/>
  <unicode hex="021B"/>
  <note>
uni021B
</note>
  <anchor x="185" y="-236" name="bottom"/>
  <anchor x="134" y="263" name="center"/>
  <anchor x="137" y="653" name="top"/>
  <anchor x="226" y="730" name="topright"/>
  <outline>
    <contour>
      <point x="173" y="171" type="curve" smooth="yes"/>
      <point x="173" y="435" type="line"/>
      <point x="331" y="435" type="line"/>
      <point x="331" y="500" type="line"/>
      <point x="172" y="500" type="line"/>
      <point x="172" y="653" type="line"/>
      <point x="98" y="653" type="line"/>
      <point x="98" y="500" type="line"/>
      <point x="27" y="500" type="line"/>
      <point x="27" y="435" type="line"/>
      <point x="97" y="435" type="line"/>
      <point x="97" y="171" type="line" smooth="yes"/>
      <point x="97" y="27"/>
      <point x="133" y="-12"/>
      <point x="236" y="-12" type="curve" smooth="yes"/>
      <point x="271" y="-12"/>
      <point x="338" y="-1"/>
      <point x="338" y="-1" type="curve"/>
      <point x="333" y="61" type="line"/>
      <point x="333" y="61"/>
      <point x="272" y="55"/>
      <point x="244" y="55" type="curve" smooth="yes"/>
      <point x="179" y="55"/>
      <point x="173" y="86"/>
    </contour>
    <contour>
      <point x="219" y="-77" type="line"/>
      <point x="131" y="-221" type="line"/>
      <point x="175" y="-252" type="line"/>
      <point x="277" y="-120" type="line"/>
    </contour>
  </outline>
</glyph>
<glyph name="uni021E" format="2">
  <advance width="675"/>
  <unicode hex="021E"/>
  <note>
uni021E
</note>
  <anchor x="338" y="0" name="bottom"/>
  <anchor x="338" y="547" name="center"/>
  <anchor x="338" y="920" name="top"/>
  <outline>
    <contour>
      <point x="163" y="321" type="line"/>
      <point x="512" y="321" type="line"/>
      <point x="512" y="0" type="line"/>
      <point x="590" y="0" type="line"/>
      <point x="590" y="700" type="line"/>
      <point x="512" y="700" type="line"/>
      <point x="512" y="391" type="line"/>
      <point x="163" y="391" type="line"/>
      <point x="163" y="700" type="line"/>
      <point x="85" y="700" type="line"/>
      <point x="85" y="0" type="line"/>
      <point x="163" y="0" type="line"/>
    </contour>
    <contour>
      <point x="263" y="915" type="line"/>
      <point x="188" y="915" type="line"/>
      <point x="302" y="776" type="line"/>
      <point x="374" y="776" type="line"/>
      <point x="488" y="915" type="line"/>
      <point x="413" y="915" type="line"/>
      <point x="338" y="829" type="line"/>
    </contour>
  </outline>
</glyph>
<glyph name="uni0232" format="2">
  <advance width="552"/>
  <unicode hex="0232"/>
  <note>
uni0232
</note>
  <anchor x="277" y="0" name="bottom"/>
  <anchor x="277" y="863" name="top"/>
  <outline>
    <contour>
      <point x="237" y="294" type="line"/>
      <point x="237" y="0" type="line"/>
      <point x="315" y="0" type="line"/>
      <point x="315" y="294" type="line"/>
      <point x="535" y="700" type="line"/>
      <point x="451" y="700" type="line"/>
      <point x="277" y="367" type="line"/>
      <point x="101" y="700" type="line"/>
      <point x="17" y="700" type="line"/>
    </contour>
    <contour>
      <point x="139" y="863" type="line"/>
      <point x="139" y="804" type="line"/>
      <point x="414" y="804" type="line"/>
      <point x="414" y="863" type="line"/>
    </contour>
  </outline>
</glyph>
<glyph name="uni0244" format="2">
  <advance width="695"/>
  <unicode hex="0244"/>
  <note>
uni0244
</note>
  <anchor x="347" y="0" name="bottom"/>
  <anchor x="431" y="0" name="ogonek"/>
  <anchor x="347" y="700" name="top"/>
  <anchor x="644" y="700" name="topright"/>
  <outline>
    <contour>
      <point x="183" y="206" type="curve" smooth="yes"/>
      <point x="183" y="363" type="line"/>
      <point x="511" y="363" type="line"/>
      <point x="511" y="206" type="line" smooth="yes"/>
      <point x="511" y="98"/>
      <point x="452" y="57"/>
      <point x="344" y="57" type="curve" smooth="yes"/>
      <point x="242" y="57"/>
      <point x="183" y="98"/>
    </contour>
    <contour>
      <point x="20" y="431" type="line"/>
      <point x="20" y="363" type="line"/>
      <point x="105" y="363" type="line"/>
      <point x="105" y="208" type="line" smooth="yes"/>
      <point x="105" y="49"/>
      <point x="192" y="-12"/>
      <point x="344" y="-12" type="curve" smooth="yes"/>
      <point x="502" y="-12"/>
      <point x="589" y="50"/>
      <point x="589" y="208" type="curve" smooth="yes"/>
      <point x="589" y="363" type="line"/>
      <point x="675" y="363" type="line"/>
      <point x="675" y="431" type="line"/>
      <point x="589" y="431" type="line"/>
      <point x="589" y="700" type="line"/>
      <point x="511" y="700" type="line"/>
      <point x="511" y="431" type="line"/>
      <point x="183" y="431" type="line"/>
      <point x="183" y="700" type="line"/>
      <point x="105" y="700" type="line"/>
      <point x="105" y="431" type="line"/>
    </contour>
  </outline>
</glyph>
<glyph name="uni0259" format="2">
  <advance width="506"/>
  <unicode hex="0259"/>
  <note>
uni0259
</note>
  <anchor x="244" y="0" name="bottom"/>
  <anchor x="139" y="500" name="ogonek"/>
  <anchor x="251" y="500" name="top"/>
  <outline>
    <contour>
      <point x="249" y="446" type="curve" smooth="yes"/>
      <point x="347" y="446"/>
      <point x="380" y="390"/>
      <point x="380" y="281" type="curve"/>
      <point x="50" y="281" type="line"/>
      <point x="46" y="224" type="line"/>
      <point x="46" y="56"/>
      <point x="114" y="-14"/>
      <point x="247" y="-14" type="curve" smooth="yes"/>
      <point x="374" y="-14"/>
      <point x="456" y="59"/>
      <point x="456" y="253" type="curve" smooth="yes"/>
      <point x="456" y="425"/>
      <point x="407" y="512"/>
      <point x="258" y="512" type="curve" smooth="yes"/>
      <point x="177" y="512"/>
      <point x="63" y="496"/>
      <point x="63" y="496" type="curve"/>
      <point x="65" y="437" type="line"/>
      <point x="65" y="437"/>
      <point x="174" y="446"/>
    </contour>
    <contour>
      <point x="121" y="221" type="curve"/>
      <point x="381" y="221" type="line"/>
      <point x="380" y="96"/>
      <point x="332" y="49"/>
      <point x="247" y="49" type="curve" smooth="yes"/>
      <point x="159" y="49"/>
      <point x="121" y="93"/>
    </contour>
  </outline>
</glyph>
<glyph name="uni0268" format="2">
  <advance width="304"/>
  <unicode hex="0268"/>
  <note>
uni0268
</note>
  <anchor x="153" y="0" name="bottom"/>
  <anchor x="191" y="0" name="ogonek"/>
  <anchor x="153" y="700" name="top"/>
  <outline>
    <contour>
      <point x="191" y="500" type="line"/>
      <point x="115" y="500" type="line"/>
      <point x="115" y="288" type="line"/>
      <point x="26" y="288" type="line"/>
      <point x="26" y="224" type="line"/>
      <point x="115" y="224" type="line"/>
      <point x="115" y="0" type="line"/>
      <point x="191" y="0" type="line"/>
      <point x="191" y="224" type="line"/>
      <point x="279" y="224" type="line"/>
      <point x="279" y="288" type="line"/>
      <point x="191" y="288" type="line"/>
    </contour>
    <contour>
      <point x="115" y="700" type="line"/>
      <point x="115" y="603" type="line"/>
      <point x="190" y="603" type="line"/>
      <point x="190" y="700" type="line"/>
    </contour>
  </outline>
</glyph>
